<svg width="169" height="127" viewBox="0 0 169 127" fill="none" xmlns="http://www.w3.org/2000/svg">
<path d="M42.4239 22.5635C42.4239 43.4153 42.1126 45.4383 39.1554 48.3949L35.8869 51.6627L29.8169 45.7495C22.813 38.9026 17.2098 38.2802 9.73903 43.5709C-3.17926 52.752 -2.55669 74.5374 11.1398 83.5628C18.455 88.5424 21.2565 88.0755 29.0386 80.9175L35.7312 74.693L38.9997 78.2721C42.1126 81.6955 42.4239 83.5628 42.4239 103.948V126.044H64.8363C86.7818 126.044 87.4044 125.889 92.0737 121.999C98.2993 116.863 98.1437 113.907 91.4511 107.371C84.4472 100.68 84.4472 96.1673 91.2955 89.3204C96.1204 84.4965 97.5211 84.0297 105.303 84.0297C112.774 84.0297 114.642 84.6521 119.467 88.8536C126.937 95.3892 126.937 101.147 119.467 107.838C112.774 113.596 112.774 115.619 118.533 121.532L123.046 126.044H145.77H168.494V103.325V80.6062L163.98 76.0935C158.066 70.3359 156.043 70.3359 150.284 77.0272C144.214 83.8741 139.233 84.0297 132.385 77.9609C127.56 73.6038 127.249 72.8257 127.249 63.0223C127.249 53.2188 127.56 52.4407 132.385 48.0836C139.078 42.0148 143.902 42.3261 149.972 49.0173C156.043 55.553 158.844 55.8642 164.292 50.1066C168.494 45.7495 168.494 45.5939 168.494 22.8748V1.23382e-05H105.459H42.4239V22.5635Z" fill="black"/>
</svg>
