<svg width="210" height="126" viewBox="0 0 210 126" fill="none" xmlns="http://www.w3.org/2000/svg">
<path d="M42.6382 22.062C42.6382 38.8679 42.1713 44.1587 40.1479 46.9597C37.0351 51.628 35.4787 51.3168 28.4748 44.9367C21.6265 38.8679 17.4242 38.2455 10.8872 42.447C3.72771 47.1153 0.614868 53.3397 0.614868 62.5207C0.614868 72.4798 3.72771 79.0154 10.4203 83.0613C17.8911 87.7296 22.8717 87.1072 28.7861 80.7272C34.8561 74.3471 35.323 74.1915 39.5254 78.393C42.3269 81.194 42.6382 83.5281 42.6382 103.291V125.076H65.8289H89.0195L93.0662 120.252C95.2452 117.607 97.1129 114.806 97.1129 114.028C97.1129 113.405 94.7783 110.604 91.8211 107.959C84.9728 101.579 84.1946 98.1555 88.397 92.0867C95.2452 81.6608 111.432 80.4159 120.459 89.4413C126.685 95.8214 126.529 100.801 119.681 107.025C113.3 112.939 112.833 116.051 118.125 121.186C121.704 124.921 122.483 125.076 145.362 125.076H168.708V102.824C168.708 83.0613 169.02 80.1047 171.51 77.9262C175.401 74.3471 176.023 74.5027 181.782 80.7272C188.942 88.3521 194.7 88.1965 203.416 80.1047C209.953 74.0359 209.953 73.8803 209.953 62.8319C209.953 51.7836 209.953 51.628 203.416 45.5592C194.7 37.4674 188.942 37.3118 181.782 44.9367C176.023 51.1612 174.778 51.4724 171.354 47.5821C169.175 45.248 168.708 41.0465 168.708 22.6844V0.587752H145.362C122.483 0.587752 121.704 0.743362 118.125 4.47801C112.833 9.61316 113.3 12.7254 119.681 18.6386C126.374 24.7074 126.685 29.6869 120.771 36.0669C112.21 45.248 95.4009 44.0031 88.397 33.5772C84.1946 27.5084 84.9728 24.0849 91.8211 17.7049C94.7783 15.0595 97.1129 12.2585 97.1129 11.6361C97.1129 10.858 95.2452 8.05706 93.0662 5.41168L89.0195 0.587752H65.8289H42.6382V22.062Z" fill="black"/>
</svg>
