<svg width="127" height="169" viewBox="0 0 127 169" fill="none" xmlns="http://www.w3.org/2000/svg">
<path d="M105.599 0.587708C82.5642 0.587708 77.895 1.83259 74.3152 8.83506C71.9806 13.1922 72.1362 13.5034 78.2063 20.039C81.786 23.9293 84.5876 27.5083 84.5876 28.1308C84.5876 30.9318 78.3619 39.4903 75.0934 41.202C73.0701 42.1357 67.6226 42.9138 62.9533 42.9138C55.0156 42.9138 53.7705 42.2913 49.2568 37.3118C42.7199 30.1537 42.7199 26.2634 49.5681 19.8834C56.1051 13.8146 56.4164 10.2356 50.9689 5.10041C47.0779 1.52137 46.144 1.36576 24.1985 1.36576L1.3191 1.36576L0.852178 23.3068C0.385252 45.0923 0.540894 45.4035 4.58759 50.2275C9.72377 56.4519 13.6148 56.2963 19.8405 49.605C26.3775 42.7581 30.5798 42.7581 37.2724 49.4494C42.0973 54.2733 42.5642 55.5182 42.5642 63.9212C42.5642 74.0359 40.2296 78.7042 33.2257 82.2832C30.7354 83.5281 28.2452 84.6174 27.7782 84.6174C27.3113 84.6174 23.8872 81.8164 20.1518 78.393C13.7705 72.4798 12.9923 72.1685 9.1012 74.0359C1.94167 77.3037 0.540894 82.2832 0.540894 105.625L0.540894 126.632H22.1751C43.0312 126.632 44.1207 126.788 48.323 130.367L52.681 134.257L46.9222 139.548C42.253 143.749 41.0078 146.084 41.0078 150.441C41.0078 161.022 50.9689 168.647 64.6654 168.647C73.8483 168.647 80.074 165.535 84.7432 158.377C88.9456 151.841 88.323 147.64 82.253 140.793C75.8716 133.79 75.5603 132.234 80.2296 129.122C83.0312 127.099 88.323 126.632 105.132 126.632L126.611 126.632L126.611 63.61V0.587708L105.599 0.587708Z" fill="black"/>
</svg>
