<svg width="168" height="168" viewBox="0 0 168 168" fill="none" xmlns="http://www.w3.org/2000/svg">
<path d="M56.0311 1.02995C50.2724 2.11922 42.8016 8.34364 40.4669 13.79C38.1323 19.7032 40.4669 26.8613 46.2257 30.5959C50.428 33.3969 50.7393 36.0423 47.3152 39.4657C45.2918 41.4887 40.7782 41.9555 22.4125 41.9555H0V104.978V168H63.035H126.07V145.748C126.07 125.985 126.381 123.029 128.872 120.85C132.763 117.271 133.541 117.427 139.611 123.651C145.837 130.031 150.039 130.498 157.354 125.518C171.673 116.026 171.518 93.4626 156.887 84.904C150.35 80.8581 145.058 81.7918 138.988 87.8606C133.696 93.1514 133.23 93.307 129.805 90.9728C126.226 88.6387 126.07 87.8606 125.759 65.6083L125.292 42.7336L102.724 42.2667C81.7121 41.9555 80 41.6443 77.3541 38.5321C74.7082 35.2643 74.7082 35.1086 79.8444 29.6623C82.8016 26.5501 85.6031 22.971 86.07 21.5705C87.1595 18.1471 81.8677 7.7212 77.3541 4.29777C73.463 1.49678 62.2568 -0.214936 56.0311 1.02995Z" fill="black"/>
</svg>
