<svg width="169" height="169" viewBox="0 0 169 169" fill="none" xmlns="http://www.w3.org/2000/svg">
<path d="M165.381 92.6834C158.378 81.0126 148.261 79.3009 139.234 88.1707L133.319 93.7727L129.895 90.1936C126.627 86.7702 126.471 85.0585 126.471 64.5179V42.4212H104.37C83.9806 42.4212 82.1129 42.11 78.6888 38.9978L75.109 35.73L81.3347 29.0387C88.4943 21.2582 88.9612 18.4572 83.9806 11.1435C74.9534 -2.55022 53.1635 -3.17266 43.9806 9.74301C38.6888 17.2123 39.3114 22.8143 46.004 29.6612L51.7627 35.5743L48.6499 38.9978C45.5371 42.2656 44.1363 42.4212 22.969 42.4212H0.400879L0.400879 64.8291C0.400879 86.7702 0.556521 87.3926 4.44757 92.061C9.58376 98.2854 12.541 98.1298 19.0779 91.4385C25.7705 84.436 30.2841 84.436 37.1324 91.2829C41.9573 96.1068 42.4242 97.5073 42.4242 105.288C42.4242 112.757 41.8017 114.624 37.5993 119.448C31.218 126.606 26.0818 126.762 19.0779 119.448C16.1207 116.492 12.8522 114.002 11.6071 114.002C10.5176 114.002 7.40477 116.025 4.9145 118.515L0.400879 123.027L0.400879 145.747L0.400879 168.466H63.4359H126.471V146.213C126.471 126.451 126.782 123.494 129.272 121.316C133.164 117.737 133.786 117.892 140.634 124.117C147.638 130.341 150.128 130.808 157.288 126.451C168.183 119.76 172.074 103.576 165.381 92.6834Z" fill="black"/>
</svg>
