<svg width="127" height="169" viewBox="0 0 127 169" fill="none" xmlns="http://www.w3.org/2000/svg">
<path d="M63.5059 168.324H126.541V145.138C126.541 122.263 126.541 121.952 122.494 117.906C117.047 112.46 114.09 112.771 108.331 119.307C102.728 125.531 97.7471 126.309 91.9884 121.641C82.6498 114.483 82.0273 97.8324 90.5876 90.2075C97.5915 83.983 103.506 84.4499 108.798 91.2967C113.778 97.8324 116.424 98.1436 122.183 92.5416L126.541 88.3401V65.3098L126.541 42.2794H104.284C84.5175 42.2794 81.5604 41.9682 79.3814 39.4784C75.8016 35.5882 75.9572 34.9657 82.1829 28.1189C89.3425 20.1827 89.1868 15.8257 81.5604 7.73391C76.1129 1.82071 74.8677 1.19827 66.3074 0.575825C55.2568 -0.202228 48.5642 2.59876 44.0506 10.0681C39.3814 17.693 40.0039 23.1393 46.3853 29.2082C52.144 34.4989 52.2997 37.9223 47.0078 40.7233C45.4514 41.657 34.4008 42.2794 22.4164 42.2794L0.470859 42.2794L0.470859 63.5981C0.470859 82.1157 0.937785 85.6948 3.42806 90.0518C8.09732 97.6768 12.144 97.988 18.9923 91.4523C25.6849 84.9167 30.5098 84.2943 36.7354 89.4294C45.1401 96.1207 45.4514 112.149 37.5137 120.24C31.1323 126.465 25.6849 126.153 19.3035 119.307C14.0117 113.393 12.7666 112.927 8.09732 115.416C2.02728 118.84 0.470859 124.909 0.470859 147.316V168.324H63.5059Z" fill="black"/>
</svg>
