<svg width="169" height="127" viewBox="0 0 169 127" fill="none" xmlns="http://www.w3.org/2000/svg">
<path d="M168.454 63.4874V0.465149L146.042 0.465149C124.096 0.465149 123.474 0.620759 118.805 4.51102C112.579 9.64617 112.734 12.6028 119.427 19.1384C126.431 25.8297 126.431 30.3424 119.583 37.1892C114.758 42.0131 113.513 42.48 104.952 42.48C96.5477 42.48 94.9913 42.0131 90.9446 37.9673C83.6294 30.6536 83.6294 27.697 91.1003 19.6052C97.3259 12.914 97.4816 12.4472 95.1469 8.55689C91.2559 1.55442 87.0536 0.465149 63.7073 0.465149L42.3843 0.465149V22.7174C42.3843 44.6585 42.3843 45.1254 38.3376 48.7044L34.4466 52.439L30.7111 47.6151C22.7734 37.5004 11.5672 38.5897 3.78508 50.2605C0.672235 54.9288 0.205308 57.263 0.672235 65.3547C1.2948 75.7806 4.56329 80.9158 13.1236 85.4285C19.3493 88.6963 21.5283 88.2295 28.2209 82.1606C35.0691 75.9362 36.3143 75.625 39.7384 79.5153C41.9174 81.8494 42.3843 86.0509 42.3843 104.413V126.51H105.419L168.454 126.51L168.454 63.4874Z" fill="black"/>
</svg>
