<svg width="169" height="168" viewBox="0 0 169 168" fill="none" xmlns="http://www.w3.org/2000/svg">
<path d="M42.69 21.6299C42.69 42.6373 42.5343 43.5709 38.7989 47.7724L35.0635 52.1295L31.1725 47.3056C25.4137 40.1475 19.3437 37.969 13.4293 41.0812C10.939 42.3261 7.04795 45.5939 4.71332 48.2393C1.28919 52.4407 0.666626 54.6193 0.666626 63.1779C0.666626 72.6701 0.97791 73.6038 6.73666 79.6726C11.7172 85.1189 13.7406 86.2082 18.5655 86.2082C23.546 86.2082 25.4137 85.1189 29.616 80.295L34.7522 74.3818L38.6433 78.4277C42.5343 82.318 42.69 82.7848 42.69 104.259V126.044H64.9468C84.7133 126.044 87.6705 126.356 89.8495 128.845C93.4293 132.736 93.2736 133.358 87.0479 140.205C79.8884 148.141 80.0441 152.498 87.5149 160.59C92.8067 166.192 94.5188 167.126 101.99 167.748C112.729 168.526 120.978 165.258 125.18 158.411C129.85 150.631 129.227 145.185 122.846 139.116C118.176 134.759 117.554 133.358 118.799 130.868C121.289 126.511 123.624 126.044 147.126 126.044H168.76V104.57C168.76 86.2082 168.293 82.6292 165.803 78.2721C161.134 70.6472 157.087 70.336 150.239 76.8716C143.079 83.8741 137.943 84.1853 131.717 77.9609C123.779 70.0247 123.935 56.0198 131.873 48.2393C138.41 41.8592 143.079 42.1705 150.394 49.3285C156.153 54.9305 156.62 55.0861 160.667 52.9076C167.671 48.8617 168.76 44.6602 168.76 21.3186V6.05392e-07H105.725H42.69V21.6299Z" fill="black"/>
</svg>
