<svg width="168" height="168" viewBox="0 0 168 168" fill="none" xmlns="http://www.w3.org/2000/svg">
<path d="M42.708 21.6298C42.708 42.4816 42.5524 43.5709 38.9726 47.7724L35.0816 52.1295L29.9454 46.5275C27.1438 43.4153 23.2528 40.4587 21.3851 39.8362C17.0271 38.4358 10.0232 42.0148 4.73139 48.2392C1.30726 52.2851 0.684692 54.6192 0.684692 62.5554C0.684692 76.7159 7.99987 86.2082 19.2061 86.2082C23.4084 86.2082 25.5874 84.9633 29.6341 80.295L34.7703 74.3818L38.6613 78.4277C42.5524 82.3179 42.708 82.7847 42.708 104.259V126.044H64.9649C84.7314 126.044 87.6886 126.356 89.8676 128.845C93.4473 132.736 93.1361 134.603 88.9337 138.026C79.9065 145.029 79.5952 152.031 87.5329 160.59C92.9804 166.348 94.5368 167.126 102.163 167.748C112.591 168.526 121.152 165.103 125.354 158.1C129.868 150.631 129.245 145.185 122.708 139.271C117.883 134.759 117.416 133.669 118.817 130.868C121.152 126.667 123.953 126.044 147.766 125.578L168 125.266V63.0222V0.778017L105.432 0.311186L42.708 -3.52522e-05V21.6298Z" fill="black"/>
</svg>
