<svg width="168" height="210" viewBox="0 0 168 210" fill="none" xmlns="http://www.w3.org/2000/svg">
<path d="M56.1868 0.419566C50.428 1.50884 45.6031 5.24349 41.8677 11.1567C37.6654 18.0036 38.7549 22.8275 46.2257 29.6743L51.8288 34.6539L48.4047 38.0773C45.4475 41.0339 43.5798 41.3451 22.5681 41.3451H0V104.367V167.39H21.7899C43.2685 167.39 43.7354 167.545 47.7821 171.435L51.8288 175.481L46.2257 179.994C36.8872 187.619 37.5097 196.333 48.249 205.359C52.4514 208.782 54.6303 209.404 63.035 209.404C71.4397 209.404 73.6187 208.782 77.9767 205.203C80.6226 202.869 83.891 198.667 85.1362 195.866C86.8482 191.354 86.8482 190.109 84.8249 186.218C83.5798 183.729 80.6226 180.305 78.2879 178.594L74.0856 175.637L78.2879 171.435C82.3346 167.39 82.6459 167.39 104.28 167.39H126.07V145.137C126.07 125.375 126.381 122.418 128.872 120.24C132.763 116.661 134.63 116.972 138.054 121.173C145.058 130.199 152.062 130.51 160.623 122.574C166.381 117.127 167.16 115.571 167.782 107.946C168.56 97.5205 165.136 88.9619 158.132 84.7604C150.661 80.2477 145.214 80.8702 139.144 87.2502C134.786 91.9185 133.385 92.541 130.895 91.2961C126.537 88.8063 126.07 86.4722 126.07 62.975V41.3451H102.879C80.6226 41.3451 79.3774 41.1895 77.1984 37.9217C74.8638 34.6539 75.0195 34.187 80 28.8963C82.8016 25.9397 85.6031 22.205 86.2257 20.6489C87.4708 16.7587 83.1128 7.73326 77.9767 4.15422C73.6187 1.04201 62.4124 -0.825318 56.1868 0.419566Z" fill="black"/>
</svg>
