<svg width="127" height="169" viewBox="0 0 127 169" fill="none" xmlns="http://www.w3.org/2000/svg">
<path d="M23.635 168.236C46.5144 168.236 46.8257 168.236 50.8724 164.19C56.3199 158.744 56.0086 155.943 49.4716 149.563C42.779 143.183 42.6234 138.826 48.5378 132.134C52.2732 127.933 54.1409 127.155 62.2343 126.532C71.2615 125.91 72.0397 126.066 77.4872 131.201C85.4249 138.359 85.4249 143.805 77.4872 150.496C70.9502 155.943 70.9502 159.677 77.7985 165.124C81.3782 167.925 84.0241 168.236 104.102 168.236H126.514V145.517V122.798L122.001 118.285C116.086 112.372 113.596 112.527 108.46 119.219C102.857 126.688 97.0981 126.688 89.6272 119.219C84.3354 113.928 84.1798 113.461 84.8023 104.124C85.4249 95.8771 86.2031 94.0098 90.4055 90.2751C97.0981 84.3619 101.456 84.5175 107.837 91.2088C114.374 97.9 117.332 98.0556 122.468 91.8312C126.359 87.1629 126.514 86.5405 126.514 64.5994L126.514 42.1915H104.258C84.4911 42.1915 81.5339 41.8803 79.3549 39.3905C75.7751 35.5002 75.9307 34.2553 81.3782 29.2758C87.6039 23.3626 88.6934 18.5387 85.1136 12.4699C76.8646 -1.53506 57.7206 -4.18044 46.3588 7.33473C42.0008 11.6918 40.9113 14.026 40.9113 18.6943C40.9113 23.6738 41.8451 25.5412 46.3588 29.587C52.1175 34.5666 52.2732 37.8344 46.9813 40.6354C45.4249 41.569 34.3743 42.1915 22.3899 42.1915L0.44437 42.1915L0.44437 63.5101C0.44437 86.8517 1.53386 91.0532 8.53775 95.099C12.5844 97.2776 13.0514 97.122 18.8101 91.52C25.9697 84.5175 29.8607 84.3619 37.0202 90.5863C42.1564 95.099 42.4677 95.8771 42.4677 105.214C42.4677 114.239 42.0008 115.484 37.6428 119.841C31.2615 126.377 26.1253 126.066 18.9658 119.063C12.1175 112.527 8.07083 112.839 3.40157 120.464C0.911296 124.821 0.44437 128.4 0.44437 146.762V168.236H23.635Z" fill="black"/>
</svg>
