<svg width="169" height="167" viewBox="0 0 169 167" fill="none" xmlns="http://www.w3.org/2000/svg">
<path d="M42.4709 20.8963C42.4709 43.6154 42.0039 45.9496 37.4903 48.4394C35 49.6843 33.4436 49.0618 28.3074 44.5491C21.6148 38.3247 18.1907 37.7022 11.1868 41.2813C4.33856 44.8603 0.44751 52.3296 0.44751 61.9775C0.44751 71.9366 3.56035 78.4722 10.253 82.5181C17.4125 86.8752 21.4592 86.4083 28.3074 80.1839C31.5759 77.2273 34.6888 74.7375 35.1557 74.7375C35.7782 74.7375 37.4903 76.2936 39.358 78.161C42.1596 81.2732 42.4709 83.6073 42.4709 103.059V124.533H62.7043C91.1868 124.533 97.5681 128.268 86.8288 139.005C80.9144 144.918 80.1362 148.808 83.716 155.655C86.8288 161.724 93.5214 166.237 100.058 166.548C113.599 167.326 115.778 166.703 122.004 160.479C130.253 152.232 130.253 146.318 122.315 138.071L116.401 132.158L120.759 128.268C124.961 124.689 126.051 124.533 146.907 124.533H168.541V102.903C168.541 81.8956 168.385 81.1176 164.494 76.4493C159.202 70.2248 155.156 70.3804 148.93 77.0717C146.128 80.1839 142.549 82.5181 140.525 82.5181C135.7 82.5181 126.518 73.0258 126.206 67.4238C125.584 54.5082 127.451 49.5286 134.767 45.1715C141.615 40.9701 142.549 41.1257 149.241 48.2838C152.51 51.7072 155.778 54.5082 156.556 54.5082C157.335 54.5082 160.292 52.174 163.249 49.2174L168.541 43.9267V21.9856V0.0444909H145.35C124.339 0.0444909 121.848 0.355712 118.113 3.31231C112.665 7.66941 112.977 12.3377 119.514 18.5622C122.471 21.3631 124.961 24.9422 124.961 26.6539C124.961 28.3656 122.626 32.2559 119.669 35.5237C114.533 40.9701 113.755 41.2813 104.883 41.2813C96.4786 41.2813 94.9222 40.8145 90.8755 36.613C83.4047 28.9881 83.4047 26.0315 90.7199 18.0953C97.4125 10.7816 97.5681 10.0036 91.8094 3.46792C88.6965 0.200101 87.4514 0.0444909 65.5059 0.0444909H42.4709V20.8963Z" fill="black"/>
</svg>
