<svg width="168" height="167" viewBox="0 0 168 167" fill="none" xmlns="http://www.w3.org/2000/svg">
<path d="M41.9298 22.2968C41.9298 42.0593 41.6185 45.0159 39.1283 47.1945C35.2372 50.7735 34.459 50.6179 28.389 44.3935C21.0738 36.9242 15.782 37.0798 7.22166 45.0159C0.684692 51.0847 0.684692 51.2403 0.684692 62.2887C0.684692 73.337 0.684692 73.4926 7.22166 79.5615C15.9376 87.6532 21.6964 87.8088 28.8559 80.1839C34.6147 73.9595 35.8598 73.6483 39.2839 77.5385C41.4629 79.8727 41.9298 84.0742 41.9298 102.436V124.533H63.7197C85.354 124.533 85.6652 124.533 89.7119 128.734L93.9143 132.78L89.0894 136.826C82.2411 142.584 80.2178 148.341 83.175 153.943C86.5991 160.635 94.3812 166.548 99.9843 166.703C114.615 167.17 120.84 164.836 125.977 156.433C130.335 149.431 129.245 144.451 121.93 137.76L116.482 132.78L119.595 129.046C122.397 125.467 123.486 125.311 145.276 124.844L168 124.377V62.1331V0.0444994H144.809C121.93 0.0444994 121.619 0.0444994 117.572 4.09037C112.28 9.53674 112.436 11.4041 118.973 17.3173C122.708 20.7407 124.42 23.6973 124.42 26.4983C124.42 40.9701 100.763 47.1945 89.8676 35.5237C83.9532 29.1437 84.2645 24.1641 90.9571 18.0953C97.3384 12.1821 97.8053 9.06991 92.5135 3.93476C88.9337 0.20011 88.1555 0.0444994 65.2761 0.0444994H41.9298V22.2968Z" fill="black"/>
</svg>
