<svg width="169" height="127" viewBox="0 0 169 127" fill="none" xmlns="http://www.w3.org/2000/svg">
<path d="M163.891 48.5043C155.331 38.3896 146.303 37.9228 138.21 47.5706L134.163 52.5502L130.117 48.8155C126.07 45.0809 126.07 44.614 126.07 22.673V0.420654L105.058 0.420654C81.7121 0.420654 76.7315 1.82115 73.3074 9.29045C71.4397 13.3363 71.5953 13.9588 75.9533 17.6934C83.2685 24.2291 84.5136 27.6525 81.7121 32.9432C78.1323 40.1013 73.6187 42.4355 63.3463 42.4355C54.9416 42.4355 53.6965 41.9687 48.8716 37.1447C42.179 30.4535 42.179 26.252 49.0272 19.7164C55.7198 13.4919 55.8755 9.60167 49.6498 4.46653C44.8249 0.420654 44.5136 0.265044 22.7237 0.731875L0.77821 1.19871L0.311284 63.9097L0 126.465H23.035C45.4475 126.465 46.3813 126.31 50.428 122.575C55.8755 117.595 55.5642 114.172 49.0272 107.792C42.9572 101.879 42.3346 98.6109 46.07 92.8533C49.8054 87.4069 56.1868 84.4503 64.7471 84.4503C71.1284 84.4503 72.6848 85.2284 77.9767 90.5191C81.4008 93.7869 84.0467 97.6772 84.0467 99.2333C84.0467 100.634 81.2451 104.524 77.9767 107.792C71.1284 114.639 70.9728 118.218 77.5097 123.353C80.9338 126.154 83.7354 126.465 103.658 126.465H126.07V104.991C126.07 88.185 126.537 82.8942 128.56 80.0932C131.829 75.4249 134.163 75.7361 140.7 82.2718C145.525 87.0957 147.082 87.7181 151.128 86.9401C162.179 84.7615 168.093 76.3586 168.093 62.9761C168.093 55.0399 167.471 52.8614 163.891 48.5043Z" fill="black"/>
</svg>
