<svg width="125" height="168" viewBox="0 0 125 168" fill="none" xmlns="http://www.w3.org/2000/svg">
<path d="M102.327 41.8097C82.5603 41.8097 79.6031 41.4985 77.4242 39.0087C73.8444 35.1184 74 34.496 80.2257 28.7384C87.8522 21.5803 87.6965 15.8227 79.6031 7.10855C73.5331 0.572906 73.3775 0.572906 62.3269 0.572906C51.2763 0.572906 51.1207 0.572906 45.0506 7.10855C36.9572 15.8227 36.8016 21.5803 44.428 28.7384C50.6537 34.496 50.965 35.7409 47.074 39.1643C44.7393 41.3429 40.537 41.8097 22.1712 41.8097H0.0700684L0.0700684 65.1513C0.0700684 88.026 0.22571 88.8041 3.96112 92.3831C9.09731 97.6739 12.2101 97.207 18.1245 90.827C21.2374 87.4036 24.5059 85.3806 26.9961 85.3806C32.5993 85.3806 40.0701 93.0055 41.4708 100.008C44.7393 117.436 28.3969 131.597 18.4358 119.926C13.2996 113.702 11.4319 112.924 7.54089 115.102C0.692636 118.681 0.22571 120.86 0.0700684 144.979L0.0700684 167.854H22.0156C34 167.854 45.2063 167.076 46.9183 166.298C48.4747 165.364 50.965 162.563 52.2101 160.074C54.5448 155.561 54.3891 155.405 49.0973 150.581C42.2491 144.357 41.3152 141.245 44.428 135.332C47.3852 129.263 54.0778 125.839 62.3269 125.839C70.5759 125.839 77.2685 129.263 80.2257 135.332C83.3385 141.245 82.4047 144.357 75.5564 150.581C70.2646 155.405 70.109 155.561 72.4436 160.074C73.6887 162.563 76.179 165.364 77.7354 166.298C79.4475 167.076 90.6537 167.854 102.638 167.854H124.584V144.979C124.428 120.86 123.961 118.681 117.113 115.102C113.222 112.924 111.354 113.702 106.218 119.926C96.2568 131.597 79.9144 117.436 83.1829 100.008C84.5837 93.0055 92.0545 85.3806 97.6576 85.3806C100.148 85.3806 103.416 87.4036 106.529 90.827C112.444 97.207 115.556 97.6739 120.693 92.3831C124.428 88.8041 124.584 88.026 124.584 65.1513V41.8097H102.327Z" fill="black"/>
</svg>
