<svg width="108" height="144" viewBox="0 0 108 144" fill="none" xmlns="http://www.w3.org/2000/svg">
<path d="M0 54V108H19.0667C36 108 38.5333 108.267 40.4 110.4C43.4667 113.733 43.3333 114 37.8667 119.6C33.6 123.733 33.2 124.933 33.8667 129.067C35.3333 138.8 46.1333 145.2 57.7333 143.467C62.5333 142.667 64.8 141.333 68.5333 137.2C74.9333 130.267 74.9333 125.333 68.6667 119.067C63.3333 113.733 63.2 113.2 66.4 110.267C68.2667 108.533 72.5333 108 88 107.733L107.333 107.333V87.6V67.7333L103.6 64.5333C98.5333 60.1333 96 60.5333 91.6 66C88.9333 69.3333 86.8 70.6667 84.1333 70.6667C79.4667 70.6667 72.1333 63.6 71.7333 58.8C71.3333 52.9333 72.1333 46.2667 73.4667 43.7333C74.8 41.3333 82.2667 36 84.4 36C84.9333 36 88.1333 38.5333 91.4667 41.6C97.0667 46.8 97.6 46.9333 100.933 45.2C106.533 42.1333 108 36.6667 108 17.3333V0H54H0V54Z" fill="black"/>
</svg>
