<svg width="180" height="144" viewBox="0 0 180 144" fill="none" xmlns="http://www.w3.org/2000/svg">
<path d="M1.18254 62.8C2.64922 66.6666 11.4492 74 14.5159 74C18.5159 74 23.5826 71.2 25.8492 67.7333C28.3825 64 30.6492 63.8666 33.5826 67.0666C35.4492 69.0666 35.8492 72.6666 35.8492 88.4V107.333H54.5159C72.9159 107.333 73.3159 107.467 76.7826 110.8L80.1159 114.133L75.5826 118.4C73.0492 120.8 70.5159 124 69.9826 125.6C68.7826 129.333 71.8492 135.333 77.1826 139.867C80.7826 142.8 82.6492 143.333 89.8492 143.333C97.0492 143.333 98.9159 142.8 102.516 139.867C107.849 135.333 110.916 129.333 109.716 125.6C109.183 124 106.649 120.8 104.116 118.4L99.5826 114.133L102.916 110.8C106.383 107.467 106.783 107.333 125.183 107.333H143.849V88.2666C143.849 71.3333 144.116 68.8 146.249 66.9333C149.583 63.8666 150.249 64 155.449 69.3333C161.583 75.7333 166.249 75.6 173.449 68.9333C178.383 64.2666 179.049 62.9333 179.583 56.4C180.249 47.3333 177.449 40.5333 171.183 36.6666C164.649 32.6666 160.249 33.2 154.916 38.8C150.649 43.4666 150.383 43.4666 147.183 41.4666C143.983 39.3333 143.849 38.8 143.583 19.6L143.183 -3.05176e-05H89.8492H36.5159L36.2492 17.3333C35.8492 37.7333 35.3159 40.1333 31.8492 42C29.5826 43.2 28.3825 42.8 24.6492 38.6666C21.5826 35.4666 19.0492 34 16.5159 34C11.3159 34 4.51587 38.6666 1.98254 43.8666C-0.284119 48.6666 -0.684128 58.1333 1.18254 62.8Z" fill="black"/>
</svg>
