<svg width="108" height="144" viewBox="0 0 108 144" fill="none" xmlns="http://www.w3.org/2000/svg">
<path d="M0 19.8666V39.7333L4.13333 43.2C6.4 45.0666 8.8 46.6666 9.46667 46.6666C10.1333 46.6666 12.2667 44.8 14.2667 42.5333C19.7333 36.5333 22 35.6 26.2667 37.8666C32 40.8 34.8 44.6666 35.6 50.4C36.5333 57.4666 34 64.6666 29.3333 68C24 71.7333 20.8 71.3333 15.8667 66C10.6667 60.5333 7.73333 60.1333 3.33333 64.6666C0.133333 67.7333 0 68.4 0 88V108H19.0667C36 108 38.5333 108.267 40.4 110.4C43.4667 113.733 43.3333 114.267 38 119.2C32.5333 124.4 32.1333 128.4 36.4 134.8C44.1333 146.4 60.5333 146.933 69.7333 136.133C74.8 130 74.5333 124.933 68.6667 119.067C63.3333 113.733 63.2 113.2 66.4 110.267C68.2667 108.533 72.5333 108 88 107.733L107.333 107.333L107.733 53.6L108 -3.05176e-05H54H0V19.8666Z" fill="black"/>
</svg>
