<svg width="144" height="145" viewBox="0 0 144 145" fill="none" xmlns="http://www.w3.org/2000/svg">
<path d="M0 54.1333V108.133H18.1333C28 108.133 37.2 108.667 38.5333 109.467C43.0667 111.867 42.9333 114.8 38 120.267C32.6667 126.133 32.2667 129.6 36 135.733C39.4667 141.467 45.0667 144.133 53.3333 144.133C61.6 144.133 67.2 141.467 70.6667 135.733C74.6667 129.333 74.1333 125.2 68.4 119.6L63.4667 114.8L66.6667 111.467C69.7333 108.267 70.2667 108.133 88.2667 108.133H106.667V90.8C106.667 66.4 109.867 60.9333 119.067 70.1333C124.133 75.2 127.467 75.8666 133.333 72.8C145.6 66.5333 147.333 48.4 136.667 38.9333C130 33.0666 124.933 33.3333 118.267 39.7333L113.2 44.8L109.867 41.0666C106.8 37.4666 106.667 36.5333 106.667 18.6666V-3.05176e-05L87.4667 0.399979C69.2 0.799973 68 0.933304 64.8 3.99997C60.1333 8.39998 60.4 11.7333 66 16.9333C71.6 22 71.8667 25.2 67.2 30.6666C58.9333 40.5333 43.3333 38.6666 37.4667 27.0666C35.6 23.4666 37.0667 20.2666 43.0667 14.8L47.3333 11.0666L44.5333 7.19998C39.8667 0.933304 36.8 0.133316 17.7333 0.133316H0V54.1333Z" fill="black"/>
</svg>
