<svg width="143" height="108" viewBox="0 0 143 108" fill="none" xmlns="http://www.w3.org/2000/svg">
<path d="M140.933 42.4C138.667 38.2667 131.2 33.3333 127.067 33.3333C125.6 33.3333 122 35.4667 119.067 38C113.067 43.4667 111.733 43.7333 109.067 39.7333C107.333 37.3333 106.933 32.8 106.933 18.4V0L87.8667 0C67.6 0 64 0.933333 61.7333 7.2C60.8 9.46667 61.6 11.2 65.7333 15.6C68.6667 18.8 70.9333 22.2667 70.9333 23.4667C70.9333 24.6667 68.6667 28 65.7333 30.8C61.2 35.3333 59.8667 36 54.2667 36C47.0667 36 41.6 33.2 38.4 28C35.3333 22.6667 35.6 21.0667 41.4667 15.4667C46.6667 10.4 46.6667 10.1333 44.8 6.53333C43.7333 4.4 41.7333 2.13333 40.4 1.33333C38.9333 0.666667 29.3333 0 19.0667 0L0.266667 0L0.266667 19.7333C0.4 40.2667 0.8 42.1333 6.66667 45.2C9.46667 46.6667 10.4 46.2667 15.6 41.4667C18.9333 38.4 22 36 22.6667 36C23.3333 36 25.8667 37.3333 28.4 39.0667C37.4667 45.2 38.2667 59.4667 30 66.6667C24.1333 71.8667 20.9333 71.7333 15.7333 66C10.6667 60.5333 7.2 60.1333 3.2 64.4C0.666667 67.0667 0.4 68.9333 0.133333 87.3333L0 107.333H19.3333C38 107.333 38.8 107.2 42.1333 104.133C46.8 99.7333 46.5333 96.4 40.9333 91.2C38.2667 88.8 36.2667 85.7333 36.2667 84C36.2667 79.8667 44.4 72 49.2 71.7333C60.2667 71.2 64.5333 72.8 68.2667 79.0667C71.8667 84.9333 71.7333 85.7333 65.6 91.4667C62.6667 94.2667 60.2667 97.0667 60.2667 97.7333C60.2667 98.4 62.2667 100.933 64.8 103.467L69.3333 108H88.1333H106.933V89.4667C106.933 71.6 107.067 70.6667 110.133 67.0667L113.467 63.3333L118.4 68.4C125.2 75.3333 130.667 75.2 137.733 68.1333C142.667 63.2 142.933 62.6667 142.933 54.5333C142.8 49.7333 142 44.4 140.933 42.4Z" fill="black"/>
</svg>
