<svg width="108" height="108" viewBox="0 0 108 108" fill="none" xmlns="http://www.w3.org/2000/svg">
<path d="M90 0C70.1333 0 66.2667 1.06667 63.0667 7.2C61.0667 11.0667 61.0667 11.3333 65.0667 14.8C71.3333 20.4 72.4 23.3333 70.1333 27.7333C67.0667 33.6 62.4 36 53.8667 36C47.2 36 46 35.6 41.8667 31.4667C35.8667 25.4667 35.8667 21.2 42 16.4C47.8667 11.7333 48 8 42.5333 3.46667C38.4 0 38.1333 -0.133333 19.4667 0.266667L0.666667 0.666667L0.666667 20.2667C0.666667 39.0667 0.8 39.8667 3.86667 43.2C8.26667 47.8667 12 47.6 16.4 42C21.0667 36.1333 25.0667 36 31.3333 41.4667C35.7333 45.3333 36 46 36 54C36 61.4667 35.6 62.8 32.1333 66.5333C26.8 72.1333 22.1333 72 15.8667 66C11.4667 61.6 10.8 61.3333 7.46667 62.8C1.2 65.7333 0 70 0 90L0 108H19.8667C39.4667 108 39.7333 108 43.2 104.533C47.8667 99.8667 47.6 97.4667 42 92C36.9333 87.0667 36.2667 83.6 39.4667 78.9333C42.5333 74.5333 48.4 72 55.3333 72C60.2667 72 62.1333 72.8 65.8667 76.4C73.0667 83.2 73.2 86 66.6667 92C60.4 97.7333 60.2667 100.667 66.2667 105.333C69.3333 107.733 71.6 108 88.8 108H108V54V0L90 0Z" fill="black"/>
</svg>
