<svg width="144" height="108" viewBox="0 0 144 108" fill="none" xmlns="http://www.w3.org/2000/svg">
<path d="M141.6 44C139.2 38.9333 131.733 33.3333 127.733 33.3333C126.4 33.3333 122.667 35.7333 119.467 38.6667L113.733 44L110.933 41.2C108.133 38.8 108 37.3333 108 19.3333V0L88.8 0C70 0 69.4667 0.133333 65.4667 3.46667C60.1333 7.86667 60.2667 10.4 66 16C72 21.7333 72 25.6 66.1333 31.4667C62 35.6 60.8 36 54.1333 36C47.8667 36 46.1333 35.4667 42.2667 32C34.9333 25.6 35.2 20.8 43.0667 14.6667C47.7333 11.0667 47.6 8.8 42.8 3.86667L38.9333 0L19.4667 0L0 0L0 54L0 108H54H108V88.6667C108 70.8 108.267 69.0667 110.8 66.5333L113.6 63.7333L118.8 68.8C124.8 74.6667 129.6 75.2 135.6 70.9333C143.6 65.3333 146.267 53.2 141.6 44Z" fill="black"/>
</svg>
