<svg width="108" height="144" viewBox="0 0 108 144" fill="none" xmlns="http://www.w3.org/2000/svg">
<path d="M108 124.133V104.666L104.133 100.8C102 98.6663 99.6 96.933 98.8 96.933C98 96.933 95.0667 99.333 92 102.4C86 108.533 83.3333 108.533 76.8 102.266C69.7333 95.333 70.6667 81.333 78.6667 75.5996C84 71.8663 86.8 72.2663 92 77.5996C97.3333 83.0663 100.267 83.4663 104.667 78.933C107.867 75.8663 108 75.1996 108 55.5996V35.5996H88.9333C72 35.5996 69.4667 35.333 67.6 33.1996C64.5333 29.8663 64.6667 29.4663 70 24.133C75.4667 18.6663 75.8667 15.0663 71.6 8.79964C67.2 2.13297 60.8 -0.66703 52.4 0.13297C44.9333 0.799636 40.1333 3.59964 36.8 9.19964C33.3333 14.933 34.1333 19.5996 39.3333 24.933C44 29.733 44 29.8663 41.7333 32.6663C39.4667 35.333 38 35.5996 20 35.8663L0.666664 36.2663V55.8663C0.666664 74.6663 0.799995 75.4663 3.86666 78.7996C8.26666 83.4663 11.3333 83.1996 16.5333 77.5996C22 71.733 25.3333 71.733 31.4667 77.333C35.8667 81.333 36.1333 82.2663 36.1333 89.1996C36.1333 93.333 35.4667 97.9996 34.6667 99.5996C33.2 102.266 25.8667 107.6 23.6 107.6C23.0667 107.6 20 105.2 16.6667 102.133C11.0667 96.933 10.8 96.7996 7.06666 98.7996C1.06666 101.866 -7.62939e-06 105.866 -7.62939e-06 125.6V143.6H54H108V124.133Z" fill="black"/>
</svg>
