<svg width="144" height="143" viewBox="0 0 144 143" fill="none" xmlns="http://www.w3.org/2000/svg">
<path d="M78.6659 2.26668C67.8659 9.73335 67.0659 17.6 76.3992 25.4667L80.5325 28.9333L76.9325 32.5333C73.4659 36 73.1992 36 54.6659 36H35.9992V54.4C35.9992 68.8 35.5992 73.3334 33.8659 75.7334C31.0659 79.7333 29.7325 79.4667 24.3992 74C21.4659 71.0667 18.6659 69.3334 16.3992 69.3334C11.3325 69.3334 4.66587 74 2.13253 79.2C-2.4008 88.9333 0.532534 101.6 8.66587 106.667C15.0659 110.533 19.1992 110.133 24.3992 104.667C29.7325 99.2 31.0659 98.9333 33.8659 102.933C35.5992 105.333 35.9992 109.867 35.9992 124.267V142.667H89.9992H143.999V89.3334V36H125.333C106.799 36 106.533 36 103.066 32.5333L99.4659 28.9333L103.733 25.4667C112.133 18.5333 111.733 11.2 102.666 3.46667C99.0659 0.53334 97.1992 1.52588e-05 90.1325 1.52588e-05C84.5325 1.52588e-05 80.9325 0.666687 78.6659 2.26668Z" fill="black"/>
</svg>
