<svg width="126" height="201" viewBox="0 0 126 201" fill="none" xmlns="http://www.w3.org/2000/svg">
<path d="M62.645 0.000305176L0 0.000305176L0 75.2325L0 150.465H22.4285C43.1554 150.465 45.1663 150.836 48.1052 154.366L51.3534 158.267L45.4756 165.511C38.6698 173.87 38.051 180.558 43.3101 189.474C52.4362 204.892 74.0913 204.149 83.0626 187.802C87.8577 179.257 87.5483 175.914 81.2065 167.369C75.0193 159.195 74.71 157.709 78.5769 153.623C80.8971 151.022 85.0735 150.465 103.326 150.465H125.29V123.715C125.29 97.5235 125.135 96.7805 121.268 91.2077C116.164 83.7774 113.225 83.9631 106.729 91.9508C100.077 100.31 95.5916 100.31 88.7858 92.1365C83.9907 86.378 83.5267 84.7062 83.5267 75.2325C83.5267 65.7588 83.9907 64.087 88.7858 58.3285C95.7463 49.9693 100.851 49.9693 107.193 58.5142C112.916 66.5018 114.927 66.5018 120.804 59.6288L125.29 54.2418V27.121V0.000305176L62.645 0.000305176Z" fill="#808080"/>
</svg>
