<svg width="207" height="153" viewBox="0 0 207 153" fill="none" xmlns="http://www.w3.org/2000/svg">
<path d="M4.58711 91.0216C7.68577 97.3374 13.8413 99.8671 15.608 98.9164C17.3747 97.9656 25.3355 90.9052 26.7144 88.4675C34.6182 81.5609 40.1832 94.4072 39.9699 94.0402C39.7567 93.6732 44.0634 112.247 42.2901 125.758V150.464H62.9687C84.8143 150.464 74.5743 154.551 77.6729 150.464C74.8165 149.799 89.5819 154.551 90.4339 142.105C90.8336 136.267 89.7173 136.281 86.6735 132.353C83.2289 127.908 81.7332 120.511 81.7332 120.511C82.6892 117.61 85.2164 110.873 86.6735 108.854C94.4202 98.2662 113.7 96.9194 121.756 106.579C128.574 114.566 131.744 121.114 125.237 129.102C116.181 138.636 124.528 146.78 132.777 150.464C136.496 153.994 121.533 150.464 142.14 150.464H164.76L164.295 125.758C163.83 102.91 164.605 95.6656 167.549 91.0216C175.785 81.348 180.341 88.4675 183.821 94.0402C189.614 103.315 194.336 98.2478 198.845 96.1301C209.496 82.1569 207.966 62.9088 198.845 54.0557C186.913 48.3921 186.157 54.5123 180.341 62.0433C177.537 64.8407 175.865 66.0023 171.422 62.0433L167.549 56.8421C163.985 51.8266 163.83 50.712 164.14 26.1919V-1.20177e-05H101.455H42.2901V26.1919C39.6186 24.324 43.0576 18.7695 42.2901 54.0557L31.8493 64.0866L25.4688 60.6037C19.2714 52.9876 16.5093 49.5975 9.22748 54.0557C2.25548 58.5139 0.526785 63.8544 0.526785 75.9287C0.526785 82.8018 2.41804 87.1207 4.58711 91.0216Z" fill="black"/>
</svg>
