<svg width="168" height="201" viewBox="0 0 168 201" fill="none" xmlns="http://www.w3.org/2000/svg">
<path d="M46.6744 6.65013C42.9621 10.9226 40.3326 16.7275 39.8686 20.2569C38.9405 25.4582 39.2885 27.3622 44.0836 33.1207C50.5801 40.9226 51.3148 43.6625 46.6744 47.5634C43.8902 49.9783 38.6311 50.5356 21.9258 50.5356H0.580078V77.6563V104.777L5.06577 110.164C7.54063 113.136 10.3249 115.551 11.2529 115.551C12.181 115.551 15.5839 112.207 18.9869 108.121C22.3898 104.034 26.2568 100.69 27.6489 100.69C29.1957 100.69 33.0627 103.848 36.3109 107.935C41.57 114.251 42.3434 116.108 42.3434 123.724C42.3434 133.941 39.4045 141.557 33.9907 146.015C28.2676 150.474 25.0194 149.731 19.1416 142.486C12.7997 134.684 9.39678 134.313 4.44705 140.814C0.734757 145.644 0.580078 146.758 0.580078 173.508V201L62.9157 200.628L125.87 201L125.561 172.765C125.87 146.201 126.025 145.272 129.582 142.486C132.985 139.7 133.449 139.885 138.708 146.201C145.05 153.817 150.155 154.56 157.579 148.988C171.191 138.957 170.727 112.207 156.961 101.248C149.691 95.3034 145.514 95.8606 139.327 103.477C133.295 110.907 132.057 111.279 128.5 106.635C126.334 103.848 125.87 98.8328 125.87 76.9133V50.5356H103.751C81.9412 50.5356 82.9467 50.5356 79.4664 47.0526L74.826 40.7833C76.3709 37.5085 78.8863 35.2105 80.6265 33.8173C90.2166 24.1579 88.1284 15.613 78.0743 5.39625C73.7433 1.1238 71.5778 0.380781 63.0704 0.380781C53.635 0.380781 52.3976 0.148583 46.6744 6.65013Z" fill="#808080"/>
</svg>
