<svg width="125" height="201" viewBox="0 0 125 201" fill="none" xmlns="http://www.w3.org/2000/svg">
<path d="M102.572 50.4836C81.5353 50.4836 80.5297 50.2569 77.4362 46.356C76.3884 45.2028 75.8946 44.2446 75.116 42.1764C75.851 40.5231 76.7818 38.4355 79.6791 35.2514C86.3303 27.078 86.949 20.3907 81.6899 11.4743C72.5639 -3.94364 50.9088 -3.20061 41.9374 13.1461C37.1424 21.691 37.4517 25.0347 43.7936 33.5796C49.014 42.3102 48.4339 42.3102 46.4231 47.3257C44.1029 49.9263 39.9266 50.4836 21.6745 50.4836H0.870163L0.870163 76.3096C0.870163 99.2972 0.328787 103.239 4.19576 108.812C11.311 111.139 12.2123 104.331 15.9514 100.69C21.6745 95.1177 29.4084 97.3932 36.2143 105.567C41.0094 111.325 41.9374 116.242 41.9374 125.716C41.9374 135.189 41.0094 138.817 36.2143 144.576C29.2538 152.935 23.4532 156.604 17.1113 148.059C8.76009 137.891 2.15335 139.322 0.870253 150.149C1.43948 149.014 -0.232026 159.449 0.870253 150.149L0.870163 173.136L0.870031 200.948H62.3551H125L125 125.716V50.4836H102.572Z" fill="black"/>
</svg>
