<svg width="167" height="151" viewBox="0 0 167 151" fill="none" xmlns="http://www.w3.org/2000/svg">
<path d="M22.3735 150.465C44.1833 150.465 44.802 150.279 49.4424 145.635C55.6295 139.505 54.6241 145.635 49.4424 135.14C42.3652 132.26 39.624 120.759 46.5035 109.366C51.1439 103.793 54.8561 100.31 61.8167 100.31C75.6127 98.8998 81.8681 105.416 81.8863 106.626C81.9046 107.835 94.0804 121.746 85.9466 130.263C82.5846 137.309 77.8333 139.716 77.826 142.802C82.6938 147.795 85.0895 149.422 88.8469 150.465H102.807H125.97V123.901C125.97 97.8952 125.362 98.9164 128.29 94.7369C129.686 92.7448 130.03 91.9505 132.93 89.8607C135.831 91.9505 136.714 93.5532 139.466 97.5233C145.062 105.097 149.844 104.337 157.099 99.567C166.717 92.1231 166.612 85.5883 165.993 73.1425C165.374 60.6966 162.977 54.4277 154.469 49.0407C147.732 46.0581 146.652 46.4798 140.471 52.9412C133.51 60.5573 129.45 61.3003 127.71 55.7276C125.97 52.2446 125.97 45.836 125.97 25.774V0.000475407H62.7448H0.0998093V25.4494C0.0998093 53.3132 1.18256 58.3286 8.14312 63.1584C12.1648 65.759 12.6288 65.5732 18.3519 58.8859C25.6218 50.341 30.5715 49.9695 37.0681 57.7714C41.8631 63.3441 42.4818 66.8735 42.0178 80.8054C41.7084 87.4927 32.737 98.4525 27.6326 98.4525C25.7765 98.4525 21.6002 95.2946 18.3519 91.5794C12.6288 84.8921 12.1648 84.7063 8.14312 87.307C1.18256 92.1367 0.0998093 97.1522 0.0998093 124.83V150.465H22.3735Z" fill="#808080"/>
</svg>
