<svg width="128" height="151" viewBox="0 0 128 151" fill="none" xmlns="http://www.w3.org/2000/svg">
<path d="M0.969883 30.6501C0.389723 55.0309 2.60441 61.8522 9.09042 58.5139C13.1507 56.4241 17.2111 50.1548 21.8514 47.3684C27.6519 46.6718 30.5305 50.0706 34.0326 52.5509C37.5346 55.0312 40.4129 63.3901 41.032 71.5807C41.6512 79.7713 42.1533 88.4847 37.5129 94.0574C30.7071 102.231 22.1223 107.276 15.4711 98.9167C8.97462 90.929 8.97439 86.6271 3.86998 94.0574C0.00299985 99.6302 0.969877 96.4087 0.969877 122.601V150.464H25.3317L43.8935 150.093L51.1246 146.285C56.0743 139.412 54.456 141.827 48.1142 134.954C41.1536 127.152 41.3083 115.96 48.1142 107.972C52.7546 102.585 57.4276 100.31 65.935 100.31C74.4423 100.31 75.7185 100.867 79.8948 106.068C86.3913 113.87 93.3521 122.229 86.2368 130.96C80.6684 137.833 77.7293 139.505 79.8948 144.335C83.9165 152.694 83.6071 150.465 106.809 150.465H128V75.2324V0.000203162H65.355H0.969878L0.969883 11.1455V30.6501Z" fill="black"/>
</svg>
