<svg width="168" height="151" viewBox="0 0 168 151" fill="none" xmlns="http://www.w3.org/2000/svg">
<path d="M125.29 123.065C125.29 97.2446 125.793 95.1083 129.35 91.0217C131.164 88.1152 132.682 87.025 135.731 85.4489C140.585 87.5266 142.889 90.7239 146.172 93.808C152.159 102.17 154.444 100.056 161.253 93.808C171.138 82.6033 168.908 61.3408 160.093 54.7987C152.864 47.7385 149.546 51.1689 142.691 60.3715C135.885 67.8018 131.323 61.2079 127.92 56.564C125.754 53.7776 125.29 48.7621 125.29 26.8426V0.464905L102.707 0.464905L80.1238 0.464905C74.4006 7.52373 73.4726 9.24148 80.1238 16.4861C84.9561 21.586 87.6824 26.4045 83.5266 38.0805C78.7316 43.839 70.5337 50.6197 62.645 50.6197C54.7564 50.6197 47.7185 43.839 42.9234 38.0805C38.652 27.9261 40.7499 22.6224 45.1663 16.4861C51.8175 8.68421 55.5298 11.4247 49.3426 5.29463C44.7023 0.650663 44.0835 0.464905 22.2738 0.464905L-6.38679e-05 0.464905V75.6971L-6.38679e-05 150.929H22.5831H45.1663L49.652 145.542C52.1268 142.57 54.1377 138.855 54.1377 137.555C54.1377 136.069 51.6628 132.168 48.7239 128.638C41.454 120.279 41.6087 114.149 48.7239 106.533C53.519 101.518 55.3751 100.774 63.1091 100.774C70.8782 102.244 72.2788 102.242 77.0302 106.905C83.5267 114.892 83.372 120.279 76.2568 129.01C70.6883 135.883 70.5336 136.44 72.6992 141.27C76.7208 149.629 80.8972 150.929 103.944 150.929H125.29V123.065Z" fill="black"/>
</svg>
