<svg width="126" height="250" viewBox="0 0 126 250" fill="none" xmlns="http://www.w3.org/2000/svg">
<path d="M51.9528 1.97242C46.3844 4.57304 40.5066 14.7898 40.5066 21.4771C40.5066 26.121 41.8987 29.0931 46.2297 34.2944L48.5499 40.0155L48.2405 45.6257C44.6829 50.0839 44.3736 50.2696 22.4091 50.2696H0.290039V75.5327C0.290039 103.211 1.68215 109.155 9.4161 113.427C12.9737 115.285 13.7471 115.099 17.4594 110.084C23.9559 101.353 27.3589 99.8671 32.7726 103.211C40.5066 108.04 42.9815 115.099 42.3627 130.703C42.0534 137.39 32.9273 148.722 28.1323 148.722C26.1214 148.722 22.5638 145.935 19.7796 142.22C13.7471 134.418 9.88014 134.047 4.77573 140.548C1.21811 145.192 0.290039 146.492 0.290039 172.313V200.929H24.0719C44.6442 201.3 43.2135 200.929 46.6937 202.322C48.2194 203.116 51.8556 206.193 53.6543 210.681C55.453 215.169 50.4879 222.053 49.594 221.827C39.7332 230.186 42.6468 236.657 49.0139 244.118C55.3811 251.578 69.8956 250.387 75.116 245.511C80.3364 240.635 81.4965 236.455 82.6566 233.669C83.4769 231.698 80.3464 227.124 76.8561 221.827C70.8482 213.405 71.0557 214.164 75.116 206.501C79.1763 198.839 91.2528 201.136 91.3573 200.929C100.824 200.954 125.58 200.929 125.58 200.929V172.313C125.58 145.564 123.84 145.898 121.52 143.111C119.2 140.325 118.669 138.033 112.239 145.898C106.361 153.142 101.334 154.861 94.8376 150.774C88.1864 146.687 83.546 138.476 83.2367 126.393C82.4989 115.395 85.1816 104.731 93.0975 99.226C95.9096 97.2702 98.5701 96.5854 100.058 96.4396C101.535 96.4821 105.729 97.883 110.499 102.709C112.969 105.208 116.879 110.438 118.039 110.371C119.2 110.305 124.42 102.709 124.42 102.709C124.42 102.709 125.58 100.796 125.58 77.0188V50.2696H104.234C87.529 50.2696 97.8925 50.6501 93.0975 50.2696C88.3024 49.8891 75.1547 41.7247 81.4965 33.3656C84.4354 29.2789 86.9103 24.2634 86.9103 22.2201C86.9103 16.2758 81.0325 6.05909 76.0828 2.90119C71.2877 -0.0709416 57.2119 -0.628203 51.9528 1.97242Z" fill="#808080"/>
</svg>
