<svg width="210" height="200" viewBox="0 0 210 200" fill="none" xmlns="http://www.w3.org/2000/svg">
<path d="M166.633 174.757C166.169 151.909 166.478 149.68 169.417 145.036C171.273 142.249 173.284 140.02 174.057 140.02C174.676 140.02 177.769 142.993 180.708 146.522C186.586 153.581 190.453 154.51 197.259 150.237C211.489 141.506 213.5 116.243 201.126 103.054C193.547 95.0668 187.669 95.4383 180.708 103.797C178.311 107.585 177.151 109.675 174.831 109.675C173.09 109.675 171.273 108.07 169.417 105.284C166.478 100.64 166.71 103.797 166.71 87.3839V50.4644H145.828C125.565 50.4644 124.56 50.6705 120.384 46.3981L116.052 41.7541L121.776 34.6953C129.819 24.8501 129.819 17.7913 121.621 7.94608C115.434 0.515739 112.495 -0.413053 99.8112 0.701498C93.3147 1.25877 86.6635 6.46001 83.5699 13.7046C80.0123 21.878 80.7857 26.5219 86.6635 33.5808C89.6024 37.1102 92.0772 40.8253 92.0772 41.5684C92.0772 42.4972 90.2211 44.912 88.0556 46.9554C84.3433 50.4848 81.8684 50.8563 63.307 50.8563H42.58V76.491C42.58 101.383 42.4253 102.311 38.713 106.584L35.0007 110.856L28.6589 103.983C21.853 96.7386 17.3673 94.9536 10.5614 99.226C2.67279 104.056 0.23664 111.347 0.23664 123.607C0.23664 136.61 3.75554 144.293 10.5614 149.308C17.6767 154.51 21.6983 153.952 28.5042 146.522C31.7524 142.993 34.846 140.02 35.3101 140.02C35.9288 140.02 37.6302 141.878 39.4864 144.107C42.2706 147.822 42.58 150.609 42.58 173.828V199.463H65.4725C87.2822 199.463 88.2103 197.864 91.3039 193.963C92.7347 189.763 90.8398 188.576 84.3433 180.031C80.7857 175.387 81.4578 169.02 82.0232 167.492C84.3433 161.223 86.6249 158.854 89.5638 154.954C94.6682 148.452 96.8337 149.308 105.805 149.308C114.776 149.308 119.842 153.328 124.947 159.83C124.947 159.83 130.206 173.204 127.267 176.548C122.356 185.604 113.616 186.997 118.566 192.57C124.689 199.463 122.394 199.463 144.049 199.463H167.097L166.633 174.757Z" fill="black"/>
</svg>
