<svg width="126" height="200" viewBox="0 0 126 200" fill="none" xmlns="http://www.w3.org/2000/svg">
<path d="M48.5059 5.32563C38.4517 15.5423 37.9877 26.3163 47.5778 36.1615L52.5275 41.177L48.1965 45.8209C44.0202 50.2791 43.0921 50.4649 22.2104 50.4649H0.710037V76.6568C0.710037 90.9602 0.710046 101.177 1.48344 103.22C6.51039 109.675 5.93035 108.978 8.83058 109.675C10.0313 109.538 10.8039 109.07 12.3109 107.585L15.2111 103.22L18.1113 99.9226L21.0115 97.8328C29.1322 95.743 30.2923 99.226 35.5127 103.22C39.988 109.667 41.3132 109.675 43.0533 122.214C43.0533 131.502 42.0479 138.746 37.2528 144.505C30.8723 152.864 22.2877 156.161 15.7911 147.988C8.83058 140.325 8.83059 137.03 3.61013 144.505C-0.281828 150.077 0.709994 150.774 0.709912 173.762L1.28999 199.536H23.9118C23.9118 199.536 25.6519 199.536 34.3526 199.536C43.0533 199.536 47.8872 197.446 48.6605 193.963C49.4338 190.48 48.8538 190.48 43.6334 180.728C35.709 172.191 40.4277 163.284 48.6605 154.954C56.8934 146.623 74.639 149.168 80.1763 157.043C85.2109 164.204 89.457 170.975 83.6566 180.031C80.1763 186.997 73.2157 189.783 77.2761 193.963C81.3364 198.142 78.4361 199.536 92.9373 199.536C107.438 199.536 126 199.536 126 199.536L126 125.697V50.4649H104.654C87.949 50.4649 82.6899 49.9076 79.9057 47.4927C75.2653 43.5918 75.5747 40.8054 82.0712 33.0036C86.8662 27.2451 87.6396 25.3875 86.7116 20.1863C86.2475 16.6569 83.3086 11.4556 79.5963 7.18321C73.8732 0.68167 72.9451 0.310167 63.5097 0.310167C55.0024 0.310167 52.8369 1.05319 48.5059 5.32563Z" fill="#808080"/>
</svg>
