<svg width="126" height="200" viewBox="0 0 126 200" fill="none" xmlns="http://www.w3.org/2000/svg">
<path d="M55.3751 1.34529C50.7708 2.50446 43.8128 11.5944 43.5034 16.7956C43.0394 23.2972 46.945 27.0124 52.2041 33.5139C57.4632 40.0154 47.2931 47.2276 44.6635 51.1286C41.7633 51.1286 44.6635 51.1286 23.2018 50.5713H0.309326V88.5449V126.161V200H62.645H125.29L125.29 173.543L124.71 150.542C124.426 147.546 123.976 145.775 121.81 142.183C119.335 139.21 117.749 141.036 116.589 142.183C114.269 144.477 114.192 143.669 110.789 147.755C107.386 151.842 104.06 153.328 102.668 153.328C101.917 154.591 95.8544 151.697 90.4872 146.423C86.4269 139.457 84.3967 135.649 83.5266 127.475C83.5266 117.259 84.6867 112.926 90.4872 104.567C95.1276 99.6904 100.498 93.4256 107.889 99.6904C117.749 108.049 116.009 112.958 120.804 108.746C124.517 104.474 125.29 105.37 125.29 78.0635V51.1286H102.668C84.416 51.1286 80.6264 49.5356 77.7262 48.1424C74.3232 44.0557 68.4454 39.0867 73.0858 33.5139C75.0966 31.8421 77.9974 26.6324 80.0464 23.7616C87.0069 14.0093 74.2459 -3.4056 55.3751 1.34529Z" fill="#808080"/>
</svg>
