<svg width="210" height="150" viewBox="0 0 210 150" fill="none" xmlns="http://www.w3.org/2000/svg">
<path d="M42.1353 27.4925C42.1353 51.0838 41.8259 54.6132 39.351 57.2139C35.4841 61.4863 34.8654 61.3005 29.1422 53.8702C22.027 44.768 15.9945 44.9538 8.10588 54.4275C4.39359 58.8857 1.76404 64.0869 1.14533 68.3594C-0.710821 79.5049 1.60936 88.2355 8.10588 96.0374C15.8398 105.511 21.7176 105.697 29.2969 96.5947C35.4841 89.1643 36.1028 88.9786 39.5057 93.4368C41.6712 96.2231 42.1353 101.239 42.1353 123.158V150H104.355H167.425V123.901C167.425 100.681 167.696 94.5046 170.48 90.7894C171.509 88.6599 176.646 85.3187 177.441 85.2167C178.236 85.1146 184.733 89.3962 188.462 94.2724C192.19 99.1486 196.002 99.1486 202.963 93.4368C209.568 84.7405 209.298 79.1916 209.343 71.2848C209.923 60.8359 198.902 52.0787 195.422 49.6904C191.942 47.302 180.555 66.2619 178.021 64.3188C175.487 62.3757 167.425 53.8699 167.425 53.8699C167.425 53.8699 167.425 39.9383 167.425 26.1922V0.929036H144.533C122.723 0.929036 121.486 1.1148 118.392 5.01572C112.669 12.8176 112.824 13.7464 119.32 22.2913C122.878 26.9352 124.657 32.0433 124.657 32.9721C124.657 36.3157 118.933 44.6749 115.376 46.904C106.559 52.291 92.87 49.7835 88.0749 40.1241C84.208 32.3222 84.8267 29.1643 90.8592 22.6628C97.201 15.9755 97.665 11.703 92.4059 5.573C88.8483 1.1148 88.0749 0.929036 65.3371 0.929036H42.1353V27.4925Z" fill="black"/>
</svg>
