<svg width="132" height="154" viewBox="0 0 132 154" fill="none" xmlns="http://www.w3.org/2000/svg">
<g clip-path="url(#clip0_4_1673)">
<path d="M64.9133 1.12012L58.0029 66.0814H73.9968L67.0864 1.12012C66.9279 -0.373559 65.0719 -0.373559 64.9133 1.12012Z" fill="#D6D6D6"/>
<path d="M59.8489 48.7287H72.1509L73.9968 66.081L65.6656 70.3696L58.0029 66.081L59.8489 48.7287Z" fill="#D1D3D4"/>
<path d="M86.6693 90.8167L84.0572 137.214H48.4901L45.423 90.857C35.5567 86.4084 26.8218 78.8531 19.9248 69.0976C19.0753 67.8965 19.8121 66.0813 21.1468 66.0813H110.853C112.188 66.0813 112.925 67.8965 112.075 69.0976C105.2 78.823 96.4979 86.363 86.6693 90.8167Z" fill="#E44F50"/>
<path d="M86.6693 90.8167L84.0572 137.214L66.8482 140.723L48.4901 137.214L47.5888 123.595H61.454C66.4238 123.595 70.5416 119.096 70.8672 113.31L72.1336 90.8164C82.9558 85.9121 92.4121 77.2662 99.5682 66.0804H110.853C112.188 66.0804 112.924 67.8956 112.075 69.0967C105.2 78.823 96.4979 86.363 86.6693 90.8167Z" fill="#DD263D"/>
<path d="M81.0632 154H50.9368C45.5165 154 41.1226 148.874 41.1226 142.55V138.187C41.1226 137.65 41.4962 137.214 41.9567 137.214H90.0433C90.504 137.214 90.8774 137.65 90.8774 138.187V142.55C90.8774 148.874 86.4832 154 81.0632 154Z" fill="#E44F50"/>
<path d="M81.0632 154H69.0337C74.4539 154 78.8478 148.874 78.8478 142.55V137.214H90.0433C90.504 137.214 90.8774 137.65 90.8774 138.187V142.55C90.8774 148.874 86.4832 154 81.0632 154Z" fill="#DD263D"/>
</g>
<defs>
<clipPath id="clip0_4_1673">
<rect width="132" height="154" fill="white" transform="matrix(1 0 0 -1 0 154)"/>
</clipPath>
</defs>
</svg>
