<svg width="137" height="216" viewBox="0 0 137 216" fill="none" xmlns="http://www.w3.org/2000/svg">
<path fill-rule="evenodd" clip-rule="evenodd" d="M16.2597 127.55L22.7142 127.398L28.4516 122.999L33.1133 127.853L34.5476 130.736L40.1057 133.921C42.7866 133.886 44.3178 134.963 45.8431 136.045L49.429 138.32C51.5554 138.52 53.6029 139.187 55.8836 138.472C58.2233 139.6 60.7301 141.01 63.2346 142.416C72.3117 143.525 79.4339 145.315 85.6463 147.422C87.9901 148.993 90.4935 150.483 91.2044 152.883C93.5218 157.314 95.0486 161.989 95.5075 166.991C97.2879 171.947 99.4779 176.902 99.9898 181.858C99.9129 185.82 98.6487 189.091 97.5665 192.628L95.9928 189.38C95.3912 190.966 95.2563 193.027 93.8938 193.842C91.2309 192.48 89.4617 190.111 87.7978 187.622L86.0049 180.947C84.8387 181.743 84.3673 183.42 84.212 185.498C84.4499 187.389 84.9015 188.678 85.6463 189.139L85.1084 197.634L85.8466 201.953L83.3155 206.888L75.7852 205.977L74.8887 203.854L79.1917 198.848C79.9409 195.662 80.6486 192.476 79.9089 189.291L74.3508 178.975L72.7372 177.61L72.3786 182.768C73.5254 183.731 74.6272 184.885 75.6059 186.56L76.1437 193.538C74.4966 194.36 73.553 195.976 72.9165 197.937L72.7372 201.882L69.1513 204.764L61.4417 204.005L60.7245 202.033C60.8768 200.353 62.2988 199.21 64.1311 198.241C65.2092 198.51 66.2676 198.645 67.1791 197.786L68.2548 194.297L69.3306 189.139C68.6709 187.876 68.4165 186.385 66.8205 185.65C64.7509 184.528 63.9901 183.104 63.7725 181.554L63.2346 175.486C60.369 177.799 57.6904 176.316 54.9871 175.335L57.3179 194.903L55.525 205.522L51.5805 205.977L46.7396 205.826C44.7235 206.024 44.2256 205.405 44.0502 204.612L42.078 204.157C42.3229 202.164 43.3549 201.948 44.0502 200.971C45.6515 200.588 47.5632 199.679 48.7118 200.061L50.3255 195.814C47.3555 191.582 48.3575 187.98 47.8154 184.133L44.0502 175.486L41.5401 174.121L41.1815 189.897L42.4365 192.476C41.6221 194.303 41.6864 195.005 41.3838 197.492L40.088 198.278L39.9264 201.578L36.7517 203.175L32.934 204.005C32.5304 203.637 32.788 202.949 31.3203 203.095C30.2705 203.23 29.1644 203.841 28.2724 202.64C26.0375 202.544 27.095 201.751 26.6587 201.275C27.0865 200.422 27.4299 199.561 29.1688 198.848C31.1897 198.35 33.0855 197.746 34.1058 196.402C34.5713 192.13 35.6362 188.066 33.8305 184.892C33.3692 180.39 31.6402 176.746 30.4239 172.756C26.2312 170.412 24.437 167.459 23.6107 164.261C21.5475 163.455 19.2881 163.091 17.694 161.227C16.1088 159.945 14.7715 160.137 13.6554 156.605C9.38139 156.627 8.45971 155.156 7.295 153.794L7.04144 153C5.58943 152.245 5.45453 151.351 5.32276 150.456L6.21923 147.574C4.14564 147.295 3.78086 146.437 3.35053 145.602L5.32276 141.961L2.81265 140.444L5.68135 134.983C6.27089 133.6 5.10761 128.261 4.78488 124.819C5.04326 124.082 4.40134 123.535 5.86064 122.544L16.2597 127.55Z" fill="#D5C7BA" stroke="#FF0000" stroke-width="0.377953"/>
<path fill-rule="evenodd" clip-rule="evenodd" d="M14.8274 132.063L9.72646 133.637L8.90373 134.781L3.96732 139.357L3.63823 141.074L5.61279 142.218L3.96732 146.365L6.27098 147.938L5.11915 150.227L6.60007 152.801L7.58735 154.803L11.701 156.949L14.3338 155.947L18.7765 152.515L24.3711 152.944L29.4721 147.795L28.8139 142.218L26.5102 141.074L14.8274 132.063Z" fill="url(#paint0_radial_9_36)"/>
<path fill-rule="evenodd" clip-rule="evenodd" d="M34.3041 130.92L34.5659 133.121C36.8106 135.111 38.5605 135.708 40.8053 136.489C42.9699 136.989 46.309 138.953 49.4299 140.426C51.8345 140.971 54.2391 141.236 56.6437 140.831C57.1774 141.017 57.7026 141.221 57.8072 142.247L57.5581 145.056L57.5472 145.077C57.5498 145.084 57.5519 145.091 57.5545 145.099L57.5472 145.186L57.5727 145.151C57.9056 146.08 58.2439 147.01 58.369 147.938C58.369 147.938 62.2844 145.047 64.4575 145.077C66.2493 145.101 68.5678 146.559 71.1477 146.952C73.8952 147.371 77.8106 147.951 78.7724 147.08C79.1291 148.319 90.5385 151.585 90.5385 151.585C89.9741 149.566 84.4633 146.685 81.8994 145.936L66.2682 142.932C64.4533 143.041 62.0091 142.133 60.5997 141.033L56.6578 138.94L49.4299 138.404L44.0777 134.965C40.961 133.76 38.0389 132.752 34.3041 130.92Z" fill="url(#paint1_radial_9_36)"/>
<path fill-rule="evenodd" clip-rule="evenodd" d="M14.0165 132.033C12.9693 132.235 10.6846 132.538 10.6846 132.538C8.30464 131.12 8.04453 128.472 7.19403 126.167C7.74285 126.039 8.2842 125.86 8.93931 126.471L12.8953 130.01C13.6583 130.514 14.0592 130.566 14.0165 132.033Z" fill="url(#paint2_radial_9_36)"/>
<path fill-rule="evenodd" clip-rule="evenodd" d="M31.9597 129.882L31.5201 130.752C31.16 131.556 31.9746 132.616 31.8859 133.699C31.7884 134.891 30.3525 136.345 30.6251 138.054C30.1833 137.446 29.2022 137.031 28.6602 136.269C28.1079 135.492 28.0002 134.365 28.1752 133.564L25.7892 131.062C25.0668 130.418 25.0076 129.16 25.5815 128.349C25.9499 127.827 27.4019 127.099 28.7099 127.379C30.1611 128.664 30.9056 129.373 31.9597 129.882Z" fill="url(#paint3_radial_9_36)"/>
<path fill-rule="evenodd" clip-rule="evenodd" d="M17.8087 140.394C17.8087 140.394 19.1395 139.572 19.9067 139.571C20.6432 139.571 21.9224 140.358 21.9224 140.358C21.9224 140.358 22.8274 141.502 22.5806 141.502C22.3338 141.502 21.511 141.43 21.511 141.43C21.511 141.43 20.4676 142.346 19.8656 142.396C18.9961 142.467 17.7906 141.821 17.5208 141.502C17.2699 141.205 17.6176 140.468 17.8087 140.394Z" fill="white" stroke="#FF0000" stroke-width="0.377953"/>
<path fill-rule="evenodd" clip-rule="evenodd" d="M8.1416 139.786C8.71943 139.312 9.3522 138.922 10.363 139.106C10.8155 139.219 11.268 139.543 11.7205 140.036L11.3091 141.788C10.5252 141.732 9.90001 141.749 9.66366 141.502L8.79979 140.358L8.1416 139.786Z" fill="white"/>
<path fill-rule="evenodd" clip-rule="evenodd" d="M22.9725 127.487C23.895 125.744 25.8346 124.296 28.7316 123.125C30.7652 125.331 33.2516 126.356 34.4908 130.633C34.5363 132.779 34.8161 135.053 33.1744 136.282L30.3042 137.612L31.6935 129.561C30.8295 128.679 30.3937 127.797 28.7316 126.915C27.3057 126.522 26.3629 127.599 25.3584 128.488C24.938 129.291 24.2108 130.022 24.8347 130.825L27.471 132.217C27.2498 133.093 27.4277 134.026 25.9718 134.723C25.1091 134.687 24.2465 134.879 23.3838 133.565C21.1886 132.76 21.6586 129.435 22.9725 127.487Z" fill="url(#paint4_linear_9_36)"/>
<path fill-rule="evenodd" clip-rule="evenodd" d="M7.90109 147.301C7.90109 147.301 8.62804 145.91 9.15453 145.144C9.88345 144.085 11.1921 142.118 11.1921 142.118C11.3865 141.238 11.62 140.201 12.1762 138.729C12.2129 138.432 11.9592 138.284 10.9062 137.899C9.61868 137.75 7.44935 139.083 7.08441 139.82C7.21805 140.35 7.72729 140.339 7.69915 141.234C6.87782 141.088 6.43336 140.775 6.25331 139.924C6.42235 138.288 8.04924 136.793 10.326 134.974C11.8841 133.74 14.4707 133.601 16.0288 132.897C16.612 132.205 17.3827 131.464 18.2654 130.875C18.9664 130.45 19.8422 130.209 20.4019 131.072C20.5596 131.818 20.0983 132.573 19.9624 133.004C22.7646 133.744 21.6561 134.31 22.8765 135.082C25.0104 136.431 26.4881 138.332 27.679 140.446C28.1751 141.737 27.9833 142.588 27.0338 143.139C26.096 143.684 25.9128 142.713 25.145 141.954L23.8526 140.566C21.2444 138.51 20.0507 138.347 17.946 138.387C15.9371 138.417 16.1378 138.886 15.9609 139.145C15.9593 140.214 16.2075 141.442 15.7688 142.234C15.5683 143.156 16.6348 144.259 19.2616 144.758C19.673 144.836 22.1156 145.06 22.6056 144.982C23.1312 144.898 25.9361 143.267 26.0096 143.536C26.0828 143.804 25.3329 144.61 24.8395 145.236C24.2837 145.941 23.9226 147.165 23.8549 147.175C23.7902 147.185 22.1632 145.969 20.9862 145.866C19.8419 145.765 18.594 145.968 18.5223 145.972C16.3275 146.807 14.405 147.964 12.0972 148.129C11.8676 148.039 11.5086 147.623 11.1575 147.46C10.6716 147.234 10.1415 147.027 9.69566 146.944C8.79084 147.048 8.25838 147.091 7.90109 147.301Z" fill="#615042"/>
<path fill-rule="evenodd" clip-rule="evenodd" d="M11.3842 141.517C11.7324 140.343 14.6648 140.827 16.8528 142.048C16.8778 142.683 16.8367 143.392 17.106 143.788C17.4919 144.355 18.1262 144.446 18.7144 144.662L17.8999 147.105L16.3127 146.953C15.7037 147.249 14.9302 147.492 14.3418 147.672C13.7279 147.86 13.114 148.009 12.315 148.166C10.7809 146.734 9.5307 147.233 8.27179 146.877C8.82003 145.69 9.22595 144.412 10.8315 142.832L11.3842 141.517Z" fill="#CDA98B"/>
<path d="M19.5365 142.187C20.0817 142.187 20.5237 141.698 20.5237 141.094C20.5237 140.49 20.0817 140 19.5365 140C18.9912 140 18.5492 140.49 18.5492 141.094C18.5492 141.698 18.9912 142.187 19.5365 142.187Z" fill="black"/>
<path d="M10.1573 141.558C10.7026 141.558 11.1446 141.069 11.1446 140.465C11.1446 139.861 10.7026 139.372 10.1573 139.372C9.61203 139.372 9.17001 139.861 9.17001 140.465C9.17001 141.069 9.61203 141.558 10.1573 141.558Z" fill="black"/>
<path fill-rule="evenodd" clip-rule="evenodd" d="M5.67339 149.439C5.76772 148.885 5.9665 148.233 6.98976 147.688C7.67328 147.058 9.62642 147.04 10.1161 147.008C10.9508 147.36 11.8346 147.541 12.4609 148.617L12.7489 150.155C12.0906 151.561 10.9389 150.607 10.0339 150.834C8.87593 151.351 8.31999 150.507 7.68908 149.833C6.4595 150.133 5.91944 149.9 5.67339 149.439Z" fill="url(#paint5_radial_9_36)" stroke="black" stroke-width="0.377953"/>
<path opacity="0.207" fill-rule="evenodd" clip-rule="evenodd" d="M5.67339 149.439C5.76772 148.885 5.9665 148.233 6.98976 147.688C7.67328 147.058 9.62642 147.04 10.1161 147.008C10.9508 147.36 11.8346 147.541 12.4609 148.617L12.7489 150.155C12.0906 151.561 10.9389 150.607 10.0339 150.834C8.87593 151.351 8.31999 150.507 7.68908 149.833C6.4595 150.133 5.91944 149.9 5.67339 149.439Z" stroke="black" stroke-width="0.377953"/>
<path fill-rule="evenodd" clip-rule="evenodd" d="M63.2758 175.822C66.1958 175.944 69.9565 174.809 74.0965 171.979C72.9773 176.005 71.8723 180.025 72.4676 183.306L75.0273 186.036C74.1538 187.902 68.2417 184.01 66.5336 185.632L64.0902 181.687L63.2758 175.822Z" fill="url(#paint6_linear_9_36)"/>
<path fill-rule="evenodd" clip-rule="evenodd" d="M22.7852 164.192L29.5445 162.03L31.8824 161.891C33.0766 164.177 31.8031 167.907 35.1692 169.384L38.6656 172.021L41.5179 174.507L41.0525 181.485C38.399 182.479 36.458 177.281 32.2097 176.024L28.7192 171.069C25.6303 169.356 24.409 166.669 22.7852 164.192Z" fill="url(#paint7_linear_9_36)"/>
<path fill-rule="evenodd" clip-rule="evenodd" d="M86.6715 183.406C86.6715 183.406 90.2523 185.503 92.2661 185.409C93.7629 185.339 95.5266 184.772 97.0933 183.86C96.9867 181.123 97.4389 180.829 95.6473 173.95C95.0528 171.667 94.98 170.906 96.3263 169.285C97.7644 171.158 98.728 175.252 98.9469 175.295C99.1016 175.325 99.8353 181.833 99.8353 181.833L99.3416 188.269C98.7178 189.644 98.5409 190.922 97.3671 192.417L96.0025 189.043C95.9447 191.281 94.6723 192.363 93.9116 193.99C91.0873 192.467 89.4319 190.309 87.8234 188.126L86.6715 183.406Z" fill="url(#paint8_radial_9_36)"/>
<path fill-rule="evenodd" clip-rule="evenodd" d="M5.77733 136.211C6.34669 132.206 5.39137 128.202 4.70778 124.197C4.43459 123.601 4.95906 123.005 5.77733 122.41L16.9665 128.13C17.1854 129.465 17.0415 130.8 14.9097 132.135L10.2201 133.422C8.71207 134.611 7.08726 136.916 5.77733 136.211Z" fill="url(#paint9_radial_9_36)"/>
<path fill-rule="evenodd" clip-rule="evenodd" d="M33.1744 149.011L29.3898 151.728C25.7267 153.183 22.3184 152.88 19.2702 153.087L15.7324 155.304C13.0679 157.74 16.3265 159.59 14.7452 159.523L23.0548 164.529L28.3203 163.67L32.0226 162.24L33.0539 167.161C34.5878 166.311 42.7326 162.438 43.6231 159.165L45.7622 156.234C46.9565 155.51 46.1516 153.939 48.395 153.945C50.6738 153.983 49.847 150.961 50.8632 150.084C51.1146 149.071 53.3823 147.759 54.1541 146.222C54.3407 145.31 57.5873 143.607 56.4578 143.076L54.415 141.318C52.1851 141.053 48.3518 140.779 48.5714 140.055C48.689 139.667 44.8813 138.465 43.4014 137.737C42.3638 137.227 41.0118 136.371 39.9207 136.361C38.721 136.35 37.8369 137.213 38.0336 137.204C39.4549 137.138 40.8407 141.455 39.7145 141.837C39.215 142.007 36.8291 144.493 36.4653 144.72L36.054 148.94C34.3861 149.315 34.193 149.388 33.1744 149.011Z" fill="url(#paint10_radial_9_36)"/>
<path fill-rule="evenodd" clip-rule="evenodd" d="M5.23786 122C3.52621 123.566 3.45757 126.723 3.80164 127.654C4.52158 129.603 5.09513 131.933 4.73428 133.553C4.22321 137.171 2.52538 137.275 2 141.15C2.43881 141.569 4.31948 141.836 4.39795 142.485C3.97965 143.609 2.32297 145.359 2.51813 146.371C2.69723 147.299 4.39856 147.922 5.5651 148.502C4.85684 149.235 4.49776 150.87 5.04879 151.631C5.51061 152.269 5.89892 153.291 6.55955 153.15C5.69758 154.183 7.54053 155.584 8.18848 156.079C9.18209 156.839 11.9922 158.181 13.0935 157.1C13.6059 158.063 12.8715 158.236 13.8116 159.707C14.5574 160.874 16.1992 161.942 17.6475 162.594C19.3038 164.251 21.4459 164.908 22.9961 165.103C23.5357 167.594 25.5939 169.959 28.1665 172.066C30.1527 176.127 31.8984 179.926 32.7206 184.2C33.2215 186.416 34.0101 190.299 33.7878 193.157C33.8018 197.129 30.7202 197.291 27.3157 198.9C26.2746 199.628 25.6872 200.818 25.5795 201.392C25.4794 201.925 26.1639 202.991 26.6176 203.368C26.887 203.592 27.9307 203.675 28.3501 203.262C28.4265 203.844 29.0314 204.223 29.6209 204.323C30.2091 204.422 30.8728 204.011 31.3389 203.585C31.6292 204.192 32.9465 204.652 33.3587 204.583C33.751 204.518 35.5454 204.002 35.8712 203.876C36.8103 204.06 39.1366 203.379 40.4744 201.502C40.9142 200.885 41.4001 199.847 41.0671 198.911C41.6654 198.561 41.9359 197.657 42.2124 196.327C42.3172 195.176 42.6496 194.207 42.8632 193.233C42.9822 192.691 43.7786 192.338 43.3886 191.729C43.2598 191.528 42.6194 190.488 42.2887 190.182C41.9825 187.788 42.1986 185.933 42.3815 183.537C42.5167 181.766 42.3654 180.139 42.2415 178.351C42.3476 176.969 42.1258 176.305 42.3578 175.769C43.1876 176.552 43.4122 176.865 43.7341 177.561C45.1235 181.199 44.7635 182.49 46.9937 184.762C47.0071 187.362 46.5022 189.469 47.4882 191.793C47.9945 192.986 48.5684 194.161 48.9808 195.299C49.7659 197.133 47.9317 198.162 47.9973 199.04C46.9636 200.106 44.9815 199.947 43.6722 200.524C42.4919 201.045 41.3548 203.227 41.487 204.844C42.2595 204.661 42.9432 205.045 42.9432 205.045C42.9432 205.045 44.1665 206.616 44.734 206.755C45.3751 206.911 46.5337 206.78 47.0865 206.358C47.6254 207.123 48.429 207.615 49.3426 207.709C50.1886 207.75 51.8211 207.15 52.215 206.802C52.84 207.349 54.7089 206.577 55.7474 206.145C56.5085 205.828 56.9345 204.882 57.1436 204.173C57.3903 203.337 56.9238 202.503 56.7559 201.451C57.0868 198.116 57.3413 197.023 58.3249 195.655C57.8643 194.195 57.2561 191.383 57.0725 189.258C56.8154 186.283 57.1564 182.899 57.0364 180.805C57.2263 179.199 56.6951 178.057 56.3855 176.776C56.8789 177.194 57.6959 177.393 59.2889 177.468C60.757 177.538 61.5968 176.702 62.165 177.247C62.4668 178.368 62.0014 179.826 62.314 181.529C62.6501 183.36 64.0853 185.5 65.9937 186.319C67.2327 187.225 67.7732 187.681 68.1916 188.814C68.8575 190.615 68.1758 192.366 67.0209 194.177C66.8865 194.968 66.3723 196.84 65.6792 197.402C64.0249 197.227 62.8176 198.382 61.8595 198.958C60.7395 199.632 59.9925 201.253 59.7398 202.365C59.5888 203.029 60.2023 204.344 60.9287 204.997C61.1826 205.131 61.8047 205.026 62.0759 205.135C62.3296 205.238 62.726 205.254 62.9467 204.952C63.261 205.507 63.9156 205.782 64.5138 205.857C65.1479 205.937 65.9981 205.714 66.4136 205.358C66.97 205.64 67.8157 205.999 68.3135 205.903C69.0949 205.753 70.1179 205.439 70.815 205.111C71.4483 204.814 72.7898 203.191 73.3039 202.744C74.6013 201.47 73.2059 199.777 73.6238 198.173C74.0784 196.428 75.6491 194.902 76.7635 194.306C77.2284 192.502 76.775 189.962 76.6635 188.133C76.5671 186.549 74.3681 183.837 73.0239 182.533C73.1166 180.826 73.0524 179.425 73.3039 179.1C73.9504 179.693 75.9035 183.121 77.1344 186.096C78.1891 188.645 79.2641 191.199 78.8451 193.047C79.0523 194.354 79.0406 195.73 78.7833 197.076C78.5198 198.455 76.8639 199.623 76.0527 200.834C75.447 201.738 74.1885 203.055 73.9293 204.067C73.5122 205.694 74.9582 206.417 75.7364 207.023C76.1379 207.336 77.1667 207.294 77.9416 206.834C78.4607 206.984 78.8202 207.876 79.6432 207.905C80.2716 207.928 80.8495 207.499 81.3358 207.074C81.4771 207.316 82.4503 207.979 83.0974 208C83.4993 208.013 84.224 207.475 84.4591 207.357C84.8865 206.261 85.5077 205.426 86.0935 204.478C86.3802 204.014 86.581 202.721 86.9656 202.081C87.493 201.202 86.8614 199.891 86.4966 199.268C86.2834 198.322 85.8641 197.198 85.8499 194.733C85.8399 192.997 86.2761 190.966 86.4189 189.852C87.1789 188.615 85.888 188.77 85.2227 186.733C84.6784 185.066 85.1422 183.511 85.8208 182.3C86.3886 184.069 86.3115 186.757 87.4734 188.822C88.8847 191.33 91.9262 193.854 93.9346 195.229C95.8015 194.532 95.9819 191.886 96.318 190.811C96.5605 191.865 96.9622 193.229 97.4633 193.793C99.7033 190.769 101.324 185.421 100.945 181.93C100.386 176.787 98.9574 171.676 96.6179 166.865C95.2803 162.546 95.5401 158.139 93.1746 154.012C91.0637 151.528 90.2977 148.122 85.7445 146.766C79.3054 144.035 72.1911 142.862 65.1519 142.027C60.7015 141.692 58.8019 137.184 53.7476 137.751C52.486 138.006 50.8146 137.992 49.8153 137.685C47.6863 137.03 46.2981 134.942 44.2322 134.017C40.4391 132.781 38.2361 132.642 35.5258 130.247C34.7202 128.719 33.3599 126.394 32.3352 125.13C31.8129 124.487 29.24 122.279 28.5628 122.149C27.4338 122.167 26.059 123.533 24.9559 124.206C23.8465 124.883 23.1889 125.937 22.2925 126.798C20.7519 127.021 19.3708 126.947 17.7148 126.801C15.7509 126.627 14.3171 126.123 12.6299 125.13C10.9379 124.441 7.21206 121.976 5.23786 122ZM5.82144 123.252C7.49204 123.299 11.9413 127.289 14.7169 127.916C15.8185 128.768 17.4439 128.464 19.1638 128.313C20.5861 128.188 22.1032 128.244 23.1688 128.461C23.8617 127.896 24.3948 127.279 25.0541 126.655C25.904 125.851 27.1221 124.703 28.4865 124.552C29.4876 124.86 30.3295 125.767 30.9081 126.406C31.9099 127.511 32.6426 129.013 33.3751 130.26C33.2484 131.029 33.9407 132.173 33.8496 133.538C33.7844 134.516 33.1931 135.753 32.1861 136.38C32.5653 137.278 32.6516 137.919 32.4643 138.092C32.1747 138.361 31.1686 138.216 30.4136 137.8C29.6655 137.388 29.0399 136.35 28.6974 135.967C28.8457 136.568 28.7769 137.34 29.6555 138.157C30.7182 139.146 32.393 139.613 32.966 139.358C33.7353 139.016 34.1876 138.198 33.7296 136.784C34.7168 136.18 35.0928 134.868 35.324 134.163C35.5196 133.566 35.0393 132.363 35.0586 131.93C35.474 132.18 35.0723 131.931 36.1675 132.611C39.1827 134.6 43.2913 135.036 46.3065 137.269C48.6859 140.271 52.5088 138.726 55.9529 139.57C58.3375 139.986 58.8882 140.931 58.8235 141.769C58.748 142.746 57.8654 143.567 57.3345 144.669C56.9728 145.42 56.8544 145.671 57.6109 146.532C57.8586 147.191 58.0907 148.039 57.9763 148.779C57.8475 149.612 57.8882 150.099 57.3473 150.888C56.8818 151.568 56.6827 152.132 55.5474 153.736C57.064 152.596 58.2153 151.395 58.5581 150.018C58.9556 148.421 58.8732 146.717 58.2435 145.355C58.8928 143.837 59.6679 142.847 61.0487 142.585C63.6645 143.196 68.3147 144.706 70.7096 144.92C76.7315 145.946 83.1536 146.525 88.0897 149.811C90.0938 152.487 91.4643 155.322 92.3893 158.429C93.5374 162.806 94.5143 167.191 96.2925 171.595C97.8089 175.35 98.4771 179.444 98.785 183.406C98.9298 185.269 97.6409 190.321 97.3979 191.163C96.9937 191.251 96.8832 187.913 95.5599 186.437C95.13 187.04 95.3213 188.377 95.149 189.55C94.9269 191.062 94.2192 191.916 93.6782 192.516C92.8538 191.475 91.1454 190.695 90.1931 189.613C88.3429 187.511 87.3407 185.01 87.1552 182.446C85.6943 179.192 90.3607 176.275 89.2114 173.039C89.4537 170.511 91.5054 166.875 91.5439 163.975C90.4324 166.129 89.3193 169.99 88.0915 172.804C88.4955 175.44 86.5603 179.252 84.8136 180.76C84.1342 183.552 82.2132 187.284 84.8264 189.545C84.3591 191.854 84.1841 195.265 84.2973 198.012C84.3556 199.424 85.1943 199.856 85.3262 200.928C85.3971 201.504 84.9659 202.776 84.77 203.334C84.6186 203.764 84.3622 204.208 83.8878 204.679C83.5129 205.051 82.7183 206.145 81.6176 205.442C80.9492 204.381 81.7076 203.876 81.643 203.153C80.8358 203.672 80.6418 205.154 80.545 205.421C80.3445 205.553 80.0521 205.764 79.7887 205.758C79.3788 205.747 78.9534 205.645 78.6106 205.4C78.1166 204.846 78.6909 203.636 79.1306 202.962C78.1106 203.172 77.6377 205.127 77.4762 205.34C76.9063 205.367 75.9102 205.02 76.0345 204.195C76.3016 202.229 80.2357 200.493 80.2414 198.784C80.3311 196.662 81.1034 195.766 81.2104 193.453C81.2935 191.656 80.9459 188.842 80.0741 187.32C79.1438 185.696 77.9632 183.771 76.9326 181.727C76.0598 179.995 75.0211 178.302 73.6002 177.362C73.3519 175.404 73.6656 174.47 74.7183 172.162C75.6967 170.016 77.2387 167.559 78.6942 165.83C77.5249 165.522 75.2057 168.656 74.3201 170.067C73.7286 171.009 72.4498 171.871 71.235 172.742C69.9809 173.641 69.0206 174.215 66.7827 174.641C65.1507 174.952 64.6391 174.506 63.7175 174.213C62.5554 175.054 60.6956 175.925 59.2107 175.91C57.5583 175.893 56.809 175.398 55.6601 174.921C55.0162 174.201 54.9693 173.07 54.673 171.629C54.3654 170.134 54.5078 168.674 54.3003 167.769C53.8631 167.721 53.8844 170.647 53.7931 171.86C53.7134 172.919 53.6018 174.325 54.233 176.062C55.2325 178.812 54.139 182.024 55.4811 184.296C54.6662 187.731 56.2184 192.139 56.3346 194.652C55.3879 197.289 55.9721 200.883 54.6984 203.784C53.7466 205.07 52.6534 205.366 51.586 205.125C51.1211 205.021 50.8331 204.219 50.268 204.271C50.4478 204.649 50.481 204.96 50.3807 205.271C50.0927 205.453 49.3996 205.52 48.999 205.481C48.3691 205.421 48.0293 205.156 47.81 205.099C47.8741 204.915 47.6527 204.659 48.0445 204.234C48.5728 203.662 49.0565 203.401 49.5317 202.83C48.8199 203.003 48.5143 203.051 47.7682 203.575C47.3034 203.902 46.7711 204.59 46.5738 205.005C46.2503 205.191 45.8569 205.382 45.5393 205.317C45.1883 205.244 44.9247 204.9 44.8412 204.828C45.1169 204.041 45.2759 203.802 45.9011 203.39C46.2057 203.19 46.7186 202.868 47.2228 202.578C46.6197 202.736 46.0184 202.758 45.5321 202.986C45.0139 203.229 44.6084 203.684 43.894 204.049C43.4697 204.075 43.2601 203.913 43.1905 203.675C42.9037 203.263 44.6282 201.829 45.063 201.591C46.6292 200.765 48.7761 200.592 49.379 200.628C50.5435 198.782 51.1322 197.289 51.0497 195.291C50.5282 194.142 49.9815 192.861 49.5614 191.503C48.8168 189.097 48.0589 186.449 49.368 183.877C46.7286 181.467 47.1434 177.772 45.0776 174.998C43.1109 174.081 40.6101 172.95 38.7455 171.712C36.9249 170.502 35.8437 170.82 32.5933 169.307C34.3878 171.371 36.3245 171.072 38.2055 172.792C39.5022 173.979 40.5803 174.201 40.6271 175.321C40.7012 177.094 39.511 179.347 40.1108 181.05C40.3521 183.08 39.9881 185.205 40.0272 187.251C40.0604 188.995 40.386 190.681 41.6288 192.2C40.9661 192.728 41.0875 192.745 40.6562 193.237C40.5029 193.667 40.8514 194.872 40.6846 195.883C40.5215 196.87 40.2209 197.744 39.6945 197.911C39.9546 198.735 39.9046 199.106 39.509 200.246C39.2435 201.011 37.4689 201.866 36.7148 202.325C35.6179 202.176 34.6065 202.824 33.566 202.913C33.0321 202.959 32.5717 202.549 32.2479 202.357C32.2967 202.251 32.3968 201.816 32.7879 201.482C33.1756 201.15 33.5803 200.73 34.0641 200.418C33.2443 200.46 32.7953 200.691 32.2425 201C31.7719 201.262 31.4705 202.068 31.0444 202.474C30.6676 202.833 29.5637 202.46 29.5245 202.221C29.516 202.169 29.6786 201.701 30.1154 201.328C30.7697 200.77 31.3735 200.182 31.0662 200.271C29.5757 200.704 29.2692 201.261 28.5701 202.041C27.7552 202.269 27.4988 201.555 27.5738 201.395C27.832 200.842 28.6402 200.016 29.1519 199.756C30.285 199.181 31.3993 198.753 32.7024 198.528C33.7402 198.349 33.5507 198.38 34.475 197.86C36.6607 194.195 36.437 189.842 35.7748 186.006C34.8048 182.058 34.1374 178.292 32.2134 174.548C32.0797 173.474 31.4413 172.325 30.7517 171.601C29.7328 170.532 28.451 170.004 27.2902 168.877C26.248 167.865 25.7726 166.651 25.1432 165.413C24.968 164.309 29.789 166.303 29.9391 162.419C32.9557 163.898 36.3699 161.127 37.2311 159.33C37.7591 158.227 37.4821 156.485 37.122 156.135C36.9394 157.002 36.1825 158.172 35.6749 158.81C34.0961 160.792 31.1583 162.098 29.2537 161.306C28.0605 163.729 25.8086 163.815 23.5433 163.133C21.493 162.516 19.9721 162.237 18.8383 160.614C17.2788 160.142 16.1631 159.968 15.6368 158.901C15.1191 157.853 15.632 157.889 15.046 156.896C14.5068 155.982 17.1276 155.192 17.9748 154.82C18.4498 154.611 18.9319 153.981 19.2492 153.15C23.2045 154.055 26.9165 153.192 30.8317 151.966C31.7367 151.402 32.3407 149.944 33.086 149.74C33.6376 149.589 34.2842 149.544 35.3858 149.993C37.2679 150.758 37.2089 147.993 37.1111 146.704C37.0629 146.069 36.8927 145.456 37.1892 145.018C37.4972 144.563 38.2245 144.236 39.0818 143.86C39.6637 143.416 40.2508 142.364 40.2853 141.553C40.3484 140.068 39.7037 138.303 38.7273 137.482C38.1895 137.031 37.0594 136.541 36.4475 136.868C38.2432 137.424 38.6799 138.13 38.8527 138.48C39.7383 140.273 39.3145 141.977 38.0128 143.247C37.4053 143.84 36.5627 144.283 35.5221 144.478C36.8188 146.985 35.5781 149.973 32.6951 148.292C31.6242 150.064 28.6804 151.671 25.5231 152.181C23.2253 152.552 20.9167 152.645 19.3819 152.154C19.3719 151.598 18.8965 151.625 19.1165 150.871C19.3364 150.117 19.6614 150.215 20.82 149.989C21.8554 149.503 23.0434 149.896 24.136 149.853C25.9127 149.784 27.5817 149.436 29.0191 148.769C30.8364 147.927 30.6089 141.341 28.0865 142.572C29.0977 143.708 29.4738 149.539 26.2921 148.087C25.2186 148.345 24.0647 148.87 22.8198 149.006C21.1033 149.195 19.3295 148.974 18.3929 149.281C17.2445 149.659 18.7677 150.559 17.8839 151.527C17.5353 151.909 18.1614 152.662 17.7112 153.011C16.9307 153.615 15.8011 154.641 15.2405 154.763C14.2347 155.118 12.2005 155.822 11.39 155.679C9.87655 155.413 8.51349 154.768 7.89941 153.598C7.73345 153.282 9.59809 153.226 10.3174 152.966C11.2606 153.218 12.3034 153.559 12.4099 153.575C13.0804 153.676 13.7797 153.182 14.4079 153.033C15.2534 152.832 15.3743 152.3 15.3005 152.175C15.127 151.88 14.4469 152.324 12.9898 152.271C11.6225 152.222 10.4144 151.723 10.2755 151.642C9.63302 152.022 7.40606 152.558 6.7777 152.116C6.12501 151.657 6.03471 150.558 6.30139 150.373C6.47221 150.255 7.5003 150.118 7.69943 150.296C8.0091 150.573 8.43441 151.319 8.7466 151.418C9.48388 151.652 9.64598 151.481 10.0737 151.228C10.6583 151.458 11.355 151.396 11.6481 151.374C12.5511 151.304 12.8095 150.919 13.2389 150.212C13.5278 149.737 12.8087 147.578 11.7136 147.128C11.1398 146.892 10.1835 146.633 9.28292 146.6C9.72695 145.501 10.1385 144.71 11.2136 143.474C11.3907 143.35 11.5974 143.277 11.7027 143.027L11.6881 142.558C11.9655 140.533 12.2391 139.215 13.1934 137.37C13.468 136.425 14.0173 135.832 13.6643 135.468C13.3392 136.102 12.844 136.665 12.5408 137.31C12.2222 137.988 11.9227 138.673 11.6609 139.369C11.6408 139.423 11.6278 139.478 11.6081 139.532C11.1583 139.26 11.2266 138.567 10.1483 138.581C9.61353 138.587 8.21124 139.234 7.12313 139.782C7.32869 139.974 8.2831 140.495 8.59571 140.877C8.62078 141.448 9.55744 141.985 9.91922 142.256C10.1941 142.462 10.5522 142.386 10.8355 142.332C10.8154 142.446 10.7908 142.56 10.7737 142.675C9.65007 143.97 8.74184 145.349 8.17939 146.717C7.95256 146.783 7.74001 146.867 7.56854 147.001C4.55708 146.691 3.94293 145.379 6.72862 142.103C5.9428 141.549 5.47814 141.205 4.96516 140.791C4.68856 139.888 5.678 138.575 6.38866 137.746C7.34806 136.628 8.59532 135.504 9.91558 134.711C10.0367 133.836 11.2137 133.545 12.5117 133.173C13.84 132.793 16.0575 132.122 16.0968 131.897C16.1208 131.759 14.5132 131.695 13.2862 131.502C12.3999 132.201 11.5005 132.103 10.7119 131.623C10.1157 131.261 9.58206 130.681 9.16475 130.065C8.39006 128.923 7.85455 127.033 8.21757 126.799C8.41794 126.67 9.22838 127.234 9.93558 127.929C10.5045 128.313 11.5806 129.664 12.6208 130.302C13.3609 130.757 14.9252 130.744 15.1187 129.933C14.8212 129.78 13.6562 129.535 13.2462 129.304C12.8061 129.056 12.6372 128.708 12.2644 128.37C11.2255 127.426 9.78558 126.26 8.81387 125.774C8.22586 125.479 7.07218 125.421 6.60682 125.696C6.59875 126.077 6.89029 127.37 6.85043 127.54L7.65581 129.872L8.85569 131.871C9.64055 132.462 9.50268 133.043 9.25383 133.523C9.05995 133.896 7.51505 135.173 6.8777 135.732C6.77501 134.313 7.23272 133.047 6.79407 131.306L5.81417 126.769C5.68873 126.375 5.10168 123.913 5.82144 123.252ZM28.212 126.377C26.2302 126.833 24.1004 128.648 24.0724 130.037C24.0567 130.813 24.3142 131.646 26.0067 131.843C26.788 132.482 26.5501 133.015 26.2012 133.576C25.8237 134.184 25.633 134.587 24.2669 134.107C23.1547 133.461 22.695 132.691 22.3089 132.535C22.9727 133.395 22.625 133.97 23.6051 134.619C24.3517 135.113 25.8453 135.736 26.5558 135.307C27.3099 134.945 27.8593 134.289 28.0956 133.853C28.2215 132.857 29.5118 132.939 29.9354 132.235C30.1596 131.862 30.1284 131.332 29.9427 130.906C29.7582 130.483 29.4206 130.163 29.03 130.2C28.6315 130.039 27.7324 131.009 27.3593 131.121C26.9797 130.829 26.2582 131.053 25.8395 130.868C25.5372 130.734 25.3873 130.138 25.3759 129.797C25.4683 129.046 25.8848 128.642 26.1303 128.333C26.8565 127.421 27.7988 127.46 28.5083 127.583C29.2791 127.716 29.4317 128.066 30.0499 128.706C30.6756 129.354 31.6352 129.855 32.1061 129.969C32.0545 129.432 31.4593 128.846 30.8535 128.152C30.121 127.313 29.2833 126.405 28.212 126.377ZM40.6216 136.49C41.7744 137.359 42.9957 137.637 43.6177 138.072C44.8741 138.95 45.4098 139.539 45.3394 140.685C45.3092 141.177 44.6784 142.911 43.7686 143.449C44.7177 144.078 45.432 143.739 46.4065 144.31C47.7805 145.116 48.5553 146.147 46.5429 148.178C46.1889 149.577 44.9962 150.116 43.7213 150.53C41.9394 151.108 39.8741 151.31 38.6346 152.135C38.0782 152.505 37.7143 153.029 37.6656 153.818C38.2296 153.322 39.0559 152.909 40.0017 152.628C41.4506 152.198 43.3011 152.373 44.8776 151.84C46.2565 151.373 47.6781 149.9 47.5555 148.611C49.2688 148.278 49.6149 145.672 48.8117 144.598C48.2391 143.832 46.3883 143.461 45.2285 143.228C46.0182 142.407 47.0241 141.533 46.8828 140.695C46.6314 139.203 44.6455 137.714 42.8196 136.937C42.2407 136.691 41.8143 136.586 40.6216 136.49ZM19.7037 139.121C19.1358 139.112 18.1455 139.576 17.8039 139.745C17.2934 139.999 17.1413 140.781 17.0712 141.016C16.9682 141.36 17.4359 142.057 17.8621 142.373C18.2682 142.674 19.861 142.892 20.6127 142.672C21.1848 142.504 21.3868 141.868 21.8526 141.757C22.2026 141.656 22.8402 141.976 23.2015 142.024C23.0315 141.413 22.3429 140.131 21.8853 139.812C21.4527 139.51 20.2716 139.13 19.7037 139.121ZM10.2028 139.571C10.3665 139.575 10.5203 139.592 10.6446 139.63C10.9219 139.714 11.2563 139.944 11.3991 140.17C11.2724 140.556 11.1464 140.942 11.0482 141.335C10.8059 141.456 10.3692 141.342 10.1283 141.227C9.59121 140.971 9.7403 140.474 9.48108 140.175C9.30169 139.968 8.96182 139.963 9.00658 139.778C9.1339 139.679 9.71172 139.561 10.2028 139.571ZM19.8401 140.088C20.2401 140.103 20.5374 140.224 20.8363 140.442C21.2245 140.684 21.6732 140.929 21.6526 141.109C21.6413 141.208 21.3315 141.029 21.1363 141.131C20.8419 141.633 20.1551 141.799 19.8746 141.823C19.3749 141.866 18.8341 141.785 18.4984 141.607C18.2923 141.497 17.7636 141.274 17.7548 141.041C17.7471 140.837 18.2158 140.634 18.6002 140.365C19.0005 140.084 19.3851 140.088 19.8401 140.088ZM9.75196 147.284C9.87832 147.28 9.99487 147.284 10.101 147.297C10.9502 147.398 12.0207 148.846 12.0972 149.577C12.1582 150.16 11.6424 150.629 10.87 150.32C10.7799 150.272 11.2987 149.467 10.7355 149.272C10.2807 149.114 10.1453 149.224 9.98285 149.398C9.75877 149.609 10.07 149.928 9.87922 150.217C9.66815 150.536 9.45685 150.692 9.14475 150.651C8.97575 150.629 8.71957 150.504 8.46482 149.997C8.4217 149.912 9.26339 149.699 8.89205 149.108C8.54843 148.56 7.98622 148.784 7.97396 148.687C7.68538 148.706 7.43187 149.59 7.17767 149.599C6.96563 149.607 6.26923 149.676 6.27776 149.601C6.29943 149.41 6.45211 148.276 6.96133 148.021C7.56739 147.716 8.86749 147.312 9.75196 147.284ZM72.9784 173.325V173.327C72.1282 176.939 71.5178 179.681 71.5968 183.28C72.5018 184.371 73.9516 184.729 74.3456 185.928C74.6505 186.856 74.8019 188.151 74.8292 189.273C74.86 190.539 75.3838 191.966 74.9437 193.118C74.045 193.734 72.7955 195.741 72.4312 197.351C72.0131 199.2 72.2047 201.286 70.5841 202.51C69.8738 203.021 68.8336 203.31 68.4643 203.436C68.207 203.524 66.8688 203.591 66.7445 203.539C66.591 203.227 66.4092 202.627 66.6427 202.316C66.9658 201.887 67.5686 201.362 68.3207 200.788C67.2003 201.061 66.5486 201.405 66.1137 202.115C65.7827 202.656 65.6729 203.221 65.6246 203.583C65.4437 203.654 64.8698 203.7 64.552 203.705C64.1729 203.714 63.7181 203.468 63.4721 203.27C64.0736 202.166 64.6003 201.475 65.3028 200.94C63.9234 200.987 62.827 202.805 62.6667 202.886C62.4866 202.856 61.9191 203.064 61.6632 202.863C61.2548 202.543 61.5853 201.659 61.7559 201.453C62.5167 200.534 65.2103 198.853 66.4791 199.617C68.4177 197.359 68.3073 197.746 68.737 194.738C70.1806 192.975 70.4194 190.629 69.9097 188.569C69.444 186.687 68.3214 185.179 66.7609 184.816C65.3086 183.254 64.0116 178.571 64.4484 176.533C65.5388 176.277 66.2831 176.496 68.7661 175.758C70.8985 175.125 71.2619 174.521 72.9784 173.325Z" fill="#281B19"/>
<path fill-rule="evenodd" clip-rule="evenodd" d="M61.6762 126.158C62.4441 126.561 53.2421 134.301 51.3606 133.565C49.2975 134.469 42.0078 125.254 42.0078 125.254L32.5175 127.603C24.0919 125.978 20.2908 120.882 14.2246 117.486C12.8249 112.145 11.0399 106.851 13.5369 101.045C-4.77385 92.6694 2.38698 81.7591 7.48511 71.0541C4.68036 61.952 5.21167 54.8698 14.0871 47.206C16.8604 39.4131 15.4853 25.6825 31.2797 25.3451C38.0686 18.6144 43.3429 5.91494 53.1486 11.0723C71.3316 -6.32349 74.6181 5.74112 79.8315 12.1563C97.4881 4.25169 98.9844 17.6016 105.552 22.4544C126.443 20.4079 125.533 29.4146 126.183 37.6305C125.998 42.891 124.946 48.9109 130.034 49.5546C136.697 59.3879 135.561 67.6451 132.785 75.5707C138.741 97.4917 131.043 99.324 128.796 109.175C127.345 118.764 122.984 122.795 117.518 124.712L111.191 128.506C102.812 128.25 99.093 126.77 94.1358 125.616C84.2878 133.632 81.8615 128.853 77.4933 127.422L61.6762 126.158Z" fill="#1D9D00"/>
<path fill-rule="evenodd" clip-rule="evenodd" d="M68.9005 0.260344C62.6278 -1.65862 56.8406 7.59221 52.3241 9.64438C46.5696 6.01614 39.6456 9.12155 36.2942 16.0594C33.6732 23.7014 28.7105 26.241 22.5974 24.9884C15.8301 25.7724 13.6322 35.6813 13.2582 43.2152C12.1253 50.2937 2.56223 53.5859 4.49889 63.505C5.14556 65.3307 6.88552 69.0186 6.64512 70.654C4.03303 73.7304 -0.529678 79.1119 0.0504303 85.6033C-0.0589267 93.4214 6.99268 99.4952 12.4134 102.088C10.1671 110.888 13.3067 122.388 19.989 123.99C25.3277 128.91 33.3394 130.192 40.2689 126.508C44.9618 125.135 46.8648 138.579 52.9995 134.293C57.9406 133.121 60.3932 126.85 65.1336 125.499C67.7015 125.294 73.0201 124.908 75.588 124.703C77.7453 131.877 83.4062 134.603 88.0648 131.872C93.6224 126.119 98.7395 129.534 104.878 130.715C110.946 131.698 113.96 126.447 119.228 125.226C126.969 125.143 128.597 111.422 132.688 105.855C138.184 97.9546 137.839 84.7295 134.919 75.3228C137.173 66.8352 136.57 55.0453 130.245 49.1713C122.95 47.1373 131.129 33.6476 126.5 27.4974C122.611 19.6356 112.526 20.2735 105.767 20.6346C101.265 12.6221 93.634 5.20537 85.6905 8.71613C82.1575 10.841 79.9848 12.8541 77.9445 7.39007C75.969 3.02257 72.2192 0.623559 68.9005 0.260344ZM70.7409 5.4591C75.6093 5.70788 78.5887 7.7363 79.1911 14.5455C83.7245 9.5082 89.7594 10.0612 95.2201 14.5375C99.7086 16.0283 101.812 23.9846 106.137 24.116C113.46 23.3563 123.404 23.1148 124.683 33.6292C126.514 36.5287 124.645 43.7525 124.994 47.2046C125.142 48.6649 122.051 55.9072 118.703 58.0832C113.026 61.7729 103.572 55.9458 99.5779 48.7562C100.493 59.0893 114.088 65.2454 119.792 61.8017C125.213 58.529 126.75 49.2524 126.885 49.2687C132.51 50.5858 133.254 56.7136 132.443 64.3629C131.425 71.2788 131.547 78.2332 134.189 84.9507C135.671 93.2063 131.694 100.299 127.521 106.055C126.82 107.097 120.008 111.446 117.536 110.697C112.476 109.165 106.16 100.026 104.857 98.3915C102.597 99.9634 112.759 111.59 117.609 114.11C120.659 115.694 126.019 110.532 125.966 110.819C124.77 117.431 122.038 122.017 117.201 123.343C113.506 129.74 104.276 127.187 98.8163 123.392C94.3759 118.545 90.1498 125.184 85.745 126.262C80.643 130.492 77.5923 125.139 74.9813 122.511C71.4301 122.922 67.7662 122.831 64.283 123.545C59.2563 126.76 54.0173 132.145 48.1724 130.82C45.8015 129.403 44.8077 124.821 42.7685 123.36C42.4953 123.163 39.3883 122.34 36.2744 118.334C34.1337 115.58 32.7481 106.04 31.6442 106.145C30.5367 106.251 32.0713 117.368 34.0117 121.11C35.1261 123.259 38.7079 124.191 38.2985 124.601C32.9352 127.061 26.7978 124.995 23.2653 119.337C17.3745 118.367 11.2899 112.324 13.6808 103.639C13.7889 103.243 14.781 98.535 16.1277 95.8643C18.272 91.6118 24.2807 86.472 26.7034 85.1023C27.6164 84.5861 35.0862 82.3133 35.544 81.2244C35.1667 79.2324 24.455 82.9676 22.8021 84.4663C21.7044 85.4617 17.9846 89.3276 15.5108 92.48C13.8867 94.5496 12.3096 99.5807 12.1629 99.4139C10.3244 97.3253 6.75801 97.7489 5.96788 93.6961C2.17658 86.647 4.42498 76.9922 8.51065 71.0615C6.16942 64.5161 6.49819 55.4719 11.8944 51.711C18.0902 50.2551 15.2414 41.7083 17.3526 36.2957C18.6008 26.945 25.5127 26.675 30.8052 26.3476C35.2203 24.4511 37.7745 19.5764 41.1035 15.7382C44.7166 10.3677 49.3979 9.45648 53.6575 12.5471C56.6694 6.40129 62.1618 3.00436 67.5677 3.63075L70.7409 5.4591Z" fill="#174000"/>
<path fill-rule="evenodd" clip-rule="evenodd" d="M35.8185 41.0632C36.2076 40.0802 40.6738 41.2098 45.3555 43.8686C49.6801 46.3245 54.1482 50.2972 56.7001 50.1577C62.1343 49.8607 65.4247 44.9524 68.1907 41.4848C70.7566 38.2681 72.9672 36.4676 73.6422 36.3657C73.2296 37.9917 74.5173 38.1072 69.9286 42.8698C58.6842 54.5402 60.4258 60.5818 47.7845 47.5671C42.1467 41.7627 38.4318 46.4832 35.8185 41.0632Z" fill="#174000"/>
<path fill-rule="evenodd" clip-rule="evenodd" d="M89.7998 53.1131C87.5265 57.1863 86.0908 62.3284 83.2375 64.3228C80.0315 66.5637 75.4393 66.3286 71.907 64.6708L71.4737 64.7458L71.2992 65.2754C68.3568 74.2977 62.999 78.7378 57.715 78.4896C52.431 78.2414 46.9479 74.4897 43.6854 69.6606C40.6919 66.4742 41.0446 66.7759 42.4358 70.3656C45.998 75.6382 51.8673 80.2411 57.6578 80.5131C63.3293 80.7795 69.972 77.081 73.1654 67.8571C77.7983 69.7989 81.81 69.4073 85.3559 66.6753C88.0494 64.5999 88.9741 57.0369 91.1396 53.1568C92.3813 50.7164 93.8476 48.0615 92.3284 48.2586L89.7998 53.1131Z" fill="#174000"/>
<path fill-rule="evenodd" clip-rule="evenodd" d="M62.2938 206.955C56.5997 205.755 53.7173 209.479 49.456 210.788L48.5807 207.466C53.2469 201.621 57.9903 196.182 63.1691 193.03C64.6832 180.975 65.4148 168.037 65.1143 153.938C65.335 143.162 65.8221 132.089 62.7801 124.939L41.5783 110.375L37.5908 105.776L36.91 101.944C36.8596 98.3478 37.9025 99.7783 38.8551 100.794C44.5569 111.917 53.3233 112.055 54.3188 111.014L53.5408 103.86L56.7502 102.071C58.0638 106.755 59.0324 111.741 62.5856 114.463C65.3319 118.411 66.8274 116.883 68.0319 114.08L69.3935 110.758V102.966C70.5332 101.514 72.1527 97.6034 71.3386 105.776C71.6098 110.382 72.5355 112.981 73.5755 115.23C75.4972 115.681 75.9727 117.686 80.4807 115.357L91.9569 110.503C96.9817 109.16 99.2146 104.995 100.904 100.283L103.239 101.943C102.556 104.541 102.363 107.138 100.224 109.736C95.0477 115.337 91.6228 116.338 87.1914 118.679C77.1504 121.404 78.2389 124.13 74.9371 126.855C74.1026 142.698 75.5643 154.318 75.9097 167.991C76.5872 177.217 77.8479 185.294 79.0219 193.541C79.7687 195.988 83.2506 198.675 87.8721 201.462L93.2212 207.083C94.3915 210.125 95.0732 212.766 92.1514 212.448L83.8847 205.678L82.5231 208.871C82.4256 210.745 81.7431 212.619 80.0917 214.493C77.9203 215.015 77.9203 213.092 77.4658 211.682L75.3261 207.338C72.5938 205.122 72.1945 206.992 70.8524 207.211L68.7127 211.554C67.5836 212.504 67.1993 215.166 64.1417 211.682L62.2938 206.955Z" fill="#921D00"/>
<path fill-rule="evenodd" clip-rule="evenodd" d="M68.6833 103.571C68.8969 110.724 68.9732 112.099 66.9154 114.201C66.5091 114.932 65.6162 115.086 65.3601 115.135C65.0746 115.189 64.3267 114.937 63.1607 114.024C60.6635 111.178 59.0723 107.99 58.0188 104.456C57.1625 101.491 57.5572 104.328 56.3694 101.709C55.104 98.9199 52.855 99.8466 52.9354 101.859L53.0855 105.611C53.1809 107.997 52.6147 105.262 52.8899 107.268C53.1398 109.09 54.6604 110.991 51.1591 110.848C48.2088 110.751 45.158 107.956 43.7647 106.963C40.8931 104.488 40.6121 103.747 39.1095 100.791C37.1629 97.7723 36.6751 98.9012 36.09 100.386C36.0863 105.153 36.9107 107.427 39.2591 109.731C41.7637 112.189 43.684 114.297 47.0444 115.974C50.4049 117.651 53.7619 120.652 56.7761 122.139C59.5916 123.528 61.8409 126.2 62.9721 128.955C64.6394 133.015 63.9187 159.228 63.67 171.344C63.5302 178.158 63.3349 181.75 62.8206 186.029C62.5635 188.168 61.9269 190.512 61.557 191.58C59.6396 194.231 60.6785 193.81 58.0462 195.572C56.1438 196.795 55.2676 197.971 54.5024 198.751C53.1853 199.948 52.5131 201.28 51.0702 203.069C50.416 204.444 47.9375 206.184 47.8425 207.864C47.7474 209.225 48.4742 212.508 49.2567 212.707C50.5172 211.478 52.3308 211.211 52.8859 210.022C54.5379 208.754 54.0999 210.4 55.5846 209.473C56.9042 208.544 56.0587 209.146 57.7523 208.862C58.6895 208.707 58.8516 207.761 59.2146 207.779C60.5087 208.762 60.9441 207.932 61.3779 208.455C61.7109 209.234 62.5583 210.055 62.495 211.722C62.44 213.168 64.1712 213.702 65.0597 214.194C65.9482 214.687 66.8362 214.491 67.5449 214.14C68.2536 213.788 68.8513 213.26 69.3441 212.689C69.8369 212.118 69.453 210.921 69.7094 209.995C70.3864 207.657 71.13 209.203 73.0648 208.181C74.8677 208.6 75.8172 207.597 76.299 209.452C76.4712 210.368 75.9693 211.195 76.4987 212.584C76.9578 213.632 77.8074 215.934 78.6274 215.998C79.4474 216.061 81.2486 214.629 81.7844 213.375C82.2413 212.306 83.0362 212.059 83.1729 210.614C83.3431 208.816 83.196 207.963 84.6535 207.852C84.8957 207.814 88.3494 211.251 91.1159 213.042C91.6254 213.372 92.6616 213.352 94.4557 212.691C94.5877 211.091 94.2159 209.684 93.9721 207.596C92.4458 204.147 90.7262 202.967 89.0504 201.686C85.312 198.83 83.2919 197.588 80.6246 192.087C79.8225 190.433 78.8992 186.476 78.2542 180.611C77.6013 174.672 76.6613 165.82 76.195 158.58C75.7287 151.34 75.7363 143.977 75.587 137.975C75.4458 132.301 75.9174 130.029 76.1326 127.888C77.107 126.816 78.6557 124.939 80.1245 123.828C83.4598 121.307 87.7906 119.432 92.4856 117.401C95.5782 116.063 98.0159 112.943 100.186 110.514C102.356 108.085 102.01 106.734 103.143 103.584C104.242 101.704 103.722 101.328 102.938 100.118C101.25 99.1659 100.923 98.3407 100.27 99.7694C99.9672 103.021 95.7526 107.572 93.9898 108.826C91.3426 110.695 87.958 111.329 84.3398 113.224C82.556 114.157 80.6708 114.916 79.2602 115.195C78.4819 115.349 77.0519 115.638 76.4984 115.615C76.0506 115.595 74.5978 114.991 74.0727 114.502C72.1927 109.307 71.7043 111.669 71.9068 105.332L71.7664 102.516C70.5785 100.357 69.4744 99.0953 68.6833 103.571ZM69.4661 105.378C69.8967 102.742 70.3273 102.507 70.7579 104.299C70.6451 110.388 71.2651 109.887 72.4727 116.305L72.572 116.862L72.8999 117.241C73.9951 118.505 74.4556 118.248 75.636 118.295C76.8164 118.344 78.367 117.99 79.3055 117.38C81.1825 116.159 84.0394 115.546 85.0588 115.012C88.6858 113.113 91.1525 112.722 94.016 110.7C95.4478 109.689 97.953 107.256 98.9299 106.117C99.5419 105.404 100.077 103.677 100.434 102.794C100.83 100.147 101.885 101.396 102.765 101.608C102.32 103.229 101.876 106.684 99.5837 109.182C97.7227 111.211 94.3582 113.395 91.5066 115.181C85.8033 118.751 79.7667 118.062 75.9243 122.617C74.4767 124.709 74.0115 124.696 73.6432 125.824C73.3018 128.514 73.2902 133.39 73.4416 139.476C73.593 145.561 73.9346 153.122 74.4044 160.417C74.8742 167.711 74.8866 173.971 75.5509 180.013C76.0911 184.926 75.6642 187.121 76.4171 189.65C76.9937 191.587 77.8044 194.802 78.872 196.434C80.6545 199.158 86.6458 201.903 90.1208 204.513C91.5339 205.574 93.602 208.734 93.4515 210.936C92.8851 213.635 90.7444 210.608 88.9533 209.486C87.9414 208.853 86.4468 206.987 85.9013 206.292C84.923 205.045 84.0892 204.485 82.9108 203.843C82.7929 203.778 81.4795 202.502 80.64 202.013C79.7353 201.486 76.7717 199.348 76.5171 200.064C76.3353 200.575 79.1337 201.369 80.121 202.709C80.6704 203.455 80.6913 204.114 81.4299 204.939C82.1348 205.726 82.0094 206.199 81.8173 207.006C81.5201 208.254 81.9217 208.897 81.4677 210.915C81.1994 212.108 80.8375 213.488 79.1272 213.57C77.337 213.272 78.2862 209.873 78.1961 208.93C77.2235 205.468 75.2539 206.776 73.1469 204.743C71.0866 206.283 70.3734 205.005 69.03 207.433C68.3056 209.086 68.1465 210.447 67.6361 211.721C66.2283 213.667 65.9491 213.187 65.5622 212.103C65.2606 210.678 64.1275 210.728 64.0797 210.268C64.0319 209.809 63.3584 209.315 63.504 207.929C63.5339 207.382 63.621 206.944 63.6254 206.559C63.6279 206.339 64.1898 204.535 64.6157 202.963C64.7452 202.485 65.9402 202.3 66.9621 201.021C68.4688 199.135 69.9416 196.073 69.8648 195.986C69.7618 195.707 68.2369 198.728 66.5873 200.553C65.4713 201.788 64.7195 201.085 64.1476 201.979C63.5486 202.916 62.8175 204.665 62.2553 205.453C61.8 206.09 61.0502 205.651 60.7663 205.66C60.0492 205.546 58.714 206.058 57.4579 206.269C55.829 206.541 56.7393 206.178 54.2076 207.774C52.0211 209.152 52.0234 208.507 51.3671 209.02C50.2325 210.27 49.7012 209.962 49.8602 208.455C50.1368 207.319 51.3638 205.815 51.753 205.286C52.3444 204.682 54.0613 202.353 55.6482 200.837C57.598 198.975 60.1525 196.428 62.4127 196.017C63.5593 195.952 64.2762 193.351 64.8202 191.779C65.3643 190.208 65.2377 187.877 65.5164 185.559C66.0738 180.921 65.8241 171.224 66.0615 163.501C66.4255 151.665 65.6662 135.416 64.9139 129.199C64.174 123.085 60.4591 120.543 57.4411 119.03C54.3308 117.496 51.0838 115.009 47.8187 113.38C44.5536 111.751 41.9578 109.684 39.8139 107.603C38.1962 106.033 37.8575 103.762 37.3913 101.918C37.5322 100.924 37.8699 100.9 38.466 102.046C39.5921 105.284 41.6438 107.801 43.0876 108.519C44.6674 109.305 45.5279 110.131 48.547 111.725C49.8112 112.392 52.023 112.851 53.3017 112.66C53.6679 112.573 57.4374 118.131 58.789 116.282C57.4824 115.83 55.4129 114.025 54.8864 111.312C54.4388 109.726 54.2252 107.446 54.0902 106.042C53.8884 103.942 54.401 107.017 54.2307 105.021C53.9434 101.655 54.7015 99.7982 55.9006 104.219C56.4134 106.108 56.1584 102.878 56.7377 104.845C57.6927 108.944 57.2189 108.89 59.1296 112.025L61.6202 116.11C63.1247 117.332 64.408 118.927 65.7481 118.672C67.1793 117.848 67.2251 117.705 68.022 116.239C70.3284 111.997 69.8204 110.349 69.4661 105.378Z" fill="#3A0000"/>
<path fill-rule="evenodd" clip-rule="evenodd" d="M70.0326 124.627C68.3948 126.6 67.1064 129.917 66.8127 132.81C66.6597 134.318 68.0964 136.26 68.1603 138.616C68.2503 141.933 66.5484 144.963 67.1866 148.176C67.6519 150.518 68.6266 153.11 68.6526 155.408C68.668 156.778 68.4247 159.873 67.1508 162.521C67.7708 163.112 69.4142 158.239 69.5852 155.98C69.7125 153.598 68.0584 149.889 67.955 147.506C67.812 144.206 69.1694 141.184 69.1817 139.114C69.1945 136.97 67.5272 134.436 67.75 132.312C68.0001 129.929 69.2755 127.661 70.409 125.771C71.3662 124.175 74.4664 122.748 74.1579 122.11C74.1579 122.11 71.1502 123.281 70.0326 124.627Z" fill="#3B0000"/>
<path fill-rule="evenodd" clip-rule="evenodd" d="M72.9536 174.559C73.9944 172.598 74.6089 169.594 74.5019 167.141C74.4453 165.862 73.1079 164.543 72.7858 162.606C72.3322 159.878 73.3005 157.029 72.4343 154.499C71.8027 152.654 70.7474 150.703 70.4616 148.807C70.2904 147.676 70.1213 145.066 70.8021 142.618C70.2533 142.254 69.5438 146.617 69.6725 148.52C69.8493 150.517 71.5604 153.255 71.9163 155.207C72.4091 157.91 71.7066 160.683 71.9367 162.399C72.1743 164.176 73.7601 165.939 73.8331 167.741C73.9152 169.764 73.1892 171.896 72.5295 173.688C71.9724 175.2 69.7352 177.003 70.0481 177.47C70.0481 177.47 72.2433 175.897 72.9536 174.559Z" fill="#3B0000"/>
<path fill-rule="evenodd" clip-rule="evenodd" d="M61.3966 199.022C63.2166 197.993 67.306 196.414 67.8942 194.473C68.2006 193.462 66.9826 191.825 67.1623 190.183C67.4154 187.87 69.4077 186.123 69.1089 183.771C68.8909 182.056 68.1959 180.064 68.4071 178.47C68.5331 177.519 69.0923 175.429 70.6228 173.858C70.0717 173.323 67.9471 176.357 67.5455 177.884C67.1744 179.505 68.4249 182.408 68.2812 184.077C68.0824 186.388 66.4309 188.201 66.2053 189.63C65.9718 191.109 67.3565 193.203 66.9176 194.626C66.425 196.223 62.4566 197.079 61.1428 198.154C60.0335 199.062 54.4879 204.113 54.7266 204.617C54.7266 204.617 60.1546 199.723 61.3966 199.022Z" fill="#3B0000"/>
<path fill-rule="evenodd" clip-rule="evenodd" d="M69.5872 188.507C68.8368 190.623 68.8652 193.248 69.6212 195.008C70.0151 195.926 71.9614 196.067 72.8436 197.307C74.0862 199.054 73.65 201.786 75.3383 203.126C76.5693 204.103 78.3368 204.891 79.1652 206.124C79.6593 206.859 80.5305 208.698 80.3372 210.949C81.0902 210.875 80.8286 207.178 80.1873 205.841C79.4644 204.465 76.7069 203.502 75.78 202.272C74.4971 200.569 74.6328 198.06 73.9177 196.927C73.1774 195.753 70.8203 195.437 70.2719 194.141C69.6565 192.685 69.9844 190.64 70.3198 188.889C70.603 187.412 72.8328 184.661 72.3373 184.51C72.3373 184.51 70.1003 187.065 69.5872 188.507Z" fill="#3B0000"/>
<path fill-rule="evenodd" clip-rule="evenodd" d="M45.5013 87.3756C44.2853 84.2172 42.0219 82.9792 44.337 88.704C44.337 88.704 45.7655 102.272 50.2124 104.704C54.5687 107.085 61.2012 98.0745 65.9124 98.4203C71.9783 98.8656 76.0652 114.403 81.1282 110.723C85.554 107.506 95.0456 98.3249 95.0456 98.3249C98.5407 95.5503 98.9109 93.6391 94.0724 96.3756C94.0724 96.3756 85.3583 107.012 78.9627 105.956C74.9578 105.294 70.1846 97.6148 66.2611 96.3697C61.9673 95.0071 57.3056 100.999 53.1605 98.9932C49.5009 97.2226 45.5013 87.3756 45.5013 87.3756Z" fill="#174000"/>
<defs>
<radialGradient id="paint0_radial_9_36" cx="0" cy="0" r="1" gradientUnits="userSpaceOnUse" gradientTransform="translate(16.5426 144.503) scale(13.4129 12.9003)">
<stop stop-color="#FBF7F2"/>
<stop offset="0.227891" stop-color="#FBF7F2"/>
<stop offset="0.436443" stop-color="#E9E2D9"/>
<stop offset="0.644996" stop-color="#FBF7F2"/>
<stop offset="0.816745" stop-color="#EEE8E0"/>
<stop offset="1" stop-color="#FBF7F2"/>
</radialGradient>
<radialGradient id="paint1_radial_9_36" cx="0" cy="0" r="1" gradientUnits="userSpaceOnUse" gradientTransform="translate(59.4595 145.829) scale(28.1172 10.3326)">
<stop stop-color="#1B1B1B"/>
<stop offset="0.400345" stop-color="#433333"/>
<stop offset="0.64298" stop-color="#4B3535"/>
<stop offset="1" stop-color="#433D3D"/>
</radialGradient>
<radialGradient id="paint2_radial_9_36" cx="0" cy="0" r="1" gradientUnits="userSpaceOnUse" gradientTransform="translate(12.1723 131.904) rotate(-37.3865) scale(24.3158 16.3057)">
<stop stop-color="#666666"/>
<stop offset="0.213935" stop-color="#9E9E9E"/>
<stop offset="0.524202" stop-color="#8C8C8C"/>
<stop offset="1" stop-color="#737373"/>
</radialGradient>
<radialGradient id="paint3_radial_9_36" cx="0" cy="0" r="1" gradientUnits="userSpaceOnUse" gradientTransform="translate(29.2851 135.622) rotate(-37.9964) scale(24.2796 13.6369)">
<stop stop-color="#151515"/>
<stop offset="0.336183" stop-color="#9E9E9E"/>
<stop offset="0.524202" stop-color="#8C8C8C"/>
<stop offset="1" stop-color="#737373"/>
</radialGradient>
<linearGradient id="paint4_linear_9_36" x1="28.6062" y1="123.336" x2="24.8141" y2="131.086" gradientUnits="userSpaceOnUse">
<stop stop-color="#3C342A"/>
<stop offset="1" stop-color="#896F4E" stop-opacity="0.0660919"/>
</linearGradient>
<radialGradient id="paint5_radial_9_36" cx="0" cy="0" r="1" gradientUnits="userSpaceOnUse" gradientTransform="translate(8.96425 147.996) rotate(-2.50716) scale(3.7069 1.42174)">
<stop stop-color="#D7D7D7"/>
<stop offset="0.294307" stop-color="#737373"/>
<stop offset="0.582749" stop-color="#737373"/>
<stop offset="1" stop-color="#737373"/>
</radialGradient>
<linearGradient id="paint6_linear_9_36" x1="72.3512" y1="174.413" x2="71.0274" y2="186.191" gradientUnits="userSpaceOnUse">
<stop stop-color="#6A5847"/>
<stop offset="0.465474" stop-color="#847362"/>
<stop offset="1" stop-color="#D5C7BA"/>
</linearGradient>
<linearGradient id="paint7_linear_9_36" x1="36.5148" y1="172.901" x2="31.7128" y2="176.339" gradientUnits="userSpaceOnUse">
<stop stop-color="#695644"/>
<stop offset="1" stop-color="#D5C7BA"/>
</linearGradient>
<radialGradient id="paint8_radial_9_36" cx="0" cy="0" r="1" gradientUnits="userSpaceOnUse" gradientTransform="translate(92.5952 187.93) rotate(6.83288) scale(9.95529 25.355)">
<stop stop-color="#262626"/>
<stop offset="0.309543" stop-color="#262626"/>
<stop offset="0.634543" stop-color="#715A4D"/>
<stop offset="1" stop-color="#72584C"/>
</radialGradient>
<radialGradient id="paint9_radial_9_36" cx="0" cy="0" r="1" gradientUnits="userSpaceOnUse" gradientTransform="translate(5.98483 125.211) rotate(58.3233) scale(13.0067 11.9077)">
<stop stop-color="#3C342A"/>
<stop offset="1" stop-color="#896F4E" stop-opacity="0.0660919"/>
</radialGradient>
<radialGradient id="paint10_radial_9_36" cx="0" cy="0" r="1" gradientUnits="userSpaceOnUse" gradientTransform="translate(27.4846 155.012) rotate(-33.9008) scale(31.5944 12.6343)">
<stop stop-color="#6A5847"/>
<stop offset="0.465474" stop-color="#847362"/>
<stop offset="1" stop-color="#D5C7BA"/>
</radialGradient>
</defs>
</svg>
