<svg width="68" height="93" viewBox="0 0 68 93" fill="none" xmlns="http://www.w3.org/2000/svg">
<path d="M34.414 85.5815L34.364 82.6815H52.114V84.6815L34.414 85.5815Z" fill="#916B4E"/>
<path d="M34.414 92.3315V85.5815L52.114 84.6815L50.564 87.3315H52.114C53.314 87.9315 54.3973 88.8815 55.364 90.1815V92.3315H34.414Z" fill="#AA7E5C"/>
<path d="M34.364 82.6815V79.2815H52.114V82.6815H34.364Z" fill="#E0C1A2"/>
<path d="M36.914 71.8315C38.6473 70.1648 40.7473 69.3315 43.214 69.3315H43.264C45.7307 69.3315 47.814 70.1648 49.514 71.8315C51.2473 73.5315 52.114 75.5981 52.114 78.0315V79.2815H34.364V78.0315C34.364 75.5981 35.214 73.5315 36.914 71.8315Z" fill="#ECCFB1"/>
<path d="M31.164 85.5815L31.214 82.6815H13.464V84.6815L31.164 85.5815Z" fill="#916B4E"/>
<path d="M31.164 92.3315V85.5815L13.464 84.6815L15.014 87.3315H13.464C12.264 87.9315 11.1807 88.8815 10.214 90.1815V92.3315H31.164Z" fill="#AA7E5C"/>
<path d="M31.214 82.6815V79.2815H13.464V82.6815H31.214Z" fill="#E0C1A2"/>
<path d="M28.664 71.8315C26.9307 70.1648 24.8307 69.3315 22.364 69.3315H22.314C19.8474 69.3315 17.764 70.1648 16.064 71.8315C14.3307 73.5315 13.464 75.5981 13.464 78.0315V79.2815H31.214V78.0315C31.214 75.5981 30.364 73.5315 28.664 71.8315Z" fill="#ECCFB1"/>
<path d="M12.764 77.6315V73.5815H38.364H49.314H51.764V77.6315H12.764ZM43.864 49.0315C44.2973 48.2649 44.7973 47.4649 45.364 46.6315H51.764V64.0815C43.164 62.6149 39.9973 58.7315 42.264 52.4315L44.564 51.2315C44.464 50.4649 44.2307 49.7315 43.864 49.0315ZM12.764 46.6315H18.864C17.9307 48.7315 17.7307 50.9315 18.264 53.2315C19.064 57.3315 17.2307 59.9482 12.764 61.0815V46.6315Z" fill="#B8824D"/>
<path d="M30.164 58.5315L18.864 46.6315H42.064L30.164 58.5315Z" fill="#E0C79A"/>
<path d="M18.264 53.2315C17.7307 50.9315 17.9307 48.7315 18.864 46.6315L30.164 58.5315L18.264 53.2315ZM43.864 49.0315C44.2307 49.7315 44.464 50.4649 44.564 51.2315L42.264 52.4315L30.164 58.5315L42.064 46.6315C42.8307 47.3649 43.4307 48.1649 43.864 49.0315Z" fill="#637480"/>
<path d="M42.264 52.4315C39.9973 58.7315 43.164 62.6149 51.764 64.0815V73.5815H49.314L42.064 68.5315L38.364 73.5815H12.764V61.0815C17.2307 59.9482 19.064 57.3315 18.264 53.2315L30.164 58.5315L42.264 52.4315ZM29.014 62.1315C29.3473 61.8315 29.514 61.4815 29.514 61.0815C29.514 60.6815 29.3473 60.3149 29.014 59.9815C28.714 59.6815 28.364 59.5315 27.964 59.5315C27.564 59.5315 27.214 59.6815 26.914 59.9815C26.614 60.3149 26.464 60.6815 26.464 61.0815C26.464 61.4815 26.614 61.8315 26.914 62.1315C27.214 62.4315 27.564 62.5815 27.964 62.5815C28.364 62.5815 28.714 62.4315 29.014 62.1315ZM30.364 66.4315C27.964 66.4315 25.914 66.6482 24.214 67.0815C22.6807 67.5149 21.8307 67.9982 21.664 68.5315H39.014C38.8807 67.9982 38.0473 67.5149 36.514 67.0815C34.814 66.6482 32.764 66.4315 30.364 66.4315ZM45.364 46.6315C44.7973 47.4649 44.2973 48.2649 43.864 49.0315C43.4307 48.1649 42.8307 47.3649 42.064 46.6315H45.364Z" fill="#7E95A3"/>
<path d="M24.214 67.0815C25.914 66.6482 27.964 66.4315 30.364 66.4315C32.764 66.4315 34.814 66.6482 36.514 67.0815C38.0473 67.5149 38.8807 67.9982 39.014 68.5315H21.664C21.8307 67.9982 22.6807 67.5149 24.214 67.0815Z" fill="#738895"/>
<path d="M29.514 61.0816C29.514 61.4816 29.3473 61.8316 29.014 62.1316C28.714 62.4316 28.364 62.5816 27.964 62.5816C27.564 62.5816 27.214 62.4316 26.914 62.1316C26.614 61.8316 26.464 61.4816 26.464 61.0816C26.464 60.6816 26.614 60.3149 26.914 59.9816C27.214 59.6816 27.564 59.5316 27.964 59.5316C28.364 59.5316 28.714 59.6816 29.014 59.9816C29.3473 60.3149 29.514 60.6816 29.514 61.0816ZM42.064 68.5316L49.314 73.5816H38.364L42.064 68.5316Z" fill="#E7E2DA"/>
<path d="M47.6797 61.966C47.6445 61.9124 47.6128 61.8586 47.5847 61.8046L61.3465 55.5948C62.815 56.6621 63.3315 58.2677 62.8958 60.4116L61.8349 60.509L47.6797 61.966Z" fill="#E7E2DA"/>
<path d="M47.1252 62.0211L45.9532 59.5791L60.1629 53.1092C61.0934 53.2335 61.488 54.0621 61.3465 55.5948L47.5848 61.8046L47.1252 62.0211Z" fill="#637480"/>
<path d="M61.8349 60.509C62.9292 63.5936 63.7861 66.7274 64.4055 69.9103C62.893 72.1218 60.754 73.8627 57.9886 75.1331C53.7376 71.373 50.3013 66.984 47.6797 61.9659L61.8349 60.509Z" fill="#FFE0B1"/>
<path d="M44.3023 51.0992C45.0733 49.2109 46.4462 47.8309 48.4212 46.9592L48.4695 46.9463C48.8403 46.7846 49.2028 46.6564 49.557 46.5615C52.7856 45.603 56.3209 47.7856 60.1629 53.1092L45.9532 59.5791L44.4846 56.6092C43.5999 54.8531 43.5392 53.0164 44.3023 51.0992Z" fill="#7E95A3"/>
<path d="M50.6022 77.0127C50.9072 73.5145 51.6588 70.8458 52.8569 69.0064L62.8381 68.972C63.6626 68.9582 64.0892 69.327 64.118 70.0785L64.1155 70.6485C64.4645 78.9062 62.2621 83.0507 57.5083 83.0821C55.8271 83.1185 54.1059 82.9412 52.3447 82.5503C51.1764 82.3112 50.5853 81.7794 50.5714 80.9549L50.555 80.7005C50.5624 79.6978 50.5784 78.7272 50.6031 77.7889L50.616 77.8372L50.6022 77.0127ZM62.9099 72.5245C62.8645 72.2261 62.4111 71.9507 61.5498 71.6983C60.7206 71.4374 59.707 71.2603 58.5087 71.1673C57.2869 71.115 56.2767 71.1441 55.4781 71.2546C54.6237 71.4145 54.2149 71.6276 54.2517 71.8938C54.265 72.2008 54.6861 72.4848 55.5153 72.7458C56.353 73.0389 57.3871 73.2277 58.6175 73.3122C59.8158 73.4052 60.826 73.3761 61.6482 73.2249C62.5026 73.065 62.9232 72.8315 62.9099 72.5245Z" fill="#FFE0B1"/>
<path d="M61.5498 71.6983C62.4111 71.9507 62.8645 72.226 62.9099 72.5244C62.9232 72.8315 62.5026 73.0649 61.6482 73.2248C60.826 73.3761 59.8158 73.4052 58.6175 73.3122C57.3871 73.2277 56.353 73.0389 55.5153 72.7457C54.6861 72.4848 54.265 72.2008 54.2517 71.8937C54.2149 71.6275 54.6237 71.4145 55.4781 71.2546C56.2767 71.1441 57.2869 71.115 58.5087 71.1672C59.707 71.2603 60.7206 71.4373 61.5498 71.6983ZM50.6031 77.7889C47.8563 75.5225 48.6076 72.595 52.8569 69.0063C51.6588 70.8458 50.9072 73.5145 50.6022 77.0126L50.616 77.8371L50.6031 77.7889Z" fill="#E7CBA0"/>
<path d="M19.3983 60.966C19.4335 60.9124 19.4652 60.8586 19.4933 60.8046L5.73154 54.5948C4.26297 55.6621 3.74652 57.2677 4.18217 59.4116L5.2431 59.509L19.3983 60.966Z" fill="#E7E2DA"/>
<path d="M19.9528 61.0211L21.1248 58.5791L6.91513 52.1092C5.98457 52.2335 5.59003 53.0621 5.73151 54.5948L19.4932 60.8046L19.9528 61.0211Z" fill="#637480"/>
<path d="M5.24311 59.509C4.1488 62.5936 3.29191 65.7274 2.67246 68.9103C4.18498 71.1218 6.32396 72.8627 9.08939 74.1331C13.3404 70.373 16.7767 65.984 19.3983 60.9659L5.24311 59.509Z" fill="#FFE0B1"/>
<path d="M22.7757 50.0992C22.0047 48.2109 20.6318 46.8309 18.6568 45.9592L18.6085 45.9463C18.2377 45.7846 17.8752 45.6564 17.521 45.5615C14.2924 44.603 10.7571 46.7856 6.91515 52.1092L21.1248 58.5791L22.5934 55.6092C23.4781 53.8531 23.5388 52.0164 22.7757 50.0992Z" fill="#7E95A3"/>
<path d="M16.4258 76.4627C16.1208 72.9646 15.3692 70.2958 14.1711 68.4564L4.18994 68.422C3.36544 68.4082 2.93878 68.777 2.90998 69.5285L2.91253 70.0986C2.56351 78.3562 4.76592 82.5007 9.51975 82.5321C11.2009 82.5685 12.9221 82.3912 14.6833 82.0004C15.8516 81.7613 16.4427 81.2295 16.4566 80.405L16.473 80.1505C16.4656 79.1478 16.4496 78.1772 16.4249 77.2389L16.412 77.2872L16.4258 76.4627ZM4.1181 71.9745C4.16355 71.6761 4.61693 71.4007 5.47825 71.1483C6.30737 70.8874 7.32105 70.7103 8.51929 70.6173C9.7411 70.5651 10.7513 70.5942 11.5499 70.7046C12.4043 70.8645 12.8131 71.0776 12.7763 71.3438C12.7631 71.6508 12.3419 71.9348 11.5127 72.1958C10.675 72.489 9.6409 72.6778 8.41047 72.7622C7.21223 72.8553 6.20201 72.8261 5.37982 72.6749C4.52543 72.515 4.10486 72.2815 4.1181 71.9745Z" fill="#FFE0B1"/>
<path d="M5.47825 71.1483C4.61693 71.4007 4.16354 71.676 4.1181 71.9744C4.10486 72.2815 4.52543 72.5149 5.37982 72.6748C6.20201 72.8261 7.21223 72.8552 8.41047 72.7622C9.6409 72.6777 10.675 72.4889 11.5127 72.1958C12.3419 71.9348 12.763 71.6508 12.7763 71.3437C12.8131 71.0775 12.4043 70.8645 11.5499 70.7046C10.7513 70.5941 9.7411 70.565 8.51929 70.6173C7.32105 70.7103 6.30737 70.8873 5.47825 71.1483ZM16.4249 77.2389C19.1717 74.9725 18.4204 72.045 14.1711 68.4564C15.3692 70.2958 16.1208 72.9645 16.4258 76.4627L16.412 77.2872L16.4249 77.2389Z" fill="#E7CBA0"/>
<path d="M33.414 53.7316C30.614 53.7316 28.2306 53.0816 26.264 51.7816C25.0973 51.0149 24.2806 50.1482 23.814 49.1816H43.014C42.5473 50.1482 41.7306 51.0149 40.564 51.7816C38.5973 53.0816 36.214 53.7316 33.414 53.7316Z" fill="#D7BD93"/>
<path d="M14.0639 44.6315C14.0306 44.4649 13.9973 44.3149 13.964 44.1816C13.5973 41.6482 13.3806 39.0982 13.3139 36.5316C14.0806 40.6649 16.014 42.1982 19.114 41.1315C23.214 39.3649 27.9973 38.4816 33.464 38.4816C37.564 38.4816 41.2639 38.9816 44.5639 39.9816C45.3639 40.2149 46.1473 40.4816 46.914 40.7816C50.3806 42.3816 53.1973 39.4316 55.364 31.9316C55.5307 36.1649 55.2973 40.4149 54.664 44.6816C54.5973 45.0482 54.514 45.3816 54.414 45.6816C54.314 46.1482 54.1473 46.5649 53.914 46.9316C53.0806 48.4316 51.6306 49.1816 49.5639 49.1816H43.014H23.8139H19.214C16.414 49.1816 14.7306 47.8482 14.164 45.1816C14.1306 44.9816 14.0973 44.7982 14.0639 44.6315Z" fill="#E7E2DA"/>
<path d="M54.664 24.0815C55.0307 26.6815 55.264 29.2982 55.364 31.9316C53.1973 39.4316 50.3807 42.3816 46.914 40.7816C46.1473 40.4816 45.364 40.2149 44.564 39.9816C41.264 38.9816 37.564 38.4816 33.464 38.4816C27.9973 38.4816 23.214 39.3649 19.114 41.1315C16.014 42.1982 14.0806 40.6649 13.314 36.5316C13.2806 34.7316 13.2973 32.9149 13.364 31.0815C13.4973 28.7482 13.7473 26.3816 14.114 23.9816C14.5473 21.0149 16.2473 19.5316 19.214 19.5316H49.564C52.4973 19.5316 54.1973 21.0482 54.664 24.0815Z" fill="#FFE0B1"/>
<path d="M25.314 27.0315L25.964 30.2315H17.164C18.9973 27.9315 21.714 26.8649 25.314 27.0315ZM36.814 31.3315L37.464 28.1315C41.064 27.9649 43.7807 29.0315 45.614 31.3315H36.814Z" fill="#544B4B"/>
<path d="M41.814 33.4816C41.8807 33.7816 41.914 34.0982 41.914 34.4316C41.914 35.2982 41.714 36.0316 41.314 36.6316C41.214 36.7649 41.114 36.8816 41.014 36.9816C40.6473 37.3816 40.2307 37.5816 39.764 37.5816C39.2973 37.5816 38.8807 37.3816 38.514 36.9816C38.414 36.8816 38.3307 36.7649 38.264 36.6316C37.8307 36.0316 37.614 35.2982 37.614 34.4316C37.614 34.0982 37.6473 33.7816 37.714 33.4816H41.814ZM20.764 34.4316C20.764 34.0982 20.7973 33.7816 20.864 33.4816H24.964C25.0307 33.7816 25.064 34.0982 25.064 34.4316C25.064 35.2982 24.864 36.0316 24.464 36.6316C24.364 36.7649 24.264 36.8816 24.164 36.9816C23.7973 37.3816 23.3807 37.5816 22.914 37.5816C22.4473 37.5816 22.0307 37.3816 21.664 36.9816C21.564 36.8816 21.4807 36.7649 21.414 36.6316C20.9807 36.0316 20.764 35.2982 20.764 34.4316ZM26.364 40.1816C26.564 40.0482 26.764 39.9816 26.964 39.9816H29.814V42.9816H36.814C36.614 43.3149 36.364 43.6149 36.064 43.8816C34.864 45.0816 33.4473 45.6816 31.814 45.6816C30.1807 45.6816 28.7807 45.0982 27.614 43.9316L27.564 43.8816C27.064 43.3816 26.664 42.8316 26.364 42.2316C26.1973 41.9316 26.064 41.6149 25.964 41.2816C25.9307 41.0482 25.9473 40.8482 26.014 40.6816C26.0807 40.4482 26.1973 40.2816 26.364 40.1816Z" fill="#7F7058"/>
<path d="M41.914 34.4316C41.914 34.0982 41.8807 33.7816 41.814 33.4816H44.064C44.1307 33.7816 44.164 34.0982 44.164 34.4316C44.164 35.4316 43.864 36.2816 43.264 36.9816C43.2307 37.0149 43.1973 37.0482 43.164 37.0816C42.4307 37.8482 41.5473 38.2316 40.514 38.2316C39.4807 38.2316 38.6307 37.8482 37.964 37.0816C37.9307 37.0482 37.8973 37.0149 37.864 36.9816C37.1973 36.2816 36.864 35.4316 36.864 34.4316C36.864 34.0982 36.8973 33.7816 36.964 33.4816H37.714C37.6473 33.7816 37.614 34.0982 37.614 34.4316C37.614 35.2982 37.8307 36.0316 38.264 36.6316C38.3307 36.7649 38.414 36.8816 38.514 36.9816C38.8807 37.3816 39.2973 37.5816 39.764 37.5816C40.2307 37.5816 40.6473 37.3816 41.014 36.9816C41.114 36.8816 41.214 36.7649 41.314 36.6316C41.714 36.0316 41.914 35.2982 41.914 34.4316ZM20.864 33.4816C20.7973 33.7816 20.764 34.0982 20.764 34.4316C20.764 35.2982 20.9807 36.0316 21.414 36.6316C21.4807 36.7649 21.564 36.8816 21.664 36.9816C22.0307 37.3816 22.4473 37.5816 22.914 37.5816C23.3807 37.5816 23.7973 37.3816 24.164 36.9816C24.264 36.8816 24.364 36.7649 24.464 36.6316C24.864 36.0316 25.064 35.2982 25.064 34.4316C25.064 34.0982 25.0307 33.7816 24.964 33.4816H25.464C25.5307 33.7816 25.564 34.0982 25.564 34.4316C25.564 35.4316 25.264 36.2816 24.664 36.9816C24.6307 37.0149 24.5973 37.0482 24.564 37.0816C23.8307 37.8482 22.9473 38.2316 21.914 38.2316C20.8807 38.2316 20.0307 37.8482 19.364 37.0816C19.3307 37.0482 19.2973 37.0149 19.264 36.9816C18.5973 36.2816 18.264 35.4316 18.264 34.4316C18.264 34.0982 18.2973 33.7816 18.364 33.4816H20.864ZM29.814 42.9816V39.9816H36.664C36.864 39.9816 37.0473 40.0482 37.214 40.1816C37.414 40.2816 37.5473 40.4482 37.614 40.6816C37.6807 40.8482 37.6807 41.0482 37.614 41.2816C37.5473 41.6149 37.4307 41.9316 37.264 42.2316C37.1307 42.4982 36.9807 42.7482 36.814 42.9816H29.814Z" fill="white"/>
<path d="M31.164 22.7315C26.3574 23.789 21.2074 23.8556 15.714 22.9315L19.814 4.18154C19.6735 2.77672 19.3069 1.74339 18.714 1.08154C33.0523 4.70029 43.169 11.7336 49.064 22.1815C45.5087 20.3492 41.8087 19.8659 37.964 20.7315C35.9509 21.3136 34.2509 22.4969 32.864 24.2815L31.164 22.7315Z" fill="#544B4B"/>
<path d="M19.814 4.18153L15.714 22.9315L13.314 31.0815L12.214 14.3315L19.814 4.18153ZM18.714 1.08153C18.3109 0.654317 17.8109 0.387651 17.214 0.281532C22.9474 -0.551802 29.5974 0.464864 37.164 3.33153C37.3307 3.36486 37.4974 3.41486 37.664 3.48153C41.464 4.61486 45.814 6.31486 50.714 8.58153L51.964 11.6815L55.064 10.3315L58.064 17.0815C59.9307 22.0815 58.9307 28.7482 55.064 37.0815L49.064 22.1815C43.169 11.7336 33.0523 4.70028 18.714 1.08153Z" fill="#5D5454"/>
</svg>
