<svg width="117" height="185" viewBox="0 0 117 185" fill="none" xmlns="http://www.w3.org/2000/svg">
<path d="M48.0153 0.00944936C48.6473 0.0270518 49.2614 0.0770835 49.8584 0.185625C51.4518 0.475304 56.8625 0.64327 62.6791 1.63571C68.4961 2.6281 74.9603 4.44377 79.3895 8.54744C80.3848 9.46953 82.104 11.5904 84.4853 14.5645C86.8667 17.5387 89.772 21.2564 92.6439 24.959C95.5161 28.6614 98.3577 32.3408 100.586 35.2316C102.814 38.1221 104.479 40.2851 104.841 40.7201C105.7 41.7503 106.933 43.102 108.107 44.2165C109.282 45.3309 110.605 46.2045 110.75 46.2493C111.744 46.5551 112.742 46.9607 113.515 47.9432C113.708 48.1889 113.906 48.4918 113.989 48.919C114.072 49.3461 113.978 49.9 113.732 50.3013C113.239 51.1038 112.535 51.3316 111.739 51.521C110.268 51.8712 108.838 51.8542 107.647 51.8056C106.455 51.7569 105.441 51.7011 105.058 51.7649C103.676 51.9953 101.737 52.4416 99.5553 51.8598C98.974 51.7048 98.2871 51.6757 97.6714 51.6565C97.6649 51.7617 97.6893 51.8416 97.6714 51.9547C97.5451 52.7566 96.7565 53.7857 95.7063 54.0281C94.8449 54.2268 94.1318 54.1678 93.5243 54.0416C93.1204 54.5042 92.5724 54.9053 91.8031 55.18C90.7768 55.5465 89.8849 55.6032 89.2552 55.6407C88.6255 55.6783 88.3003 55.7042 87.9542 55.8576C85.6269 56.8884 82.1826 59.9965 81.2728 61.0073C81.1364 61.1589 80.3722 61.9512 80.0394 62.3219C81.0359 62.2198 81.8044 62.104 82.7907 62.5522C84.1385 63.1648 85.2859 64.3126 86.2873 65.5472C86.788 66.1645 87.2354 66.8062 87.5748 67.431C87.9142 68.0557 88.1982 68.6199 88.1982 69.4366C88.1982 69.3538 88.4072 70.0278 88.8488 70.8054C89.184 71.3956 89.5724 72.1179 89.8923 72.906C90.3238 73.0562 90.809 73.2182 91.0443 73.2854C91.9672 73.5491 92.6696 74.2532 93.0772 75.0607C93.3457 75.5928 93.4732 76.1932 93.538 76.8225C94.9489 77.5304 96.4975 78.3049 97.8883 78.9637C98.7011 79.3487 99.4565 79.6895 100.057 79.9394C100.657 80.1894 101.166 80.3517 101.209 80.3596C101.52 80.4161 102.008 80.2868 102.794 79.9394C103.365 79.6877 104.905 79.3647 106.153 79.3598C108.959 79.5461 113.707 79.7583 115.319 80.4165C117.96 81.4953 116.555 83.4358 116.403 85.571C116.213 88.2298 117.378 90.1145 116.867 92.043C116.29 94.2213 113.515 94.2897 112.094 94.687C110.829 95.0406 110.282 92.3613 110.095 92.1967C109.415 91.596 107.521 92.7129 107.268 93.4821C106.772 94.9961 106.76 96.5547 106.22 96.679C105.683 96.8027 105.048 96.5704 104.529 96.5952C104.084 96.4796 103.775 96.4229 102.984 96.1209C102.374 95.8878 101.745 95.6103 101.168 95.2129C100.591 94.8155 99.8535 94.2154 99.8535 93.0987C99.8535 92.5198 99.9601 91.9824 100.043 91.2964C100.126 90.6103 100.205 89.8393 100.206 89.1009C100.207 88.3626 100.12 87.6717 99.9483 87.1766C99.7763 86.6814 99.5679 86.4104 99.2436 86.2279C97.7158 85.3686 94.6443 83.7603 92.0609 82.4063C91.8002 82.7994 91.507 83.1703 91.1393 83.4904C90.3644 84.1651 89.0674 84.5698 87.9273 84.1138C87.5037 83.9444 86.7866 83.6993 86.1383 83.4633C85.9861 84.0783 85.5537 85.2637 84.4036 85.9027C82.9653 86.7016 81.733 87.0073 81.2187 87.1223C81.0143 87.3344 80.756 87.6101 80.148 88.1116C79.3441 88.7748 78.4642 89.6294 76.9495 89.6294C75.8552 89.6294 74.2856 89.3083 72.4227 88.7756C70.5601 88.243 68.6143 87.5582 67.2453 86.4176C66.5723 85.8568 65.7428 84.9129 64.8465 83.8427C64.5616 84.2923 64.266 84.8096 63.9927 85.1979C63.3735 86.0777 62.8733 86.7577 62.1224 87.2714C60.2138 88.5772 58.6583 91.1205 58.5716 92.8548C58.5417 93.4522 58.8467 94.6935 59.1408 95.8633C59.2879 96.4482 59.4378 97.0248 59.4661 97.6522C59.4943 98.2795 59.3795 99.1976 58.5852 99.7934C57.6938 100.462 56.7889 100.609 55.9831 100.715C56.0375 100.982 56.0908 101.308 56.1457 101.528C56.2697 102.025 56.4218 102.334 56.3761 102.287C56.4052 102.315 56.4199 102.328 56.4574 102.355C56.6275 102.475 56.8921 102.65 57.2299 102.856C57.9054 103.269 58.8637 103.816 59.9946 104.442C62.2566 105.693 65.2253 107.255 68.2213 108.805C71.217 110.355 74.2352 111.893 76.5966 113.061C77.7775 113.644 78.8036 114.138 79.5647 114.497C80.3258 114.856 80.9785 115.114 80.8658 115.08C81.8972 115.397 85.8159 116.841 89.9324 118.4C91.9907 119.18 94.0445 119.973 95.7057 120.636C97.3671 121.299 98.5073 121.743 99.2023 122.14C100.372 122.809 101.118 123.862 101.235 125.013C101.352 126.165 100.606 127.491 99.3785 127.859C98.9536 127.987 98.3642 128.28 97.9283 128.578C97.4925 128.875 97.2919 129.274 97.3591 129.038C97.3865 128.942 97.4713 129.115 97.4133 129.933C97.3553 130.75 96.7675 131.71 95.7463 132.44C95.5538 132.577 94.3808 133.579 92.9951 134.825C91.6093 136.071 89.8852 137.636 88.143 139.175C86.401 140.714 84.6443 142.228 83.1556 143.403C82.4112 143.991 81.7322 144.491 81.1362 144.88C80.5402 145.27 80.1352 145.578 79.3608 145.707C79.1739 145.738 78.0821 146.137 77.3415 146.385C81.7261 151.767 85.9281 157.749 86.7876 158.988C86.8892 158.906 86.9765 158.776 87.0858 158.703C87.3883 158.503 87.7098 158.333 88.1429 158.229C88.576 158.125 89.3452 158.049 89.9725 158.676C90.3042 159.008 90.3538 159.198 90.4469 159.408C90.54 159.618 90.6132 159.836 90.6909 160.072C90.8463 160.545 90.9977 161.096 91.1381 161.671C91.4189 162.821 91.6499 163.995 91.7344 164.761C91.7146 164.582 91.7999 165.018 91.9512 165.479C92.1026 165.94 92.3206 166.55 92.5882 167.268C93.1235 168.704 93.8549 170.554 94.6483 172.431C95.4416 174.309 96.3 176.217 97.0877 177.811C97.8754 179.405 98.6477 180.723 99.0122 181.159C99.4341 181.662 99.4825 182.577 99.2562 183.069C99.0299 183.561 98.7237 183.807 98.4159 184.032C97.8003 184.48 97.0692 184.766 96.2339 184.912C95.3987 185.059 94.4603 185.051 93.5234 184.668C92.5865 184.286 91.71 183.44 91.3143 182.283C90.6842 180.442 90.2661 177.83 89.6066 175.128C88.9472 172.426 88.0378 169.692 86.7741 167.959C86.6926 167.843 86.6284 167.714 86.5844 167.58C82.1417 162.766 78.2984 156.347 73.33 151.06C73.317 151.046 73.3025 151.033 73.2894 151.019C73.2894 151.014 73.2894 151.01 73.2894 151.005C73.2849 151.005 73.2804 151.005 73.2759 151.005C72.8635 150.568 72.4653 150.135 72.0561 149.731C72.0705 149.746 72.0102 149.709 71.8935 149.596C71.6787 149.386 71.4986 149.19 71.3243 149.027C71.3167 149.02 71.2665 148.99 71.1888 148.918C71.1043 148.84 71.0277 148.765 70.9448 148.688C70.0669 149.011 69.1795 149.344 68.4511 149.582C67.4811 149.9 66.8564 150.152 65.9845 150.152C65.122 150.152 64.2776 149.968 63.5179 149.596C62.8653 149.277 62.2085 148.772 61.8781 147.956L60.455 145.951C59.1835 146.275 55.9703 147.308 52.4049 148.214C50.5198 148.693 48.5875 149.118 46.8078 149.352C45.0279 149.587 43.4262 149.683 42.0238 149.271C40.1149 148.709 37.9975 147.768 36.2909 146.777C35.4376 146.282 34.6909 145.785 34.0953 145.246C33.7975 144.976 33.5342 144.704 33.3093 144.351C33.1678 144.13 33.0631 143.828 32.9975 143.498L31.8998 141.099C30.4832 141.108 28.9285 141.108 27.3461 141.004C26.4113 140.943 25.5271 140.856 24.6897 140.72C25.6843 146.25 25.6628 151.558 26.1534 156.765C26.1647 156.776 26.1837 156.796 26.1941 156.806C26.3018 156.906 26.5152 157.023 26.2212 156.846C26.6476 157.098 26.9254 157.584 26.9259 158.08C26.9259 158.08 26.9303 158.894 26.7768 159.787C26.7001 160.234 26.5866 160.709 26.3432 161.21C26.0997 161.711 25.6083 162.387 24.7033 162.538C23.8869 162.674 23.5924 162.421 23.2396 162.24C22.8868 162.059 22.5504 161.828 22.1689 161.562C21.4059 161.032 20.5062 160.336 19.5397 159.584C17.6067 158.08 15.3589 156.365 13.7799 155.572C12.2 154.78 9.66037 154.084 7.38299 153.472C6.2443 153.166 5.15995 152.879 4.23875 152.564C3.31756 152.249 2.57851 152.024 1.88058 151.276C1.49923 150.868 1.27809 150.285 1.27072 149.772C1.26334 149.26 1.41079 148.82 1.59598 148.444C1.96636 147.692 2.52121 147.106 3.1681 146.56C4.46187 145.469 6.01938 144.517 7.84369 144.663C8.46555 144.713 8.90466 144.895 9.44291 145.137C9.98116 145.379 10.5811 145.697 11.2183 146.059C12.4927 146.784 13.9403 147.702 15.3249 148.62C17.6643 150.171 19.1619 151.259 19.7701 151.696C19.8921 151.623 20.0251 151.568 20.1632 151.534C20.0612 148.869 19.2931 145.159 17.8592 140.665C17.7181 140.223 17.5658 139.756 17.412 139.297C12.1726 138.196 6.23629 135.248 4.3337 134.201C1.2203 132.489 0.0781424 128.767 0.0781424 128.767C-0.0635996 128.363 -0.0123161 127.897 0.21367 127.534C0.21367 127.534 2.20429 124.26 4.30659 120.717C5.35777 118.945 6.44117 117.1 7.30174 115.581C8.16231 114.061 8.83408 112.754 8.94159 112.477C9.49836 111.046 10.6458 109.607 12.2214 108.263C13.7969 106.919 15.8184 105.702 18.1438 105.037C19.9337 104.526 24.0059 102.649 27.6034 100.728C29.4022 99.7671 31.1102 98.7866 32.4282 97.963C33.5428 97.2665 34.1524 96.7575 34.3797 96.5807C34.3709 96.4507 34.3458 96.3116 34.3391 96.1877C34.0004 95.9572 33.6645 95.7252 33.3498 95.4423C32.6899 95.9978 31.9225 96.4312 30.9238 96.391C30.1941 96.3645 29.5467 95.6982 29.5414 94.968C28.486 94.0446 24.7917 90.8012 22.5209 88.5307C20.7573 86.7672 19.2591 85.8415 18.4416 85.3731C18.2923 85.4993 18.285 85.4503 18.0756 85.7119C17.5245 86.4009 17.0228 86.3841 16.6119 86.4438C16.2011 86.5034 15.7901 86.5113 15.338 86.498C14.4338 86.4712 13.3744 86.3539 12.3157 86.2134C11.257 86.0729 10.2073 85.9085 9.36121 85.7797C8.51513 85.6509 7.71082 85.5764 7.8162 85.5764C7.25475 85.5764 6.82167 85.2702 6.59646 85.0343C6.37126 84.7985 6.25839 84.5852 6.16277 84.3839C5.97153 83.9811 5.86358 83.5823 5.75618 83.1235C5.54137 82.206 5.3844 81.0855 5.25474 79.9253C4.99539 77.6048 4.86171 75.2994 4.86171 74.5045C4.86171 73.388 5.41024 72.9257 5.91883 72.3904C6.42741 71.8551 7.0488 71.3591 7.7349 70.9132C8.42099 70.4673 9.16685 70.0775 9.93044 69.8291C10.694 69.5806 11.5225 69.3832 12.4648 69.802C13.5602 70.2888 14.2926 71.0871 14.7552 71.7534C15.1769 71.6027 15.2685 71.5429 15.8665 71.3875C16.4975 71.2237 17.1842 71.0702 17.8859 71.0487C18.5876 71.0273 19.4303 71.0618 20.1627 71.7941C20.6278 72.2592 20.7374 72.7138 20.8268 73.1358C20.9162 73.5577 20.9397 73.9864 20.9488 74.4368C20.9668 75.3375 20.8955 76.3395 20.7861 77.3233C20.6768 78.3072 20.5317 79.2716 20.4202 80.0202C20.3766 80.3133 20.3427 80.5384 20.3118 80.752C20.4351 80.8486 20.5236 80.9206 20.7048 81.0501C21.3223 81.4917 22.2282 82.085 23.2392 82.7171C24.8054 83.6961 26.502 84.6528 28.0366 85.5088C27.908 84.9713 27.8811 84.6876 27.874 84.5737C27.7854 84.3592 27.4268 83.5513 27.088 82.2428C26.7078 80.7746 26.3281 78.9738 26.9253 77.2422C27.5257 75.5015 28.9382 74.2251 30.5032 73.0953C31.0686 72.6872 31.6795 72.3427 32.2787 71.984C32.0897 71.6179 32.0566 71.3005 32.0754 71.1167C32.1207 70.674 32.2335 70.5241 32.3329 70.3171C32.5317 69.9031 32.7922 69.4809 33.1054 69.0161C33.7318 68.0865 34.5221 67.0469 35.1383 66.3599C35.539 65.9133 36.1314 65.4545 36.6427 64.9912C36.6131 64.9992 36.591 65.0103 36.5613 65.0183C35.3457 65.3451 34.1078 65.6611 32.9427 65.8314C31.7776 66.0018 30.6902 66.0943 29.6088 65.6824C28.4796 65.2522 27.7253 64.4055 26.9118 63.3921C26.0982 62.3787 25.3089 61.1522 24.5807 59.8821C23.1243 57.3421 21.9432 54.7584 21.5584 53.0653C21.2822 51.8503 21.4368 50.4536 21.6939 48.39C21.951 46.3264 22.3893 43.7962 22.9815 41.1669C24.1658 35.9083 25.8544 30.3171 28.2399 27.046C30.06 24.55 31.7925 19.4087 32.9697 14.7408C34.1471 10.0728 34.858 5.87063 35.0433 4.82073C35.2684 3.54493 35.8162 2.64261 36.3985 2.11033C36.9362 1.61882 37.5586 1.43347 37.6589 1.40563V1.39208C37.6589 1.39208 37.7256 1.3788 37.7267 1.37853C37.8383 1.34992 43.5737 -0.113884 48.0133 0.00979677L48.0153 0.00944936ZM86.3289 161.428L86.3018 161.441C86.3511 161.531 86.4137 161.671 86.7084 161.848C86.5695 161.764 86.4461 161.586 86.3289 161.428Z" fill="black"/>
<path d="M30.8108 88.5295C29.6277 88.3605 18.8098 81.9379 18.8098 81.2618C18.8098 80.5857 20.1621 73.8249 19.1479 72.811C18.1337 71.7968 14.0772 73.487 14.0772 73.487C14.0772 73.487 13.4011 71.7969 11.8799 71.1208C10.3586 70.4447 6.30179 73.318 6.30179 74.5011C6.30179 75.6843 6.80885 84.1354 7.82303 84.1354C8.83721 84.1354 16.2743 85.6566 16.9504 84.8115C17.6265 83.9664 18.3026 83.6284 18.3026 83.6284C18.3026 83.6284 21.0071 84.9805 23.5424 87.5158C26.0779 90.0511 31.3176 94.6144 31.3176 94.6144L30.8108 88.5295Z" fill="#FFCCAA"/>
<path d="M30.98 85.9926L28.6136 87.6828C28.6136 87.6828 30.879 90.8132 31.038 92.9804C31.073 93.4573 30.98 94.9507 30.98 94.9507C33.1541 95.0383 34.274 91.4365 35.882 89.542L30.98 85.9926Z" fill="#AA0000"/>
<path d="M54.269 99.4796L36.6396 95.9539C34.9822 95.0152 33.4003 94.0294 32.9942 92.3087L35.5041 91.2331L56.3007 95.4758L57.735 98.3441C56.683 98.7295 57.4432 99.2357 54.269 99.4796Z" fill="#550000"/>
<path d="M1.44151 128.284C1.44151 128.284 2.63672 131.63 5.02716 132.945C7.41756 134.259 17.3378 139.159 22.1188 138.203C26.8997 137.247 32.1586 138.203 32.1586 138.203L34.3635 143.061L59.4093 142.027L63.6805 148.017L67.2977 143.82L39.6883 120.873L1.44151 128.284Z" fill="#782121"/>
<path d="M56.5372 65.0597C56.0591 65.1792 45.3021 64.4621 45.3021 64.4621L41.7164 74.9793L37.2941 91.831L43.3896 92.1896L56.5372 65.0597Z" fill="#2B0000"/>
<path d="M39.4325 70.1075C39.4325 70.1075 29.6698 73.6739 28.2768 77.7136C27.4744 80.04 29.291 84.3053 29.291 84.3053C29.291 84.3053 29.431 86.3625 30.6142 87.3766C31.7974 88.3907 36.5592 90.3899 36.5592 90.3899L43.4895 72.981L39.4325 70.1075Z" fill="#C83737"/>
<path d="M88.9553 76.1918C89.6314 76.3609 99.0971 81.4314 100.956 81.7696C102.816 82.1077 104.506 80.0794 106.872 80.4175C109.239 80.7555 113.971 80.4175 115.155 81.4316C116.338 82.4457 115.831 83.6288 115.324 84.6429C114.817 85.6571 116.845 91.4037 115.831 92.249C114.817 93.094 112.647 93.7514 112.647 93.7514C112.183 93.9062 111.608 93.5928 111.438 93.1843C111.122 92.4203 111.347 91.0658 109.915 91.0658C107.205 91.0658 106.365 92.925 106.365 92.925L105.689 95.4603C105.689 95.4603 101.295 94.4462 101.295 93.0941C101.295 91.7419 102.647 86.5024 99.9424 84.9811C97.2379 83.46 88.4484 78.8964 88.4484 78.8964L88.9553 76.1918Z" fill="#FFCCAA"/>
<path d="M86.4226 73.1475C86.4226 73.1475 89.4651 74.3306 90.6483 74.6687C91.8315 75.0067 92.5076 76.6969 92.0005 78.8942C91.4935 81.0914 90.1412 83.4576 88.4509 82.7816C86.7606 82.1055 82.8728 80.7534 82.8728 80.7534L86.4226 73.1475Z" fill="#AA0000"/>
<path d="M19.8255 130.617C25.2518 140.731 23.6399 150.142 25.0653 159.857L20.6708 156.307C23.0946 152.471 20.777 142.84 15.0927 129.095L19.8255 130.617Z" fill="#FFCCAA"/>
<path d="M70.8705 141.432C75.7725 145.489 86.2521 160.7 86.2521 160.7H88.7875L89.4637 168.475C82.7849 162.349 77.5993 151.083 68.1661 144.643L70.8705 141.432Z" fill="#FFCCAA"/>
<path d="M70.8662 141.437C72.6223 142.89 75.0981 145.772 77.5476 148.876L74.322 150.015C72.4591 148.038 70.4463 146.203 68.1689 144.648L70.8664 141.439L70.8662 141.437Z" fill="#D38D5F"/>
<path d="M15.0853 129.09L19.829 130.608C21.9928 134.641 23.0187 138.565 23.5831 142.439C22.295 141.808 20.7517 141.018 19.2328 140.23C18.1732 136.908 16.7798 133.187 15.0856 129.09L15.0853 129.09Z" fill="#D38D5F"/>
<path d="M53.6705 94.5792C53.6705 94.5792 54.3877 101.989 55.2243 103.184C56.061 104.379 78.8893 115.972 80.4432 116.451C81.997 116.929 96.8175 122.426 98.4907 123.382C100.164 124.338 100.164 126.131 98.9688 126.49C97.7736 126.848 96.2198 127.804 95.9808 128.641C95.7417 129.477 96.5784 130.075 94.9051 131.27C93.2318 132.465 81.2795 143.939 79.1284 144.297C76.977 144.656 67.6543 148.72 65.9812 148.72C64.3079 148.72 62.3955 147.644 63.3517 146.329C64.3079 145.015 63.2322 143.819 60.6028 144.417C57.9733 145.015 46.4992 149.078 42.4356 147.883C38.3719 146.688 32.7544 143.461 34.7862 142.624C36.8181 141.788 37.2962 139.636 35.3839 139.636C33.4715 139.636 23.5511 140.115 22.1169 138.202C20.6827 136.29 10.1649 128.283 7.29653 128.044C4.42803 127.805 1.44 128.283 1.44 128.283C1.44 128.283 9.44804 115.136 10.2846 112.985C11.1213 110.834 14.3483 107.607 18.5316 106.411C22.7148 105.216 34.5473 98.8821 35.8622 97.2086C35.5075 93.4896 35.9092 92.5983 37.8941 88.6034L53.6705 94.5792Z" fill="#C83737"/>
<path d="M37.893 88.599L53.6705 94.5748C53.6705 94.5748 53.9374 97.3319 54.3346 99.7519C53.0791 98.9302 50.1373 97.2131 46.9753 96.8518C42.7921 96.3737 39.4413 96.6165 38.8437 96.3775C38.2461 96.1384 38.2474 94.3447 38.2474 94.3447C38.2474 94.3447 38.1353 95.7812 37.2987 95.7812C36.9281 95.7812 36.3264 95.8238 35.7672 95.876C35.6441 93.2018 36.1708 92.0688 37.895 88.5987L37.893 88.599Z" fill="#782121"/>
<path d="M69.4437 72.3496C69.4437 72.3496 63.5828 84.5377 61.3121 86.0915C59.0411 87.6452 57.2573 90.3959 57.1378 92.7864C57.0358 94.8261 58.6903 97.9236 57.7341 98.6409C57.1596 99.0718 56.0689 99.2831 55.254 99.3863C56.1182 99.2547 57.1897 98.9541 56.8938 98.2886C56.4157 97.213 48.8338 94.9109 44.588 93.979C42.5551 93.5329 39.2037 94.2194 38.3671 93.3828C37.5305 92.5461 44.7371 75.6295 44.7371 75.6295L69.4443 72.351L69.4437 72.3496ZM40.1429 72.4716L44.3036 75.0871C44.3036 75.0871 38.4931 91.5897 38.0152 92.0676C37.5371 92.5457 36.8597 93.0956 36.1043 92.6639C35.2676 92.1858 32.8092 91.6543 33.3937 93.3009C32.6168 92.1655 32.8611 91.0698 33.8274 90.211C34.3033 89.7881 35.3718 86.3384 37.1207 82.595C39.1755 78.1964 38.4217 75.8177 40.1429 72.4716ZM54.7391 99.4402C54.4576 99.4665 54.2647 99.4809 54.2647 99.4809C54.2647 99.4809 54.4552 99.4682 54.7391 99.4402Z" fill="#A02C2C"/>
<path d="M40.1438 72.471L44.3045 75.0865C44.3045 75.0865 43.8485 76.3687 43.2203 78.1357C41.7187 77.43 40.4118 76.671 38.9512 76.1165C39.1829 74.9294 39.473 73.775 40.1438 72.471ZM63.0208 73.2028L68.4688 74.3277C67.2613 76.7348 65.1433 80.7949 63.3864 83.5022L59.9982 80.7105C59.9982 80.7105 49.483 81.0753 47.9291 80.4777C47.0366 80.1344 44.3247 79.1473 43.5589 78.4474C44.2539 76.768 44.738 75.6286 44.738 75.6286L63.0208 73.2028Z" fill="#782121"/>
<path d="M68.1643 66.0484C68.1643 66.0484 80.3345 63.0061 82.1937 63.8512C84.053 64.6963 86.7574 68.0767 86.7574 69.429C86.7574 70.7811 88.9547 72.9784 88.9547 75.0067C88.9547 77.035 86.7574 81.2606 85.5742 81.7675C84.391 82.2746 85.2361 83.7958 83.7149 84.6409C82.1936 85.486 80.5033 85.824 80.5033 85.824C80.5033 85.824 78.306 88.1903 76.9537 88.1903C75.6015 88.1903 70.1926 87.0072 68.1642 85.317C66.1359 83.6268 59.2055 74.3305 59.2055 74.3305L68.1643 66.0484Z" fill="#C83737"/>
<path d="M43.3964 61.482L47.801 66.5641L42.6375 75.3458C39.5267 72.9259 36.5116 71.0918 33.5977 71.3751C33.0657 71.4268 35.1385 68.5212 36.2134 67.323C38.2728 65.0273 43.3964 61.482 43.3964 61.482ZM76.2617 62.4306C76.2617 62.4306 71.2296 73.4214 66.3411 76.5381C59.2811 81.04 44.5127 79.554 42.9085 75.454L46.622 69.1251L52.0023 64.4632L76.2617 62.4306Z" fill="#A02C2C"/>
<path d="M82.5931 54.0663C82.5931 54.0663 73.2706 66.6153 71.597 67.6912C69.9237 68.7668 64.3661 70.6628 60.8402 69.7229C58.5604 69.1152 57.404 65.3905 55.4616 65.1218C51.3207 63.9107 49.9243 67.0904 47.2146 68.1694C47.2146 68.1694 44.3461 62.4329 42.0754 62.3132C39.8045 62.1937 32.6332 65.301 30.1234 64.3449C27.6135 63.3888 23.5496 55.3816 22.952 52.7523C22.3544 50.123 25.2229 33.6299 29.4061 27.8934C33.5893 22.1569 36.0992 7.0979 36.4579 5.06618C36.8164 3.03443 38.0117 2.79539 38.0117 2.79539C41.9838 2.45736 63.9479 5.30518 63.9479 5.30518L82.5931 54.0663Z" fill="#782121"/>
<path d="M44.4113 33.5107L52.6106 61.6581C48.9783 60.7791 45.5133 61.0384 41.8768 61.7394L34.4477 63.6024C33.011 63.6024 27.3986 57.5142 26.9185 53.2838C26.3159 47.9706 27.5986 38.5791 29.1198 35.6211C30.6411 32.6633 44.4108 33.5105 44.4108 33.5105L44.4113 33.5107ZM75.8536 36.98C75.8536 36.98 77.8014 59.3779 76.1111 62.3359C74.4208 65.2937 70.7733 67.3174 66.3093 64.4419C63.7033 62.7632 60.9854 62.8381 55.9989 63.1761L56.0802 55.492L75.8536 36.98Z" fill="#501616"/>
<path d="M52.235 57.1714L58.4558 57.7677L56.2061 63.3376C54.6934 63.6165 53.1321 63.8737 52.5652 64.1619C50.099 65.4156 49.4074 66.1603 48.2723 67.73L47.31 68.1429C49.2895 65.1496 51.1035 61.469 52.235 57.1714Z" fill="#D38D5F"/>
<path d="M41.9566 11.1597C41.9566 11.1597 27.1362 28.848 26.6579 39.1262C26.1798 49.4045 33.351 58.7265 45.064 59.9217C56.777 61.1168 64.1874 60.3998 72.3147 49.1655C80.442 37.931 73.5099 9.48663 73.5099 9.48663L41.9566 11.1597Z" fill="#FFCCAA"/>
<path d="M75.4243 34.8811C75.4243 34.8811 63.5182 27.3457 60.6039 21.9735C58.2986 17.7244 58.6625 15.3701 58.6625 15.3701C58.6625 15.3701 53.908 19.0446 48.6491 20.0008C43.3902 20.9569 34.3066 21.913 34.3066 21.913L32.3943 24.7813C32.3943 24.7813 26.4181 23.8253 25.4622 21.913C24.5061 20.0008 24.7451 14.0251 30.2432 10.4396C35.741 6.85414 39.5813 2.69652 48.2412 3.45456C60.7197 4.54709 66.8165 9.48335 66.8165 9.48335L75.4243 34.8811Z" fill="#28170B"/>
<path d="M59.2087 35.7961C56.7697 33.3456 53.0538 30.7053 47.0386 33.7679L48.0527 35.12L48.6417 34.4028C52.5502 31.7768 55.9534 34.718 59.2087 35.7961Z" fill="black"/>
<path d="M39.5149 32.8385C40.7898 32.6906 40.0402 31.868 40.1065 31.3173C36.2897 26.7574 33.0322 29.0351 31.6553 30.1342C34.527 28.4889 38.1723 30.1203 39.0926 31.4864L39.5149 32.8385Z" fill="black"/>
<path d="M62.7519 41.3947L61.975 42.1716C63.7476 42.5903 64.6451 44.4113 65.1423 45.9961C65.0304 43.8251 64.1486 42.6741 62.7519 41.3947Z" fill="#A05A2C"/>
<path d="M63.3504 42.3878C60.3079 44.8385 61.7446 44.585 59.1247 44.754C56.5047 44.923 29.7137 38.0777 29.7137 38.0777L28.8686 37.4017C28.8686 37.4017 30.316 52.5044 37.996 55.1485C47.7002 58.4898 58.4484 53.8811 63.3504 42.3878Z" fill="black"/>
<path d="M59.9676 45.4278L31.9935 38.9207L31.1484 44.9208C31.1484 44.9208 33.1577 52.2007 36.1349 53.879C44.6738 58.6927 54.221 53.7945 56.0802 51.4282C57.7453 49.3091 59.9676 45.4278 59.9676 45.4278Z" fill="white"/>
<path d="M45.4304 37.5698C41.8446 39.4347 38.5478 38.0555 40.613 34.8655C39.9674 37.3292 41.3787 37.9616 45.4304 37.5698Z" fill="#A05A2C"/>
<path d="M54.746 49.7037L49.9651 49.2256L50.0846 47.7317L49.4272 49.1061C47.0482 49.2117 44.4177 48.3108 41.8975 47.8512C46.561 49.4273 51.3576 49.5617 54.746 49.7037Z" fill="#B3B3B3"/>
<path d="M38.0144 2.79433C38.0144 2.79433 45.6637 0.882092 49.6077 1.5992C53.5519 2.3163 70.285 2.07727 78.4123 9.6068C81.3583 12.336 101.958 39.4853 103.751 41.6367C105.544 43.788 108.771 47.1343 110.325 47.6126C111.879 48.0907 113.91 49.5249 111.4 50.1224C108.891 50.72 106.261 50.1224 104.827 50.3614C103.392 50.6005 101.719 50.959 99.9264 50.4809C98.1336 50.0029 95.9822 50.2419 95.9822 50.2419C95.9822 50.2419 96.9383 52.2737 95.3846 52.6322C93.8308 52.9907 92.7551 52.2736 92.7551 52.2736C92.7551 52.2736 92.9942 53.2297 91.3209 53.8273C89.6476 54.4249 88.5985 54.0033 87.3767 54.5444C84.6227 55.7642 81.2812 58.8469 80.2052 60.042C79.1295 61.2371 72.6881 68.7669 69.2091 68.8861C68.8051 68.8999 70.1422 68.5794 70.799 67.7561C71.8542 66.4332 73.5734 64.3545 73.8789 62.2837C76.4153 45.0907 65.1175 14.5157 62.5158 11.3976C61.5907 10.2887 62.8744 10.8 62.7549 9.48537C62.6354 8.17072 61.4251 5.93735 59.0497 6.01945C55.426 6.14469 41.8358 2.74052 38.0141 2.79256L38.0144 2.79433Z" fill="#C83737"/>
<path d="M49.4898 70.1076C51.3032 70.7944 49.6167 72.7233 48.3911 71.9668C46.6175 70.8719 44.6185 70.4385 42.7284 69.685C41.8514 69.3354 42.7026 67.5369 43.9116 67.9948L49.4898 70.1076Z" fill="#E9C6AF"/>
<path d="M47.4167 73.0652C49.1894 73.8513 47.5436 75.6809 46.318 74.9244C44.5444 73.8295 43.4701 73.1534 41.5006 72.6426C39.9898 72.2507 41.3753 70.3861 42.557 70.9102L47.4167 73.0652Z" fill="#E9C6AF"/>
<path d="M87.9405 167.122C88.194 165.179 87.856 160.869 87.4334 160.615C87.0108 160.362 88.5321 159.263 88.9546 159.686C89.3772 160.108 90.1718 163.702 90.3069 164.925C90.4498 166.22 95.6694 179.403 97.9133 182.08C98.6809 182.997 93.7721 185.038 92.6735 181.827C91.5748 178.616 90.8985 171.179 87.9405 167.122Z" fill="#550000"/>
<path d="M25.4852 158.081C25.0626 157.827 20.4986 152.926 20.4986 152.926L19.738 153.433C19.738 153.433 9.84991 146.249 7.73698 146.08C5.62415 145.911 1.7365 149.038 2.9196 150.306C4.10278 151.573 10.7906 152.459 14.4136 154.278C18.038 156.097 23.4564 161.292 24.4708 161.123C25.485 160.954 25.4852 158.081 25.4852 158.081Z" fill="#550000"/>
<path d="M89.5711 44.014C90.1709 44.0142 91.0174 45.6473 91.2381 46.101C91.8139 47.2846 92.6705 50.6255 93.122 52.4568C92.8901 52.3596 92.756 52.2671 92.756 52.2671C92.756 52.2671 92.7747 52.3901 92.7425 52.5652C91.481 50.5392 88.929 46.5022 88.9613 45.7758C89.0194 44.4686 89.2569 44.014 89.5711 44.014ZM94.9788 45.9384C95.4436 45.9807 96.0541 46.1974 96.6458 46.8735C97.4592 47.8031 97.4309 49.3158 97.337 50.1802C96.5481 50.1776 95.9817 50.2479 95.9817 50.2479C95.9817 50.2479 96.0474 50.3836 96.1172 50.6003L96.0495 50.5867C95.4064 48.8033 94.9809 47.8347 94.1928 46.0198C94.1928 46.0198 94.5139 45.8962 94.9788 45.9384Z" fill="#A02C2C"/>
<path d="M25.0385 111.102C24.3213 110.982 27.4571 114.413 31.6249 115.918C39.1437 118.634 56.1802 134.02 62.0368 143.939C62.0368 143.939 63.5265 143.885 63.8821 145.216C64.0264 146.335 62.8495 146.492 63.4252 147.521C64.0444 148.628 67.14 148.751 66.6522 148.294C63.9521 145.767 54.362 131.086 39.4219 119.849C33.3299 115.268 26.4787 113.989 25.0385 111.102Z" fill="#A02C2C"/>
<path d="M36.4575 138.978C36.4575 138.978 35.9791 134.301 35.083 132.165C32.1698 125.221 22.3538 114.178 22.4137 113.461C22.4734 112.744 23.6686 111.609 23.6686 111.609C23.6686 111.609 22.8917 113.82 23.3101 114.059C24.1736 114.552 33.3577 126.23 36.0986 133.48C37.557 137.338 38.0707 145.91 37.8317 145.73C37.5927 145.551 34.1062 143.68 34.6046 143.041C35.0856 142.425 36.3075 142.008 36.4871 141.487C36.7859 140.621 36.6965 139.964 36.4575 138.978Z" fill="#A02C2C"/>
<path d="M17.3362 77.25C14.2654 76.134 14.8032 75.6548 14.2286 74.9792C14.2286 74.9792 15.4529 79.4434 14.8262 81.5527C14.5516 82.4772 13.6896 83.1167 13.0334 83.8235C11.7078 85.2514 10.3865 82.8944 11.7187 81.4332C10.4227 82.8042 10.0758 83.7602 8.37213 83.943L13.9298 84.6003C15.2883 84.761 15.1499 80.9153 15.8422 79.0429L17.5752 80.5966C17.1341 79.3004 16.5486 77.9319 17.3362 77.25Z" fill="#D38D5F"/>
<path d="M76.2483 9.95411L63.2819 9.38983C63.2038 10.2377 62.92 10.8289 62.479 10.8688C62.479 10.8688 74.5646 9.60111 75.1561 10.2772C75.7477 10.9533 76.2483 9.95411 76.2483 9.95411Z" fill="#A02C2C"/>
</svg>
