<svg width="150" height="204" viewBox="0 0 150 204" fill="none" xmlns="http://www.w3.org/2000/svg">
<path d="M0.384644 76.8303V153.245H26.7846C50.2308 153.245 53.7385 153.623 56.3231 156.642C60.5693 161.359 60.3846 161.736 52.8154 169.66C46.9077 175.51 46.3539 177.208 47.277 183.057C49.3077 196.83 64.2616 205.887 80.3231 203.434C86.9693 202.302 90.1077 200.415 95.277 194.566C104.138 184.755 104.138 177.774 95.4616 168.906C88.077 161.359 87.8923 160.604 92.3231 156.453C94.9077 154 100.815 153.245 122.231 152.868L149 152.302V124.377V96.2642L143.831 91.7359C136.815 85.5095 133.308 86.0756 127.215 93.8114C123.523 98.5284 120.569 100.415 116.877 100.415C110.415 100.415 100.262 90.4152 99.7077 83.6227C99.1539 75.3208 100.262 65.8869 102.108 62.302C103.954 58.9058 114.292 51.3586 117.246 51.3586C117.985 51.3586 122.415 54.9435 127.031 59.2831C134.785 66.6416 135.523 66.8303 140.138 64.3775C147.892 60.0378 149.923 52.302 149.923 24.9435V0.415188H75.1539H0.384644V76.8303Z" fill="black"/>
</svg>
