<svg width="249" height="204" viewBox="0 0 249 204" fill="none" xmlns="http://www.w3.org/2000/svg">
<path d="M1.71424 89.283C3.74501 94.7547 15.9296 105.132 20.1758 105.132C25.7142 105.132 32.7296 101.17 35.8681 96.2642C39.3758 90.9811 42.5142 90.7925 46.5758 95.3208C49.1604 98.151 49.7142 103.245 49.7142 125.509V152.302H75.5604C101.037 152.302 101.591 152.491 106.391 157.208L111.007 161.925L104.73 167.962C101.222 171.359 97.7143 175.887 96.9758 178.151C95.3143 183.434 99.5604 191.925 106.945 198.34C111.93 202.491 114.514 203.245 124.483 203.245C134.453 203.245 137.037 202.491 142.022 198.34C149.407 191.925 153.653 183.434 151.991 178.151C151.253 175.887 147.745 171.359 144.237 167.962L137.96 161.925L142.576 157.208C147.376 152.491 147.93 152.302 173.407 152.302H199.253V125.321C199.253 101.359 199.622 97.7736 202.576 95.1321C207.191 90.7925 208.114 90.9811 215.314 98.5283C223.807 107.585 230.268 107.396 240.237 97.9623C247.068 91.3585 247.991 89.4717 248.73 80.2264C249.653 67.3962 245.776 57.7736 237.099 52.3019C228.053 46.6415 221.96 47.3962 214.576 55.3208C208.668 61.9245 208.299 61.9245 203.868 59.0944C199.437 56.0755 199.253 55.3208 198.883 28.151L198.33 0.415109H124.483H50.6373L50.2681 24.9434C49.7142 53.8113 48.9758 57.2076 44.1758 59.8491C41.0373 61.5472 39.3758 60.9811 34.2066 55.1321C29.9604 50.6038 26.4527 48.5283 22.945 48.5283C15.745 48.5283 6.32963 55.1321 2.82193 62.4906C-0.316529 69.283 -0.870375 82.6793 1.71424 89.283Z" fill="black"/>
</svg>
