<svg width="150" height="204" viewBox="0 0 150 204" fill="none" xmlns="http://www.w3.org/2000/svg">
<path d="M0.461548 28.1131V56.2264L6.18462 61.132C9.32309 63.7735 12.6462 66.0377 13.5692 66.0377C14.4923 66.0377 17.4462 63.3962 20.2154 60.1886C27.7846 51.698 30.9231 50.3773 36.8308 53.5848C44.7692 57.7358 48.6462 63.2075 49.7539 71.3207C51.0462 81.3207 47.5385 91.5094 41.0769 96.2263C33.6923 101.509 29.2615 100.943 22.4308 93.3962C15.2308 85.6603 11.1692 85.0943 5.07693 91.5094C0.646163 95.849 0.461548 96.7924 0.461548 124.528V152.83H26.8615C50.3077 152.83 53.8154 153.207 56.4 156.226C60.6462 160.943 60.4615 161.698 53.0769 168.679C45.5077 176.038 44.9539 181.698 50.8615 190.755C61.5692 207.17 84.2769 207.924 97.0154 192.641C104.031 183.962 103.662 176.792 95.5385 168.49C88.1539 160.943 87.9692 160.189 92.4 156.038C94.9846 153.585 100.892 152.83 122.308 152.453L149.077 151.887L149.631 75.849L150 -6.06568e-05H75.2308H0.461548V28.1131Z" fill="black"/>
</svg>
