<svg width="200" height="205" viewBox="0 0 200 205" fill="none" xmlns="http://www.w3.org/2000/svg">
<path d="M0.384644 77.5282V153.943H25.4923C39.1539 153.943 51.8923 154.698 53.7385 155.83C60.0154 159.226 59.8308 163.377 53 171.113C45.6154 179.415 45.0616 184.321 50.2308 193C55.0308 201.113 62.7846 204.887 74.2308 204.887C85.677 204.887 93.4308 201.113 98.2308 193C103.769 183.943 103.031 178.094 95.0923 170.17L88.2616 163.377L92.6923 158.66C96.9385 154.132 97.677 153.943 122.6 153.943H148.077V129.415C148.077 94.8867 152.508 87.1509 165.246 100.17C172.262 107.34 176.877 108.283 185 103.943C201.985 95.0754 204.385 69.415 189.615 56.0188C180.385 47.7169 173.369 48.0943 164.138 57.1509L157.123 64.3207L152.508 59.0377C148.262 53.9433 148.077 52.6226 148.077 27.3396V0.924484L121.492 1.49052C96.2 2.05656 94.5385 2.24524 90.1077 6.58486C83.6462 12.8113 84.0154 17.5283 91.7693 24.8867C99.5231 32.0566 99.8923 36.5849 93.4308 44.3207C81.9846 58.283 60.3846 55.6415 52.2616 39.2264C49.677 34.132 51.7077 29.6037 60.0154 21.8679L65.9231 16.5849L62.0462 11.1132C55.5846 2.24524 51.3385 1.11316 24.9385 1.11316H0.384644V77.5282Z" fill="black"/>
</svg>
