<svg width="199" height="154" viewBox="0 0 199 154" fill="none" xmlns="http://www.w3.org/2000/svg">
<path d="M196.062 60.3396C192.923 54.4905 182.585 47.5094 176.862 47.5094C174.831 47.5094 169.846 50.5283 165.785 54.1132C157.477 61.849 155.631 62.2264 151.938 56.566C149.538 53.1698 148.985 46.7547 148.985 26.3773V0.3396L122.585 0.3396C94.5231 0.3396 89.5385 1.66035 86.4 10.5283C85.1077 13.7358 86.2154 16.1887 91.9385 22.4151C96 26.9434 99.1385 31.849 99.1385 33.5471C99.1385 35.2453 96 39.9622 91.9385 43.9245C85.6616 50.3396 83.8154 51.283 76.0616 51.283C66.0923 51.283 58.5231 47.3207 54.0923 39.9622C49.8462 32.4151 50.2154 30.1509 58.3385 22.2264C65.5385 15.0566 65.5385 14.6792 62.9539 9.58488C61.4769 6.56601 58.7077 3.35847 56.8616 2.22639C54.8308 1.283 41.5385 0.3396 27.3231 0.3396L1.29233 0.3396L1.29233 28.2641C1.47694 57.3207 2.03079 59.9622 10.1539 64.3019C14.0308 66.3773 15.3231 65.8113 22.5231 59.0188C27.1385 54.6792 31.3846 51.283 32.3077 51.283C33.2308 51.283 36.7385 53.1698 40.2462 55.6226C52.8 64.3019 53.9077 84.4905 42.4616 94.6792C34.3385 102.038 29.9077 101.849 22.7077 93.7358C15.6923 86 10.8923 85.4339 5.35387 91.4717C1.84617 95.2452 1.47694 97.8868 1.10771 123.924L0.923096 152.226H27.6923C53.5385 152.226 54.6462 152.038 59.2616 147.698C65.7231 141.472 65.3539 136.755 57.6 129.396C53.9077 126 51.1385 121.66 51.1385 119.208C51.1385 113.358 62.4 102.226 69.0462 101.849C84.3693 101.094 90.2769 103.358 95.4462 112.226C100.431 120.528 100.246 121.66 91.7539 129.774C87.6923 133.736 84.3693 137.698 84.3693 138.641C84.3693 139.585 87.1385 143.17 90.6462 146.755L96.9231 153.17H122.954H148.985V126.943C148.985 101.66 149.169 100.34 153.415 95.2452L158.031 89.9622L164.862 97.132C174.277 106.943 181.846 106.755 191.631 96.7547C198.462 89.7735 198.831 89.0188 198.831 77.5094C198.646 70.7169 197.538 63.1698 196.062 60.3396Z" fill="black"/>
</svg>
