<svg width="150" height="154" viewBox="0 0 150 154" fill="none" xmlns="http://www.w3.org/2000/svg">
<path d="M125.077 0.3396C97.5692 0.3396 92.2154 1.84903 87.7846 10.5283C85.0154 16 85.0154 16.3773 90.5539 21.283C99.2308 29.2075 100.708 33.3585 97.5692 39.5849C93.3231 47.8868 86.8615 51.283 75.0462 51.283C65.8154 51.283 64.1539 50.717 58.4308 44.8679C50.1231 36.3773 50.1231 30.3396 58.6154 23.5471C66.7385 16.9434 66.9231 11.6604 59.3539 5.24526C53.6308 0.3396 53.2615 0.15092 27.4154 0.716958L1.38462 1.283L1.38462 29.0188C1.38462 55.6226 1.56924 56.7547 5.81539 61.4717C11.9077 68.0754 17.0769 67.6981 23.1692 59.7736C29.6308 51.4717 35.1692 51.283 43.8462 59.0188C49.9385 64.4905 50.3077 65.4339 50.3077 76.7547C50.3077 87.3207 49.7539 89.2075 44.9539 94.4905C37.5692 102.415 31.1077 102.226 22.4308 93.7358C16.3385 87.5094 15.4154 87.132 10.8 89.2075C2.12309 93.3585 0.461548 99.3962 0.461548 127.698L0.461548 153.17H27.9692C55.1077 153.17 55.4769 153.17 60.2769 148.264C66.7385 141.66 66.3692 138.264 58.6154 130.528C51.6 123.547 50.6769 118.641 55.1077 112.038C59.3539 105.811 67.4769 102.226 77.0769 102.226C83.9077 102.226 86.4923 103.358 91.6615 108.453C101.631 118.075 101.815 122.038 92.7692 130.528C84.0923 138.641 83.9077 142.792 92.2154 149.396C96.4615 152.792 99.6 153.17 123.415 153.17H150V76.7547V0.3396L125.077 0.3396Z" fill="black"/>
</svg>
