<svg width="200" height="153" viewBox="0 0 200 153" fill="none" xmlns="http://www.w3.org/2000/svg">
<path d="M196.062 62.4339C192.738 55.2641 182.4 47.3396 176.862 47.3396C175.015 47.3396 169.846 50.7358 165.415 54.8868L157.477 62.4339L153.6 58.4717C149.723 55.0755 149.538 53 149.538 27.5283V0.1698L122.954 0.1698C96.9231 0.1698 96.1846 0.358479 90.6462 5.07546C83.2615 11.3019 83.4462 14.8868 91.3846 22.8113C99.6923 30.9245 99.6923 36.3962 91.5692 44.6981C85.8462 50.5472 84.1846 51.1132 74.9538 51.1132C66.2769 51.1132 63.8769 50.3585 58.5231 45.4528C48.3692 36.3962 48.7385 29.6038 59.6308 20.9245C66.0923 15.8302 65.9077 12.6226 59.2615 5.6415L53.9077 0.1698L26.9538 0.1698L0 0.1698L0 76.5849L0 153H74.7692H149.538V125.641C149.538 100.358 149.908 97.9056 153.415 94.3207L157.292 90.3585L164.492 97.5283C172.8 105.83 179.446 106.585 187.754 100.547C198.831 92.6226 202.523 75.4528 196.062 62.4339Z" fill="black"/>
</svg>
