<svg width="151" height="204" viewBox="0 0 151 204" fill="none" xmlns="http://www.w3.org/2000/svg">
<path d="M150.462 175.886V148.339L145.108 142.867C142.154 139.848 138.831 137.396 137.723 137.396C136.615 137.396 132.554 140.792 128.308 145.132C120 153.811 116.308 153.811 107.262 144.943C97.4769 135.132 98.7692 115.32 109.846 107.207C117.231 101.924 121.108 102.49 128.308 110.037C135.692 117.773 139.754 118.339 145.846 111.924C150.277 107.584 150.462 106.641 150.462 78.9051V50.6032H124.062C100.615 50.6032 97.1077 50.2259 94.5231 47.207C90.2769 42.49 90.4615 41.924 97.8462 34.3768C105.415 26.641 105.969 21.5466 100.062 12.6787C93.9692 3.24473 85.1077 -0.717531 73.4769 0.414544C63.1385 1.35794 56.4923 5.3202 51.8769 13.2447C47.0769 21.3579 48.1846 27.9617 55.3846 35.5089C61.8462 42.3013 61.8462 42.49 58.7077 46.4523C55.5692 50.2259 53.5385 50.6032 28.6154 50.9806L1.84616 51.5466V79.2825C1.84616 105.886 2.03078 107.018 6.27693 111.735C12.3692 118.339 16.6154 117.962 23.8154 110.037C31.3846 101.735 36 101.735 44.4923 109.66C50.5846 115.32 50.9538 116.641 50.9538 126.452C50.9538 132.301 50.0308 138.905 48.9231 141.169C46.8923 144.943 36.7385 152.49 33.6 152.49C32.8615 152.49 28.6154 149.094 24 144.754C16.2462 137.396 15.8769 137.207 10.7077 140.037C2.40001 144.377 0.92308 150.037 0.92308 177.962V203.433L75.6923 203.433H150.462V175.886Z" fill="black"/>
</svg>
