<svg width="200" height="203" viewBox="0 0 200 203" fill="none" xmlns="http://www.w3.org/2000/svg">
<path d="M109.537 3.84915C94.5835 14.4152 93.4758 25.5473 106.399 36.6793L112.122 41.585L107.137 46.6793C102.337 51.585 101.968 51.585 76.3066 51.585H50.4604V77.6227C50.4604 98.0001 49.9066 104.415 47.5066 107.811C43.6296 113.472 41.7835 113.094 34.3989 105.359C30.3373 101.208 26.4604 98.7548 23.3219 98.7548C16.3066 98.7548 7.07579 105.359 3.5681 112.717C-2.70883 126.491 1.35271 144.415 12.6142 151.585C21.4758 157.057 27.1989 156.491 34.3989 148.755C41.7835 141.019 43.6296 140.642 47.5066 146.302C49.9066 149.698 50.4604 156.113 50.4604 176.491V202.528H125.23H199.999V127.057V51.585H174.153C148.491 51.585 148.122 51.585 143.322 46.6793L138.337 41.585L144.245 36.6793C155.876 26.868 155.322 16.4907 142.768 5.54726C137.783 1.39632 135.199 0.641602 125.414 0.641602C117.66 0.641602 112.676 1.585 109.537 3.84915Z" fill="black"/>
</svg>
